{
.appVersion = "3176";
.formatVersion = 3;
DisplayStrings = (
"HO
OO
HH
OH
NH
HN",
"/tildecomb.case EẼ",
"/macroncomb.case Ē",
"/circumflexcomb.case Ê",
"ÊẾ",
W,
"̱Ẕ",
M,
"́é",
"̀è",
"ǥ",
"ʒ"
);
axes = (
{
name = Weight;
tag = wght;
}
);
classes = (
{
automatic = 1;

glyphs = (
{
color = 4;
glyphname = A;
lastChange = "2023-02-28 19:10:42 +0000";
layers = (
{
anchors = (
{
name = bottom;
pos = (479,0);
},
{
name = ogonek;
pos = (861,10);
},
{
name = top;
pos = (479,1708);
}
);
layerId = "043639A7-E62C-4A4F-99F5-E7AE759848D8";
shapes = (
{
closed = 1;
nodes = (
(14,0,l),
(275,0,l),
(320,306,l),
(636,306,l),
(683,0,l),
(943,0,l),
(624,1708,l),
(332,1708,l)
);
},
{
closed = 1;
nodes = (
(350,501,l),
(473,1356,l),
(484,1356,l),
(606,501,l)
);
}
);
width = 957;
}
);
unicode = 65;
userData = {
com.typemytype.robofont.mark = (
1,
0.6,
0.6,
1
);
};
},
{
color = 4;
glyphname = Aring;
lastChange = "2023-02-28 19:24:33 +0000";
layers = (
{
layerId = "043639A7-E62C-4A4F-99F5-E7AE759848D8";
shapes = (
{
closed = 1;
nodes = (
(14,0,l),
(275,0,l),
(320,306,l),
(636,306,l),
(683,0,l),
(943,0,l),
(624,1708,l),
(570,1607,l),
(370,1607,l),
(332,1708,l)
);
},
{
closed = 1;
nodes = (
(350,501,l),
(473,1356,l),
(484,1356,l),
(606,501,l)
);
},
{
closed = 1;
nodes = (
(478,1643,cs),
(384,1643,o),
(339,1707,o),
(339,1772,cs),
(339,1846,o),
(382,1903,o),
(478,1903,cs),
(584,1903,o),
(636,1847,o),
(636,1772,cs),
(636,1710,o),
(584,1643,o)
);
},
{
closed = 1;
nodes = (
(479,1480,cs),
(697,1480,o),
(803,1633,o),
(803,1776,cs),
(803,1935,o),
(697,2065,o),
(479,2065,cs),
(262,2065,o),
(165,1931,o),
(165,1776,cs),
(165,1625,o),
(266,1480,o)
);
}
);
width = 957;
}
);
unicode = 197;
userData = {
com.typemytype.robofont.mark = (
0.6,
0.986,
1,
1
);
};
},
{
color = 4;
glyphname = Aringacute;
lastChange = "2023-01-12 09:14:37 +0000";
layers = (
{
layerId = "043639A7-E62C-4A4F-99F5-E7AE759848D8";
shapes = (
{
closed = 1;
nodes = (
(14,0,l),
(275,0,l),
(320,306,l),
(636,306,l),
(683,0,l),
(943,0,l),
(624,1628,l),
(570,1527,l),
(370,1527,l),
(332,1628,l)
);
},
{
closed = 1;
nodes = (
(350,501,l),
(473,1276,l),
(484,1276,l),
(606,501,l)
);
},
{
closed = 1;
nodes = (
(478,1563,cs),
(384,1563,o),
(339,1627,o),
(339,1692,cs),
(339,1766,o),
(382,1823,o),
(478,1823,cs),
(584,1823,o),
(636,1767,o),
(636,1692,cs),
(636,1630,o),
(584,1563,o)
);
},
{
closed = 1;
nodes = (
(479,1400,cs),
(697,1400,o),
(803,1553,o),
(803,1696,cs),
(803,1855,o),
(697,1985,o),
(479,1985,cs),
(262,1985,o),
(165,1851,o),
(165,1696,cs),
(165,1545,o),
(266,1400,o)
);
},
{
closed = 1;
nodes = (
(562,1812,l),
(907,1978,l),
(778,2145,l),
(457,1929,l)
);
}
);
width = 957;
}
);
unicode = (506,507);
},
{
color = 4;
glyphname = AE;
lastChange = "2023-03-01 05:14:30 +0000";
layers = (
{
anchors = (
{
name = bottom;
pos = (628,0);
},
{
name = top;
pos = (733,1708);
}
);
layerId = "043639A7-E62C-4A4F-99F5-E7AE759848D8";
shapes = (
{
closed = 1;
nodes = (
(6,0,l),
(267,0,l),
(330,306,l),
(585,306,l),
(585,0,l),
(1235,0,l),
(1235,205,l),
(841,205,l),
(841,771,l),
(1148,771,l),
(1148,995,l),
(841,995,l),
(841,1503,l),
(1235,1503,l),
(1235,1708,l),
(438,1708,l)
);
},
{
closed = 1;
nodes = (
(369,492,l),
(548,1356,l),
(585,1356,l),
(585,492,l)
);
}
);
width = 1261;
}
);
metricRight = E;
unicode = 198;
userData = {
com.typemytype.robofont.mark = (
1,
0.6,
0.6,
1
);
};
},
{
color = 4;
glyphname = B;
lastChange = "2023-03-01 05:14:40 +0000";
layers = (
{
anchors = (
{
name = bottom;
pos = (520,0);
},
{
name = center;
pos = (520,854);
},
{
name = top;
pos = (520,1708);
}
);
layerId = "043639A7-E62C-4A4F-99F5-E7AE759848D8";
shapes = (
{
closed = 1;
nodes = (
(141,0,l),
(413,0,ls),
(704,0,o),
(963,65,o),
(963,437,cs),
(963,524,ls),
(963,727,o),
(882,833,o),
(727,894,c),
(727,902,l),
(832,940,o),
(935,1056,o),
(935,1238,cs),
(935,1321,ls),
(935,1679,o),
(635,1708,o),
(403,1708,cs),
(141,1708,l)
);
},
{
closed = 1;
nodes = (
(400,977,l),
(400,1519,l),
(445,1519,l),
(616,1519,o),
(673,1429,o),
(673,1270,cs),
(673,1200,ls),
(673,1040,o),
(584,977,o),
(445,977,cs)
);
},
{
closed = 1;
nodes = (
(400,189,l),
(400,794,l),
(469,794,l),
(639,794,o),
(696,705,o),
(696,545,cs),
(696,412,ls),
(696,252,o),
(607,189,o),
(469,189,cs)
);
}
);
width = 1039;
}
);
metricLeft = H;
unicode = 66;
userData = {
KernOnName = B;
com.typemytype.robofont.mark = (
1,
0.6,
0.6,
1
);
};
},
{
color = 4;
glyphname = C;
lastChange = "2023-03-01 05:13:04 +0000";
layers = (
{
anchors = (
{
name = bottom;
pos = (464,0);
},
{
name = top;
pos = (464,1708);
}
);
layerId = "043639A7-E62C-4A4F-99F5-E7AE759848D8";
shapes = (
{
closed = 1;
nodes = (
(532,-15,cs),
(761,-14,o),
(886,114,o),
(886,388,cs),
(886,546,l),
(659,546,l),
(659,384,ls),
(659,247,o),
(605,188,o),
(532,188,cs),
(427,188,o),
(378,251,o),
(378,463,cs),
(378,1233,ls),
(378,1452,o),
(429,1520,o),
(524,1520,cs),
(610,1520,o),
(656,1426,o),
(656,1239,cs),
(656,1157,l),
(856,1157,l),
(871,1231,o),
(884,1288,o),
(884,1361,cs),
(884,1559,o),
(794,1723,o),
(531,1723,cs),
(372,1723,o),
(107,1676,o),
(107,1161,cs),
(107,556,ls),
(107,43,o),
(366,-15,o)
);
}
);
width = 928;
}
);
unicode = 67;
userData = {
KernOnName = C;
com.typemytype.robofont.guides = (
{
angle = 90;
isGlobal = 0;
magnetic = 5;
x = 658;
y = 0;
}
);
com.typemytype.robofont.mark = (
1,
0.6,
0.6,
1
);
};
},
{
color = 4;
glyphname = D;
lastChange = "2023-03-01 05:14:56 +0000";
layers = (
{
anchors = (
{
name = bottom;
pos = (526,0);
},
{
name = center;
pos = (526,854);
},
{
name = top;
pos = (526,1708);
}
);
layerId = "043639A7-E62C-4A4F-99F5-E7AE759848D8";
shapes = (
{
closed = 1;
nodes = (
(400,197,l),
(456,197,ls),
(644,197,o),
(690,280,o),
(690,601,cs),
(690,1107,l),
(690,1428,o),
(644,1511,o),
(456,1511,c),
(400,1511,l)
);
},
{
closed = 1;
nodes = (
(141,0,l),
(141,1708,l),
(410,1708,ls),
(652,1708,o),
(961,1695,o),
(961,1102,cs),
(961,606,l),
(961,12,o),
(652,0,o),
(410,0,cs)
);
}
);
width = 1051;
}
);
metricLeft = H;
unicode = 68;
userData = {
com.typemytype.robofont.mark = (
1,
0.6,
0.6,
1
);
};
},
{
color = 2;
glyphname = Eth;
lastChange = "2023-02-28 19:25:10 +0000";
layers = (
{
layerId = "043639A7-E62C-4A4F-99F5-E7AE759848D8";
shapes = (
{
closed = 1;
nodes = (
(123,0,l),
(401,0,ls),
(594,0,o),
(936,28,o),
(936,606,cs),
(936,1129,ls),
(936,1696,o),
(594,1725,o),
(401,1725,cs),
(123,1725,l),
(123,1019,l),
(38,1019,l),
(38,817,l),
(123,817,l)
);
},
{
closed = 1;
nodes = (
(375,179,l),
(375,817,l),
(540,817,l),
(540,1019,l),
(375,1019,l),
(375,1546,l),
(413,1546,l),
(606,1546,o),
(667,1420,o),
(667,1176,cs),
(667,557,ls),
(667,297,o),
(598,179,o),
(413,179,cs)
);
}
);
width = 1027;
}
);
unicode = 208;
},
{
color = 4;
glyphname = E;
lastChange = "2023-03-01 05:17:03 +0000";
layers = (
{
anchors = (
{
name = bottom;
pos = (410,0);
},
{
name = ogonek;
pos = (738,10);
},
{
name = top;
pos = (460,1708);
},
{
name = topleft;
pos = (20,1708);
}
);
layerId = "043639A7-E62C-4A4F-99F5-E7AE759848D8";
shapes = (
{
closed = 1;
nodes = (
(141,0,l),
(794,0,l),
(794,204,l),
(400,204,l),
(400,789,l),
(709,789,l),
(709,993,l),
(400,993,l),
(400,1504,l),
(794,1504,l),
(794,1708,l),
(141,1708,l)
);
}
);
width = 820;
}
);
metricLeft = H;
unicode = 69;
userData = {
com.typemytype.robofont.mark = (
1,
0.6,
0.6,
1
);
};
},
{
color = 2;
glyphname = Eogonek;
lastChange = "2023-02-28 19:25:53 +0000";
layers = (
{
layerId = "043639A7-E62C-4A4F-99F5-E7AE759848D8";
shapes = (
{
closed = 1;
nodes = (
(576,0,l),
(523,-21,o),
(441,-90,o),
(441,-194,cs),
(441,-382,o),
(581,-419,o),
(644,-419,cs),
(699,-419,o),
(740,-410,o),
(795,-389,c),
(788,-238,l),
(777,-239,o),
(766,-239,o),
(755,-239,cs),
(665,-239,o),
(649,-134,o),
(770,0,c),
(665,13,l)
);
},
{
closed = 1;
nodes = (
(141,0,l),
(794,0,l),
(794,204,l),
(400,204,l),
(400,789,l),
(709,789,l),
(709,993,l),
(400,993,l),
(400,1504,l),
(794,1504,l),
(794,1708,l),
(141,1708,l)
);
}
);
width = 820;
}
);
unicode = 280;
userData = {
com.typemytype.robofont.mark = (
0.6,
0.986,
1,
1
);
};
},
{
color = 1;
glyphname = Eopen;
lastChange = "2023-03-01 05:16:21 +0000";
layers = (
{
layerId = "043639A7-E62C-4A4F-99F5-E7AE759848D8";
shapes = (
{
closed = 1;
nodes = (
(929,476,o),
(912,549,c),
(710,549,l),
(710,469,ls),
(710,256,o),
(635,187,o),
(535,187,cs),
(436,187,o),
(377,241,o),
(377,385,cs),
(377,567,ls),
(377,712,o),
(420,792,o),
(553,792,cs),
(662,792,l),
(662,977,l),
(553,977,ls),
(467,977,o),
(402,1031,o),
(402,1172,cs),
(402,1336,ls),
(402,1462,o),
(449,1520,o),
(546,1520,cs),
(653,1520,o),
(714,1419,o),
(714,1239,cs),
(714,1157,l),
(914,1157,l),
(928,1223,o),
(941,1288,o),
(941,1361,cs),
(941,1534,o),
(815,1723,o),
(546,1723,cs),
(255,1723,o),
(135,1586,o),
(135,1345,c),
(135,1240,ls),
(135,1046,o),
(242,942,o),
(345,893,c),
(345,885,l),
(212,840,o),
(110,745,o),
(110,521,cs),
(110,408,ls),
(110,93,o),
(305,-15,o),
(535,-15,cs),
(796,-15,o),
(937,118,o),
(937,348,cs),
(937,405,o)
);
}
);
width = 967;
}
);
metricLeft = O;
metricRight = E;
unicode = 400;
},
{
color = 1;
glyphname = Ereversed;
lastChange = "2023-02-28 19:39:06 +0000";
layers = (
{
anchors = (
{
name = bottom;
pos = (410,0);
},
{
name = ogonek;
pos = (82,10);
},
{
name = top;
pos = (410,1708);
},
{
name = topright;
pos = (800,1708);
}
);
layerId = "043639A7-E62C-4A4F-99F5-E7AE759848D8";
shapes = (
{
closed = 1;
nodes = (
(26,1708,l),
(26,1504,l),
(420,1504,l),
(420,993,l),
(111,993,l),
(111,789,l),
(420,789,l),
(420,204,l),
(26,204,l),
(26,0,l),
(679,0,l),
(679,1708,l)
);
}
);
width = 820;
}
);
unicode = 398;
},
{
color = 1;
glyphname = Esh;
lastChange = "2023-02-28 19:44:15 +0000";
layers = (
{
background = {
shapes = (
{
closed = 1;
nodes = (
(131,0,l),
(784,0,l),
(784,204,l),
(390,204,l),
(390,789,l),
(699,789,l),
(699,993,l),
(390,993,l),
(390,1504,l),
(784,1504,l),
(784,1708,l),
(131,1708,l)
);
}
);
};
layerId = "043639A7-E62C-4A4F-99F5-E7AE759848D8";
shapes = (
{
closed = 1;
nodes = (
(735,0,l),
(735,204,l),
(304,204,l),
(634,894,l),
(304,1504,l),
(735,1504,l),
(735,1708,l),
(14,1708,l),
(14,1571,l),
(380,895,l),
(14,137,l),
(14,0,l)
);
}
);
width = 761;
}
);
metricLeft = V;
metricRight = E;
unicode = 425;
},
{
color = 1;
glyphname = Schwa;
lastChange = "2023-03-01 05:16:27 +0000";
layers = (
{
background = {
shapes = (
{
pos = (-57,0);
ref = O;
}
);
};
layerId = "043639A7-E62C-4A4F-99F5-E7AE759848D8";
shapes = (
{
closed = 1;
nodes = (
(894,1679,o),
(629,1725,o),
(503,1725,cs),
(253,1725,o),
(117,1583,o),
(117,1260,cs),
(117,1182,l),
(337,1182,l),
(337,1286,ls),
(337,1466,o),
(402,1522,o),
(468,1522,cs),
(590,1522,o),
(624,1454,o),
(624,1232,cs),
(624,916,l),
(145,916,l),
(124,807,o),
(110,655,o),
(110,517,cs),
(110,106,o),
(276,-16,o),
(469,-16,cs),
(624,-16,o),
(894,37,o),
(894,548,cs),
(894,1171,ls)
);
},
{
closed = 1;
nodes = (
(624,706,l),
(624,428,ls),
(624,219,o),
(579,186,o),
(485,186,c),
(396,187,o),
(357,241,o),
(357,429,cs),
(357,548,o),
(358,670,o),
(361,706,c)
);
}
);
width = 1004;
}
);
metricLeft = O;
metricRight = O;
unicode = 399;
},
{
color = 1;
glyphname = Ezh;
lastChange = "2023-02-28 19:43:21 +0000";
layers = (
{
anchors = (
{
name = bottom;
pos = (493,0);
},
{
name = top;
pos = (493,1708);
}
);
layerId = "043639A7-E62C-4A4F-99F5-E7AE759848D8";
shapes = (
{
closed = 1;
nodes = (
(366,792,l),
(475,792,ls),
(608,792,o),
(651,712,o),
(651,567,cs),
(651,385,ls),
(651,241,o),
(592,187,o),
(493,187,cs),
(393,187,o),
(318,256,o),
(318,469,cs),
(318,549,l),
(116,549,l),
(99,476,o),
(91,405,o),
(91,348,cs),
(91,118,o),
(232,-15,o),
(493,-15,cs),
(723,-15,o),
(918,93,o),
(918,408,cs),
(918,521,ls),
(918,811,o),
(776,934,o),
(628,934,c),
(869,1571,l),
(869,1708,l),
(148,1708,l),
(148,1504,l),
(579,1504,l),
(366,977,l)
);
}
);
width = 986;
}
);
metricLeft = three;
metricRight = P;
unicode = 439;
},
{
color = 4;
glyphname = F;
lastChange = "2023-02-28 19:10:42 +0000";
layers = (
{
anchors = (
{
name = bottom;
pos = (408,0);
},
{
name = top;
pos = (408,1708);
}
);
layerId = "043639A7-E62C-4A4F-99F5-E7AE759848D8";
shapes = (
{
closed = 1;
nodes = (
(141,0,l),
(400,0,l),
(400,789,l),
(709,789,l),
(709,993,l),
(400,993,l),
(400,1496,l),
(794,1496,l),
(794,1708,l),
(141,1708,l)
);
}
);
width = 816;
}
);
unicode = 70;
userData = {
com.typemytype.robofont.mark = (
1,
0.6,
0.6,
1
);
};
},
{
color = 4;
glyphname = G;
lastChange = "2023-02-28 19:10:42 +0000";
layers = (
{
anchors = (
{
name = bottom;
pos = (515,0);
},
{
name = top;
pos = (515,1708);
}
);
layerId = "043639A7-E62C-4A4F-99F5-E7AE759848D8";
shapes = (
{
closed = 1;
nodes = (
(489,-16,cs),
(618,-16,o),
(725,87,o),
(766,193,c),
(749,183,l),
(780,0,l),
(948,0,l),
(948,865,l),
(700,821,l),
(700,477,ls),
(700,313,o),
(651,187,o),
(536,187,cs),
(427,187,o),
(378,251,o),
(378,463,cs),
(378,1233,ls),
(378,1452,o),
(425,1520,o),
(534,1520,cs),
(640,1520,o),
(687,1426,o),
(687,1239,cs),
(687,1157,l),
(887,1157,l),
(901,1231,o),
(914,1288,o),
(914,1361,cs),
(914,1559,o),
(818,1723,o),
(541,1723,cs),
(378,1723,o),
(107,1676,o),
(107,1161,cs),
(107,556,ls),
(107,43,o),
(368,-16,o)
);
},
{
closed = 1;
nodes = (
(567,695,l),
(907,695,l),
(948,865,l),
(567,865,l)
);
}
);
width = 1029;
}
);
unicode = 71;
userData = {
com.typemytype.robofont.mark = (
1,
0.6,
0.6,
1
);
};
},
{
color = 4;
glyphname = H;
lastChange = "2023-03-01 05:13:04 +0000";
layers = (
{
anchors = (
{
name = bottom;
pos = (554,0);
},
{
name = center;
pos = (554,854);
},
{
name = top;
pos = (554,1708);
},
{
name = topleft;
pos = (20,1708);
}
);
layerId = "043639A7-E62C-4A4F-99F5-E7AE759848D8";
shapes = (
{
closed = 1;
nodes = (
(141,0,l),
(400,0,l),
(400,789,l),
(707,789,l),
(707,0,l),
(966,0,l),
(966,1708,l),
(707,1708,l),
(707,993,l),
(400,993,l),
(400,1708,l),
(141,1708,l)
);
}
);
width = 1107;
}
);
unicode = 72;
userData = {
KernOnName = H;
com.typemytype.robofont.mark = (
1,
0.6,
0.6,
1
);
};
},
{
color = 1;
glyphname = Hbar;
lastChange = "2023-03-01 02:52:25 +0000";
layers = (
{
layerId = "043639A7-E62C-4A4F-99F5-E7AE759848D8";
shapes = (
{
closed = 1;
nodes = (
(20,1183,l),
(1087,1183,l),
(1087,1376,l),
(20,1376,l)
);
},
{
closed = 1;
nodes = (
(141,0,l),
(400,0,l),
(400,789,l),
(707,789,l),
(707,0,l),
(966,0,l),
(966,1708,l),
(707,1708,l),
(707,993,l),
(400,993,l),
(400,1708,l),
(141,1708,l)
);
}
);
width = 1107;
}
);
unicode = 294;
userData = {
com.typemytype.robofont.mark = (
0.6,
0.986,
1,
1
);
};
},
{
color = 1;
glyphname = Hturned;
lastChange = "2023-03-01 02:51:32 +0000";
layers = (
{
anchors = (
{
name = bottom;
pos = (756,-111);
},
{
name = center;
pos = (506,660);
},
{
name = top;
pos = (506,1708);
}
);
layerId = "043639A7-E62C-4A4F-99F5-E7AE759848D8";
shapes = (
{
closed = 1;
nodes = (
(884,1708,l),
(631,1708,l),
(631,997,l),
(593,938,o),
(542,901,o),
(491,901,cs),
(419,901,o),
(381,942,o),
(381,1063,cs),
(381,1708,l),
(128,1708,l),
(128,1033,ls),
(128,809,o),
(220,695,o),
(380,695,cs),
(473,695,o),
(569,726,o),
(644,829,c),
(631,593,l),
(631,0,l),
(884,0,l)
);
}
);
width = 1012;
}
);
unicode = (42893,613);
},
{
color = 4;
glyphname = I;
lastChange = "2023-03-01 05:16:40 +0000";
layers = (
{
anchors = (
{
name = bottom;
pos = (273,0);
},
{
name = ogonek;
pos = (489,10);
},
{
name = top;
pos = (273,1708);
},
{
name = topleft;
pos = (22,1708);
}
);
layerId = "043639A7-E62C-4A4F-99F5-E7AE759848D8";
shapes = (
{
closed = 1;
nodes = (
(143,0,l),
(402,0,l),
(402,1708,l),
(143,1708,l)
);
}
);
width = 545;
}
);
unicode = 73;
userData = {
KernOnName = I;
com.typemytype.robofont.mark = (
1,
0.6,
0.6,
1
);
};
},
{
color = 4;
glyphname = J;
lastChange = "2023-02-28 19:40:51 +0000";
layers = (
{
anchors = (
{
name = bottom;
pos = (411,0);
},
{
name = top;
pos = (577,1708);
}
);
layerId = "043639A7-E62C-4A4F-99F5-E7AE759848D8";
shapes = (
{
closed = 1;
nodes = (
(12,362,cs),
(12,156,o),
(94,-16,o),
(351,-16,cs),
(535,-16,o),
(710,61,o),
(710,414,cs),
(710,1708,l),
(451,1708,l),
(451,385,ls),
(451,230,o),
(413,187,o),
(351,187,cs),
(277,187,o),
(247,242,o),
(247,418,cs),
(247,619,l),
(40,619,l),
(21,529,o),
(12,434,o)
);
}
);
width = 821;
}
);
unicode = 74;
userData = {
com.typemytype.robofont.mark = (
1,
0.6,
0.6,
1
);
};
},
{
color = 4;
glyphname = K;
lastChange = "2023-03-01 05:14:56 +0000";
layers = (
{
anchors = (
{
name = bottom;
pos = (506,0);
},
{
name = top;
pos = (506,1708);
}
);
layerId = "043639A7-E62C-4A4F-99F5-E7AE759848D8";
shapes = (
{
closed = 1;
nodes = (
(141,0,l),
(400,0,l),
(400,813,l),
(408,813,l),
(722,0,l),
(999,0,l),
(603,980,l),
(601,830,l),
(962,1708,l),
(704,1708,l),
(408,962,l),
(400,962,l),
(400,1708,l),
(141,1708,l)
);
}
);
width = 1011;
}
);
metricLeft = H;
unicode = 75;
userData = {
com.typemytype.robofont.guides = (
{
angle = 90;
isGlobal = 0;
magnetic = 5;
x = 975;
y = 0;
}
);
com.typemytype.robofont.mark = (
1,
0.6,
0.6,
1
);
};
},
{
color = 4;
glyphname = L;
lastChange = "2023-03-01 05:14:56 +0000";
layers = (
{
anchors = (
{
name = bottom;
pos = (433,0);
},
{
name = center;
pos = (273,854);
},
{
name = top;
pos = (271,1708);
},
{
name = topright;
pos = (493,1377);
}
);
layerId = "043639A7-E62C-4A4F-99F5-E7AE759848D8";
shapes = (
{
closed = 1;
nodes = (
(141,0,l),
(753,0,l),
(753,204,l),
(400,204,l),
(400,1708,l),
(141,1708,l)
);
}
);
width = 766;
}
);
metricLeft = H;
unicode = 76;
userData = {
com.typemytype.robofont.mark = (
1,
0.6,
0.6,
1
);
};
},
{
color = 1;
glyphname = Ldot;
lastChange = "2023-03-01 05:16:01 +0000";
layers = (
{
layerId = "043639A7-E62C-4A4F-99F5-E7AE759848D8";
shapes = (
{
closed = 1;
nodes = (
(669,601,cs),
(770,601,o),
(819,685,o),
(819,765,cs),
(819,857,o),
(770,939,o),
(669,939,cs),
(571,939,o),
(526,855,o),
(526,765,cs),
(526,682,o),
(573,601,o)
);
},
{
ref = L;
}
);
width = 784;
}
);
metricLeft = L;
unicode = 319;
userData = {
com.typemytype.robofont.mark = (
0.6,
0.986,
1,
1
);
};
},
{
color = 1;
glyphname = Lslash;
lastChange = "2023-03-01 02:52:25 +0000";
layers = (
{
layerId = "043639A7-E62C-4A4F-99F5-E7AE759848D8";
shapes = (
{
closed = 1;
nodes = (
(161,0,l),
(771,0,l),
(771,207,l),
(417,207,l),
(417,970,l),
(744,1223,l),
(614,1391,l),
(417,1231,l),
(417,1725,l),
(161,1725,l),
(161,1015,l),
(-61,837,l),
(57,682,l),
(161,763,l)
);
}
);
width = 791;
}
);
unicode = 321;
userData = {
com.typemytype.robofont.mark = (
0.6,
0.986,
1,
1
);
};
},
{
color = 4;
glyphname = M;
lastChange = "2023-03-01 05:18:35 +0000";
layers = (
{
anchors = (
{
name = bottom;
pos = (706,10);
},
{
name = top;
pos = (706,1708);
}
);
layerId = "043639A7-E62C-4A4F-99F5-E7AE759848D8";
shapes = (
{
closed = 1;
nodes = (
(141,0,l),
(373,0,l),
(373,565,ls),
(373,912,o),
(357,1215,o),
(346,1335,c),
(365,1335,l),
(625,220,l),
(789,220,l),
(1047,1335,l),
(1066,1335,l),
(1055,1215,o),
(1039,912,o),
(1039,565,cs),
(1039,0,l),
(1271,0,l),
(1271,1708,l),
(950,1708,l),
(781,1017,ls),
(745,871,o),
(729,736,o),
(711,620,c),
(703,620,l),
(685,736,o),
(669,871,o),
(633,1017,cs),
(462,1708,l),
(141,1708,l)
);
}
);
width = 1412;
}
);
metricLeft = H;
metricRight = H;
unicode = 77;
userData = {
com.typemytype.robofont.mark = (
1,
0.6,
0.6,
1
);
};
},
{
color = 4;
glyphname = N;
lastChange = "2023-03-01 05:14:19 +0000";
layers = (
{
anchors = (
{
name = bottom;
pos = (557,0);
},
{
name = top;
pos = (557,1708);
}
);
layerId = "043639A7-E62C-4A4F-99F5-E7AE759848D8";
shapes = (
{
closed = 1;
nodes = (
(141,0,l),
(369,0,l),
(369,502,ls),
(369,848,o),
(351,972,o),
(342,1093,c),
(350,1093,l),
(765,0,l),
(972,0,l),
(972,1708,l),
(742,1708,l),
(742,1085,ls),
(742,820,o),
(760,691,o),
(769,585,c),
(763,585,l),
(346,1708,l),
(141,1708,l)
);
}
);
width = 1113;
}
);
metricLeft = H;
metricRight = H;
unicode = 78;
userData = {
KernOnName = N;
com.typemytype.robofont.mark = (
1,
0.6,
0.6,
1
);
};
},
{
color = 1;
glyphname = Nhookleft;
lastChange = "2023-03-01 05:15:45 +0000";
layers = (
{
anchors = (
{
name = bottom;
pos = (557,0);
},
{
name = top;
pos = (557,1708);
}
);
layerId = "043639A7-E62C-4A4F-99F5-E7AE759848D8";
shapes = (
{
closed = 1;
nodes = (
(262,-444,o),
(369,-384,o),
(369,-84,cs),
(369,502,ls),
(369,848,o),
(351,972,o),
(342,1093,c),
(350,1093,l),
(765,0,l),
(972,0,l),
(972,1708,l),
(742,1708,l),
(742,1085,ls),
(742,820,o),
(760,691,o),
(769,585,c),
(763,585,l),
(346,1708,l),
(141,1708,l),
(140,-116,ls),
(140,-236,o),
(90,-275,o),
(31,-275,cs),
(20,-275,o),
(9,-274,o),
(-1,-273,c),
(-1,-420,l),
(39,-438,o),
(81,-444,o),
(121,-444,cs)
);
}
);
width = 1113;
}
);
metricRight = H;
metricWidth = N;
unicode = 413;
},
{
color = 1;
glyphname = Eng;
lastChange = "2023-03-01 05:15:54 +0000";
layers = (
{
anchors = (
{
name = bottom;
pos = (538,0);
},
{
name = top;
pos = (538,1377);
}
);
layerId = "043639A7-E62C-4A4F-99F5-E7AE759848D8";
shapes = (
{
closed = 1;
nodes = (
(819,-444,o),
(952,-384,o),
(952,-84,cs),
(952,1386,ls),
(952,1610,o),
(860,1724,o),
(664,1724,cs),
(543,1724,o),
(438,1686,o),
(359,1560,c),
(359,1561,l),
(334,1708,l),
(141,1708,l),
(141,0,l),
(394,0,l),
(394,1424,l),
(432,1482,o),
(482,1518,o),
(553,1518,cs),
(661,1518,o),
(699,1477,o),
(699,1356,cs),
(699,-116,ls),
(697,-236,o),
(647,-275,o),
(588,-275,cs),
(577,-275,o),
(566,-274,o),
(556,-273,c),
(556,-420,l),
(596,-438,o),
(638,-444,o),
(678,-444,cs)
);
}
);
width = 1094;
}
);
metricLeft = H;
metricRight = U;
unicode = 330;
},
{
color = 4;
glyphname = O;
lastChange = "2023-03-01 05:13:26 +0000";
layers = (
{
anchors = (
{
name = bottom;
pos = (533,0);
},
{
name = center;
pos = (533,854);
},
{
name = ogonek;
pos = (957,10);
},
{
name = top;
pos = (533,1708);
},
{
name = topleft;
pos = (23,1708);
},
{
name = topright;
pos = (662,1708);
}
);
layerId = "043639A7-E62C-4A4F-99F5-E7AE759848D8";
shapes = (
{
closed = 1;
nodes = (
(535,-15,cs),
(684,-15,o),
(956,49,o),
(956,556,cs),
(956,1161,ls),
(956,1684,o),
(689,1723,o),
(535,1723,cs),
(375,1723,o),
(110,1676,o),
(110,1161,cs),
(110,556,ls),
(110,43,o),
(369,-15,o)
);
},
{
closed = 1;
nodes = (
(535,188,cs),
(430,188,o),
(381,251,o),
(381,463,cs),
(381,1233,ls),
(381,1452,o),
(430,1520,o),
(535,1520,cs),
(637,1520,o),
(686,1452,o),
(686,1233,cs),
(686,463,ls),
(686,251,o),
(637,188,o)
);
}
);
width = 1066;
}
);
unicode = 79;
userData = {
KernOnName = O;
com.typemytype.robofont.mark = (
1,
0.6,
0.6,
1
);
};
},
{
color = 1;
glyphname = Oopen;
lastChange = "2023-02-28 19:38:52 +0000";
layers = (
{
anchors = (
{
name = bottom;
pos = (464,0);
},
{
name = top;
pos = (464,1708);
}
);
layerId = "043639A7-E62C-4A4F-99F5-E7AE759848D8";
shapes = (
{
closed = 1;
nodes = (
(821,43,o),
(821,556,cs),
(821,1161,ls),
(821,1676,o),
(556,1723,o),
(397,1723,cs),
(134,1723,o),
(44,1559,o),
(44,1361,cs),
(44,1288,o),
(57,1231,o),
(72,1157,c),
(272,1157,l),
(272,1239,ls),
(272,1426,o),
(318,1520,o),
(404,1520,cs),
(499,1520,o),
(550,1452,o),
(550,1233,cs),
(550,463,ls),
(550,251,o),
(501,188,o),
(396,188,cs),
(323,188,o),
(269,247,o),
(269,384,cs),
(269,546,l),
(42,546,l),
(42,388,ls),
(42,114,o),
(167,-14,o),
(396,-15,cs),
(562,-15,o)
);
}
);
width = 928;
}
);
unicode = 390;
},
{
color = 1;
glyphname = Oslash;
lastChange = "2023-03-01 02:41:47 +0000";
layers = (
{
anchors = (
{
name = bottom;
pos = (515,0);
},
{
name = btm;
pos = (514,-100);
},
{
name = top;
pos = (517,1708);
}
);
layerId = "043639A7-E62C-4A4F-99F5-E7AE759848D8";
shapes = (
{
closed = 1;
nodes = (
(169,-171,l),
(294,-171,l),
(345,19,l),
(404,-8,o),
(465,-15,o),
(517,-15,cs),
(666,-15,o),
(933,67,o),
(933,606,cs),
(933,1109,ls),
(933,1380,o),
(871,1531,o),
(789,1616,c),
(855,1858,l),
(730,1858,l),
(684,1689,l),
(625,1714,o),
(566,1720,o),
(517,1720,cs),
(357,1720,o),
(96,1656,o),
(96,1109,cs),
(96,606,ls),
(96,335,o),
(158,181,o),
(240,94,c)
);
},
{
closed = 1;
nodes = (
(365,544,l),
(365,1216,l),
(365,1438,o),
(412,1523,o),
(517,1523,cs),
(564,1523,o),
(598,1505,o),
(622,1465,c)
);
},
{
closed = 1;
nodes = (
(408,244,c),
(666,1165,l),
(666,482,ls),
(666,268,o),
(619,188,o),
(517,188,cs),
(469,188,o),
(432,205,o)
);
}
);
width = 1029;
}
);
unicode = 216;
userData = {
com.typemytype.robofont.mark = (
1,
0.6,
0.6,
1
);
};
},
{
color = 4;
glyphname = OE;
lastChange = "2023-02-28 19:10:42 +0000";
layers = (
{
anchors = (
{
name = bottom;
pos = (680,0);
},
{
name = top;
pos = (680,1708);
}
);
layerId = "043639A7-E62C-4A4F-99F5-E7AE759848D8";
shapes = (
{
closed = 1;
nodes = (
(98,631,l),
(98,28,o),
(442,0,o),
(639,0,cs),
(1293,0,l),
(1293,205,l),
(899,205,l),
(899,771,l),
(1206,771,l),
(1206,995,l),
(899,995,l),
(899,1503,l),
(1293,1503,l),
(1293,1708,l),
(639,1708,ls),
(442,1708,o),
(98,1679,o),
(98,1077,cs)
);
},
{
closed = 1;
nodes = (
(626,187,l),
(438,187,o),
(366,303,o),
(366,582,c),
(366,1123,ls),
(366,1394,o),
(429,1521,o),
(626,1521,cs),
(642,1521,l),
(642,187,l)
);
}
);
width = 1360;
}
);
unicode = 338;
},
{
color = 4;
glyphname = P;
lastChange = "2023-03-01 05:15:18 +0000";
layers = (
{
anchors = (
{
name = bottom;
pos = (498,0);
},
{
name = top;
pos = (498,1708);
}
);
layerId = "043639A7-E62C-4A4F-99F5-E7AE759848D8";
shapes = (
{
closed = 1;
nodes = (
(141,0,l),
(400,0,l),
(400,520,l),
(425,520,ls),
(624,520,o),
(927,571,o),
(927,1119,cs),
(927,1179,l),
(927,1682,o),
(597,1708,o),
(400,1708,cs),
(141,1708,l)
);
},
{
closed = 1;
nodes = (
(400,710,l),
(400,1521,l),
(413,1521,l),
(609,1521,o),
(661,1428,o),
(661,1225,cs),
(661,1071,ls),
(661,814,o),
(601,710,o),
(413,710,cs)
);
}
);
width = 995;
}
);
metricLeft = H;
unicode = 80;
userData = {
com.typemytype.robofont.mark = (
1,
0.6,
0.6,
1
);
};
},
{
color = 4;
glyphname = Thorn;
lastChange = "2023-02-28 19:10:42 +0000";
layers = (
{
anchors = (
{
name = bottom;
pos = (498,0);
},
{
name = top;
pos = (498,1708);
}
);
layerId = "043639A7-E62C-4A4F-99F5-E7AE759848D8";
shapes = (
{
closed = 1;
nodes = (
(141,0,l),
(400,0,l),
(400,264,l),
(425,264,l),
(624,264,o),
(927,317,o),
(927,864,cs),
(927,925,l),
(927,1428,o),
(602,1453,o),
(409,1453,cs),
(398,1453,l),
(398,1708,l),
(141,1708,l)
);
},
{
closed = 1;
nodes = (
(400,455,l),
(400,1265,l),
(413,1265,l),
(609,1265,o),
(661,1173,o),
(661,970,cs),
(661,817,ls),
(661,559,o),
(601,455,o),
(413,455,c)
);
}
);
width = 995;
}
);
unicode = 222;
},
{
color = 4;
glyphname = Q;
lastChange = "2023-02-28 19:10:42 +0000";
layers = (
{
anchors = (
{
name = bottom;
pos = (530,0);
},
{
name = top;
pos = (530,1708);
}
);
layerId = "043639A7-E62C-4A4F-99F5-E7AE759848D8";
shapes = (
{
closed = 1;
nodes = (
(427,-72,l),
(427,-327,o),
(611,-346,o),
(695,-346,cs),
(759,-346,o),
(813,-337,o),
(878,-308,c),
(878,-168,l),
(862,-169,o),
(842,-169,o),
(824,-169,cs),
(706,-169,o),
(645,-146,o),
(645,-16,cs),
(645,78,l),
(427,78,l)
);
},
{
closed = 1;
nodes = (
(532,-15,cs),
(681,-15,o),
(953,49,o),
(953,556,cs),
(953,1161,ls),
(953,1684,o),
(686,1723,o),
(532,1723,cs),
(372,1723,o),
(107,1676,o),
(107,1161,cs),
(107,556,ls),
(107,43,o),
(366,-15,o)
);
},
{
closed = 1;
nodes = (
(532,188,cs),
(427,188,o),
(378,251,o),
(378,463,cs),
(378,1233,ls),
(378,1452,o),
(427,1520,o),
(532,1520,cs),
(634,1520,o),
(683,1452,o),
(683,1233,cs),
(683,463,ls),
(683,251,o),
(634,188,o)
);
}
);
width = 1060;
}
);
unicode = 81;
userData = {
com.typemytype.robofont.mark = (
1,
0.6,
0.6,
1
);
};
},
{
color = 4;
glyphname = R;
lastChange = "2023-02-28 19:10:42 +0000";
layers = (
{
anchors = (
{
name = bottom;
pos = (530,0);
},
{
name = top;
pos = (530,1708);
}
);
layerId = "043639A7-E62C-4A4F-99F5-E7AE759848D8";
shapes = (
{
closed = 1;
nodes = (
(141,0,l),
(400,0,l),
(400,639,l),
(578,639,l),
(459,720,l),
(724,0,l),
(1000,0,l),
(678,783,l),
(708,678,l),
(866,747,o),
(950,912,o),
(950,1177,cs),
(950,1220,l),
(950,1684,o),
(619,1708,o),
(422,1708,cs),
(141,1708,l)
);
},
{
closed = 1;
nodes = (
(400,826,l),
(400,1521,l),
(434,1521,l),
(631,1521,o),
(683,1441,o),
(683,1265,cs),
(683,1130,ls),
(683,900,o),
(623,826,o),
(434,826,cs)
);
}
);
width = 1060;
}
);
unicode = 82;
userData = {
com.typemytype.robofont.mark = (
1,
0.6,
0.6,
1
);
};
},
{
color = 4;
glyphname = S;
lastChange = "2023-03-01 05:13:04 +0000";
layers = (
{
anchors = (
{
name = bottom;
pos = (468,0);
},
{
name = top;
pos = (468,1708);
}
);
layerId = "043639A7-E62C-4A4F-99F5-E7AE759848D8";
shapes = (
{
closed = 1;
nodes = (
(65,346,cs),
(65,164,o),
(156,-16,o),
(465,-16,cs),
(715,-16,o),
(879,132,o),
(879,368,cs),
(879,525,o),
(819,643,o),
(709,786,cs),
(408,1168,ls),
(358,1234,o),
(323,1294,o),
(323,1371,cs),
(323,1461,o),
(374,1520,o),
(471,1520,cs),
(578,1520,o),
(637,1419,o),
(637,1239,cs),
(637,1157,l),
(837,1157,l),
(851,1231,o),
(865,1288,o),
(865,1361,cs),
(865,1534,o),
(773,1723,o),
(471,1723,cs),
(222,1723,o),
(73,1563,o),
(73,1336,cs),
(73,1185,o),
(128,1069,o),
(223,947,cs),
(493,608,ls),
(588,487,o),
(613,410,o),
(613,334,cs),
(613,238,o),
(561,187,o),
(463,187,cs),
(347,187,o),
(292,288,o),
(292,472,cs),
(292,548,l),
(91,548,l),
(74,477,o),
(65,419,o)
);
}
);
width = 936;
}
);
unicode = 83;
userData = {
KernOnName = S;
com.typemytype.robofont.guides = (
{
angle = 90;
isGlobal = 0;
magnetic = 5;
x = 939;
y = 0;
},
{
angle = 90;
isGlobal = 0;
magnetic = 5;
x = 464;
y = 0;
},
{
angle = 90;
isGlobal = 0;
magnetic = 5;
x = 76;
y = 0;
}
);
com.typemytype.robofont.mark = (
1,
0.6,
0.6,
1
);
};
},
{
color = 4;
glyphname = Germandbls;
lastChange = "2023-03-01 05:15:40 +0000";
layers = (
{
anchors = (
{
name = bottom;
pos = (593,0);
},
{
name = top;
pos = (593,1708);
}
);
layerId = "043639A7-E62C-4A4F-99F5-E7AE759848D8";
shapes = (
{
closed = 1;
nodes = (
(141,1066,ls),
(141,1568,o),
(364,1708,o),
(647,1708,cs),
(1123,1708,l),
(816,1000,l),
(542,884,l),
(807,1505,l),
(647,1505,ls),
(451,1505,o),
(400,1339,o),
(400,1127,cs),
(400,0,l),
(141,0,l)
);
},
{
closed = 1;
nodes = (
(630,1045,l),
(669,1063,o),
(654,1052,o),
(764,1052,cs),
(848,1052,o),
(1120,1066,o),
(1120,598,cs),
(1119,481,ls),
(1119,14,o),
(916,0,o),
(763,0,c),
(603,0,l),
(603,200,l),
(687,200,l),
(791,200,o),
(854,244,o),
(854,449,cs),
(855,637,ls),
(855,842,o),
(743,884,o),
(669,884,cs),
(607,884,o),
(585,884,o),
(542,884,c)
);
}
);
width = 1186;
}
);
metricLeft = U;
unicode = 7838;
userData = {
com.typemytype.robofont.mark = (
0.6,
0.986,
1,
1
);
};
},
{
color = 4;
glyphname = T;
lastChange = "2023-03-01 02:41:43 +0000";
layers = (
{
anchors = (
{
name = bottom;
pos = (428,0);
},
{
name = center;
pos = (428,854);
},
{
name = top;
pos = (428,1708);
}
);
layerId = "043639A7-E62C-4A4F-99F5-E7AE759848D8";
shapes = (
{
closed = 1;
nodes = (
(299,0,l),
(558,0,l),
(558,1504,l),
(832,1504,l),
(832,1708,l),
(24,1708,l),
(24,1504,l),
(299,1504,l)
);
}
);
width = 856;
}
);
unicode = 84;
userData = {
com.typemytype.robofont.mark = (
1,
0.6,
0.6,
1
);
};
},
{
color = 1;
glyphname = Tbar;
lastChange = "2023-03-01 02:52:09 +0000";
layers = (
{
layerId = "043639A7-E62C-4A4F-99F5-E7AE759848D8";
shapes = (
{
closed = 1;
nodes = (
(56,946,l),
(801,946,l),
(801,1149,l),
(56,1149,l)
);
},
{
closed = 1;
nodes = (
(299,0,l),
(558,0,l),
(558,1504,l),
(832,1504,l),
(832,1708,l),
(24,1708,l),
(24,1504,l),
(299,1504,l)
);
}
);
width = 856;
}
);
unicode = 358;
userData = {
com.typemytype.robofont.mark = (
0.6,
0.986,
1,
1
);
};
},
{
color = 1;
glyphname = Tretroflexhook;
lastChange = "2023-02-28 20:34:28 +0000";
layers = (
{
layerId = "043639A7-E62C-4A4F-99F5-E7AE759848D8";
shapes = (
{
closed = 1;
nodes = (
(618,-444,o),
(660,-438,o),
(700,-420,c),
(700,-273,l),
(690,-274,o),
(679,-275,o),
(668,-275,cs),
(609,-275,o),
(558,-236,o),
(558,-116,cs),
(558,1504,l),
(832,1504,l),
(832,1708,l),
(24,1708,l),
(24,1504,l),
(299,1504,l),
(299,-84,ls),
(299,-384,o),
(437,-444,o),
(578,-444,cs)
);
}
);
width = 856;
}
);
metricLeft = T;
metricRight = T;
unicode = 430;
},
{
color = 4;
glyphname = U;
lastChange = "2023-02-28 20:37:53 +0000";
layers = (
{
anchors = (
{
name = bottom;
pos = (548,0);
},
{
name = ogonek;
pos = (986,10);
},
{
name = top;
pos = (548,1708);
},
{
name = topright;
pos = (811,1708);
}
);
layerId = "043639A7-E62C-4A4F-99F5-E7AE759848D8";
shapes = (
{
closed = 1;
nodes = (
(696,-15,o),
(953,23,o),
(953,525,cs),
(953,1708,l),
(695,1708,l),
(695,464,ls),
(695,252,o),
(649,188,o),
(547,188,cs),
(445,188,o),
(400,252,o),
(400,464,cs),
(400,1708,l),
(141,1708,l),
(141,525,ls),
(141,23,o),
(399,-15,o),
(547,-15,cs)
);
}
);
width = 1095;
}
);
unicode = 85;
userData = {
com.typemytype.robofont.mark = (
1,
0.6,
0.6,
1
);
};
},
{
color = 5;
glyphname = Uogonek;
lastChange = "2023-03-01 02:52:12 +0000";
layers = (
{
layerId = "043639A7-E62C-4A4F-99F5-E7AE759848D8";
shapes = (
{
closed = 1;
nodes = (
(535,30,l),
(513,10,o),
(450,-90,o),
(450,-194,cs),
(450,-382,o),
(590,-419,o),
(653,-419,cs),
(708,-419,o),
(749,-410,o),
(804,-389,c),
(797,-238,l),
(786,-239,o),
(775,-239,o),
(764,-239,cs),
(674,-239,o),
(608,-104,o),
(729,30,c),
(624,43,l)
);
},
{
closed = 1;
nodes = (
(141,525,l),
(141,23,o),
(399,-15,o),
(547,-15,cs),
(696,-15,o),
(953,23,o),
(953,525,cs),
(953,1708,l),
(695,1708,l),
(695,464,ls),
(695,252,o),
(649,188,o),
(547,188,cs),
(445,188,o),
(400,252,o),
(400,464,cs),
(400,1708,l),
(141,1708,l)
);
}
);
width = 1095;
}
);
unicode = 370;
userData = {
com.typemytype.robofont.mark = (
0.6,
0.986,
1,
1
);
};
},
{
color = 1;
glyphname = "Upsilon-latin";
lastChange = "2023-03-01 02:17:06 +0000";
layers = (
{
layerId = "043639A7-E62C-4A4F-99F5-E7AE759848D8";
shapes = (
{
closed = 1;
nodes = (
(633,1526,l),
(703,1334,o),
(821,1166,o),
(821,623,cs),
(821,280,o),
(713,189,o),
(574,189,cs),
(435,189,o),
(328,280,o),
(327,623,cs),
(326,1149,o),
(448,1333,o),
(519,1526,c),
(519,1708,l),
(24,1708,l),
(24,1518,l),
(337,1518,l),
(186,1282,o),
(79,1012,o),
(79,623,cs),
(79,153,o),
(344,-9,o),
(576,-9,cs),
(791,-9,o),
(1070,153,o),
(1070,623,cs),
(1070,1011,o),
(964,1282,o),
(810,1518,c),
(1127,1518,l),
(1127,1708,l),
(633,1708,l)
);
}
);
width = 1151;
}
);
unicode = 433;
},
{
color = 4;
glyphname = V;
lastChange = "2023-02-28 19:10:42 +0000";
layers = (
{
anchors = (
{
name = bottom;
pos = (473,0);
},
{
name = top;
pos = (473,1708);
}
);
layerId = "043639A7-E62C-4A4F-99F5-E7AE759848D8";
shapes = (
{
closed = 1;
nodes = (
(324,0,l),
(14,1708,l),
(279,1708,l),
(467,351,l),
(478,351,l),
(667,1708,l),
(931,1708,l),
(620,0,l)
);
}
);
width = 945;
}
);
unicode = 86;
userData = {
com.typemytype.robofont.mark = (
1,
0.6,
0.6,
1
);
};
},
{
color = 1;
glyphname = Vturned;
lastChange = "2023-03-01 05:15:30 +0000";
layers = (
{
anchors = (
{
name = bottom;
pos = (472,0);
},
{
name = top;
pos = (472,1708);
}
);
layerId = "043639A7-E62C-4A4F-99F5-E7AE759848D8";
shapes = (
{
closed = 1;
nodes = (
(621,1708,l),
(931,0,l),
(666,0,l),
(478,1357,l),
(467,1357,l),
(278,0,l),
(14,0,l),
(325,1708,l)
);
}
);
width = 945;
}
);
metricLeft = V;
metricRight = V;
unicode = 581;
},
{
color = 4;
glyphname = W;
lastChange = "2023-03-01 05:17:51 +0000";
layers = (
{
anchors = (
{
name = bottom;
pos = (735,0);
},
{
name = top;
pos = (735,1728);
}
);
layerId = "043639A7-E62C-4A4F-99F5-E7AE759848D8";
shapes = (
{
closed = 1;
nodes = (
(278,0,l),
(538,0,l),
(686,821,l),
(729,1178,l),
(749,1178,l),
(793,821,l),
(934,0,l),
(1197,0,l),
(1436,1708,l),
(1187,1708,l),
(1082,676,l),
(1070,435,l),
(1044,435,l),
(1024,676,l),
(848,1708,l),
(641,1708,l),
(457,676,l),
(433,435,l),
(408,435,l),
(395,676,l),
(280,1708,l),
(32,1708,l)
);
}
);
width = 1469;
}
);
unicode = 87;
userData = {
com.typemytype.robofont.mark = (
1,
0.6,
0.6,
1
);
};
},
{
color = 4;
glyphname = X;
lastChange = "2023-02-28 19:10:42 +0000";
layers = (
{
anchors = (
{
name = bottom;
pos = (461,0);
},
{
name = top;
pos = (461,1708);
}
);
layerId = "043639A7-E62C-4A4F-99F5-E7AE759848D8";
shapes = (
{
closed = 1;
nodes = (
(24,0,l),
(282,0,l),
(451,549,l),
(468,549,l),
(633,0,l),
(897,0,l),
(584,859,l),
(897,1708,l),
(629,1708,l),
(470,1162,l),
(460,1162,l),
(298,1708,l),
(24,1708,l),
(336,860,l)
);
}
);
width = 921;
}
);
unicode = 88;
userData = {
com.typemytype.robofont.guides = (
{
angle = 90;
isGlobal = 0;
magnetic = 5;
x = 1199;
y = 0;
}
);
com.typemytype.robofont.mark = (
1,
0.6,
0.6,
1
);
};
},
{
color = 4;
glyphname = Y;
lastChange = "2023-02-28 19:10:42 +0000";
layers = (
{
anchors = (
{
name = bottom;
pos = (475,0);
},
{
name = top;
pos = (475,1708);
},
{
name = topleft;
pos = (20,1708);
}
);
layerId = "043639A7-E62C-4A4F-99F5-E7AE759848D8";
shapes = (
{
closed = 1;
nodes = (
(344,0,l),
(603,0,l),
(603,599,l),
(939,1708,l),
(679,1708,l),
(481,884,l),
(469,884,l),
(271,1708,l),
(10,1708,l),
(344,599,l)
);
}
);
width = 949;
}
);
unicode = 89;
userData = {
com.typemytype.robofont.mark = (
1,
0.6,
0.6,
1
);
};
},
{
color = 4;
glyphname = Z;
lastChange = "2023-02-28 19:10:42 +0000";
layers = (
{
anchors = (
{
name = bottom;
pos = (428,0);
},
{
name = center;
pos = (428,854);
},
{
name = top;
pos = (428,1708);
}
);
layerId = "043639A7-E62C-4A4F-99F5-E7AE759848D8";
shapes = (
{
closed = 1;
nodes = (
(24,0,l),
(831,0,l),
(831,204,l),
(313,204,l),
(831,1571,l),
(831,1708,l),
(110,1708,l),
(110,1504,l),
(541,1504,l),
(24,137,l)
);
}
);
width = 855;
}
);
unicode = 90;
userData = {
com.typemytype.robofont.guides = (
{
angle = 90;
isGlobal = 0;
magnetic = 5;
x = 109;
y = 0;
},
{
angle = 90;
isGlobal = 0;
magnetic = 5;
x = 833;
y = 0;
}
);
com.typemytype.robofont.mark = (
1,
0.6,
0.6,
1
);
};
},
{
color = 1;
glyphname = Saltillo;
lastChange = "2023-03-01 03:08:54 +0000";
layers = (
{
layerId = "043639A7-E62C-4A4F-99F5-E7AE759848D8";
shapes = (
{
closed = 1;
nodes = (
(141,607,l),
(400,607,l),
(400,1708,l),
(141,1708,l)
);
}
);
width = 541;
}
);
unicode = 42891;
},
{
color = 1;
glyphname = Eng.loclNSM;
lastChange = "2023-03-01 05:15:18 +0000";
layers = (
{
layerId = "043639A7-E62C-4A4F-99F5-E7AE759848D8";
shapes = (
{
closed = 1;
nodes = (
(883,-444,o),
(972,-384,o),
(972,-84,cs),
(972,1708,l),
(742,1708,l),
(742,1085,ls),
(742,820,o),
(760,691,o),
(769,585,c),
(763,585,l),
(346,1708,l),
(141,1708,l),
(141,0,l),
(369,0,l),
(369,502,ls),
(369,848,o),
(351,972,o),
(342,1093,c),
(350,1093,l),
(765,0,l),
(761,-116,ls),
(761,-236,o),
(711,-275,o),
(652,-275,cs),
(641,-275,o),
(630,-274,o),
(620,-273,c),
(620,-420,l),
(660,-438,o),
(702,-444,o),
(742,-444,cs)
);
}
);
width = 1113;
}
);
metricLeft = H;
metricRight = N;
},
{
color = 4;
glyphname = a;
lastChange = "2023-03-01 05:13:04 +0000";
layers = (
{
anchors = (
{
name = bottom;
pos = (457,0);
},
{
name = ogonek;
pos = (823,10);
},
{
name = top;
pos = (457,1377);
}
);
layerId = "043639A7-E62C-4A4F-99F5-E7AE759848D8";
shapes = (
{
closed = 1;
nodes = (
(162,661,o),
(53,542,o),
(53,316,cs),
(53,138,o),
(136,-16,o),
(316,-16,cs),
(432,-16,o),
(521,40,o),
(575,118,c),
(593,0,l),
(788,0,l),
(788,1041,ls),
(788,1278,o),
(709,1392,o),
(435,1392,cs),
(225,1392,o),
(76,1282,o),
(76,1077,cs),
(76,1034,o),
(82,993,o),
(94,941,c),
(287,941,l),
(287,996,ls),
(287,1154,o),
(355,1203,o),
(427,1203,cs),
(534,1203,o),
(535,1107,o),
(535,1004,cs),
(535,837,l),
(486,819,o),
(422,790,o),
(372,765,cs)
);
},
{
closed = 1;
nodes = (
(337,177,o),
(298,250,o),
(298,355,cs),
(298,490,o),
(372,576,o),
(443,620,cs),
(481,644,o),
(509,657,o),
(535,668,c),
(535,234,l),
(507,202,o),
(470,177,o),
(428,177,cs)
);
}
);
width = 914;
}
);
unicode = 97;
userData = {
KernOnName = a;
com.typemytype.robofont.guides = (
{
angle = 90;
isGlobal = 0;
magnetic = 5;
x = 428;
y = 0;
}
);
com.typemytype.robofont.mark = (
1,
0.6,
0.6,
1
);
};
},
{
color = 1;
glyphname = aturned;
lastChange = "2023-02-28 19:40:32 +0000";
layers = (
{
anchors = (
{
name = bottom;
pos = (457,0);
},
{
name = ogonek;
pos = (91,1367);
},
{
name = top;
pos = (457,1377);
}
);
layerId = "043639A7-E62C-4A4F-99F5-E7AE759848D8";
shapes = (
{
closed = 1;
nodes = (
(752,716,o),
(861,835,o),
(861,1061,cs),
(861,1239,o),
(778,1393,o),
(598,1393,cs),
(482,1393,o),
(393,1337,o),
(339,1259,c),
(321,1377,l),
(126,1377,l),
(126,336,ls),
(126,99,o),
(205,-15,o),
(479,-15,cs),
(689,-15,o),
(838,95,o),
(838,300,cs),
(838,343,o),
(832,384,o),
(820,436,c),
(627,436,l),
(627,381,ls),
(627,223,o),
(559,174,o),
(487,174,cs),
(380,174,o),
(379,270,o),
(379,373,cs),
(379,540,l),
(428,558,o),
(492,587,o),
(542,612,cs)
);
},
{
closed = 1;
nodes = (
(577,1200,o),
(616,1127,o),
(616,1022,cs),
(616,887,o),
(542,801,o),
(471,757,cs),
(433,733,o),
(405,720,o),
(379,709,c),
(379,1143,l),
(407,1175,o),
(444,1200,o),
(486,1200,cs)
);
}
);
width = 914;
}
);
unicode = 592;
},
{
color = 4;
glyphname = ae;
lastChange = "2023-02-28 19:21:54 +0000";
layers = (
{
anchors = (
{
name = bottom;
pos = (676,0);
},
{
name = top;
pos = (676,1377);
}
);
layerId = "043639A7-E62C-4A4F-99F5-E7AE759848D8";
shapes = (
{
closed = 1;
nodes = (
(788,807,l),
(788,888,ls),
(788,1123,o),
(829,1199,o),
(918,1199,c),
(1002,1198,o),
(1039,1125,o),
(1039,944,cs),
(1039,908,o),
(1038,836,o),
(1035,807,c)
);
},
{
closed = 1;
nodes = (
(53,314,cs),
(53,137,o),
(136,-16,o),
(350,-16,cs),
(463,-16,o),
(571,46,o),
(639,151,c),
(647,151,l),
(704,43,o),
(800,-16,o),
(926,-16,cs),
(1145,-16,o),
(1262,99,o),
(1262,358,cs),
(1262,421,l),
(1057,421,l),
(1057,361,ls),
(1057,217,o),
(996,172,o),
(934,172,cs),
(819,172,o),
(788,260,o),
(788,499,cs),
(788,638,l),
(1236,638,l),
(1256,725,o),
(1270,848,o),
(1270,958,cs),
(1270,1289,o),
(1110,1386,o),
(944,1386,cs),
(868,1386,o),
(770,1358,o),
(699,1273,c),
(691,1273,l),
(641,1334,o),
(562,1385,o),
(435,1385,cs),
(225,1385,o),
(76,1276,o),
(76,1072,cs),
(76,1029,o),
(82,988,o),
(94,936,c),
(287,936,l),
(287,991,ls),
(287,1148,o),
(355,1197,o),
(427,1197,cs),
(534,1197,o),
(535,1101,o),
(535,999,cs),
(535,833,l),
(486,815,o),
(422,786,o),
(372,761,cs),
(162,658,o),
(53,539,o)
);
},
{
closed = 1;
nodes = (
(298,353,cs),
(298,488,o),
(372,573,o),
(443,617,cs),
(481,641,o),
(509,654,o),
(535,665,c),
(535,233,l),
(507,201,o),
(470,176,o),
(428,176,cs),
(337,176,o),
(298,249,o)
);
}
);
width = 1352;
}
);
unicode = 230;
userData = {
com.typemytype.robofont.mark = (
1,
0.6,
0.6,
1
);
};
},
{
color = 4;
glyphname = b;
lastChange = "2023-02-28 19:21:54 +0000";
layers = (
{
anchors = (
{
name = bottom;
pos = (493,0);
},
{
name = center;
pos = (493,689);
},
{
name = top;
pos = (493,1377);
}
);
layerId = "043639A7-E62C-4A4F-99F5-E7AE759848D8";
shapes = (
{
closed = 1;
nodes = (
(129,0,l),
(327,0,l),
(348,128,l),
(393,55,o),
(465,-16,o),
(594,-16,cs),
(687,-16,o),
(890,14,o),
(890,481,cs),
(890,898,l),
(890,1366,o),
(688,1392,o),
(604,1392,cs),
(494,1392,o),
(421,1333,o),
(375,1269,c),
(374,1270,l),
(382,1452,l),
(382,1819,l),
(129,1819,l)
);
},
{
closed = 1;
nodes = (
(382,297,c),
(382,1094,l),
(407,1144,o),
(447,1187,o),
(509,1187,cs),
(583,1187,o),
(635,1142,o),
(635,937,cs),
(635,449,ls),
(635,244,o),
(582,198,o),
(508,198,cs),
(441,198,o),
(404,246,o)
);
}
);
width = 985;
}
);
unicode = 98;
userData = {
com.typemytype.robofont.mark = (
1,
0.6,
0.6,
1
);
};
},
{
color = 1;
glyphname = bilabialclick;
lastChange = "2023-02-28 19:41:52 +0000";
layers = (
{
anchors = (
{
name = center;
pos = (530,854);
}
);
layerId = "043639A7-E62C-4A4F-99F5-E7AE759848D8";
shapes = (
{
closed = 1;
nodes = (
(107,43,o),
(366,-15,o),
(532,-15,cs),
(681,-15,o),
(953,49,o),
(953,556,cs),
(953,1161,ls),
(953,1684,o),
(686,1723,o),
(532,1723,cs),
(372,1723,o),
(107,1676,o),
(107,1161,cs),
(107,556,ls)
);
},
{
closed = 1;
nodes = (
(683,251,o),
(634,188,o),
(532,188,cs),
(427,188,o),
(378,251,o),
(378,463,cs),
(378,1233,ls),
(378,1452,o),
(427,1520,o),
(532,1520,cs),
(634,1520,o),
(683,1452,o),
(683,1233,cs),
(683,463,ls)
);
},
{
closed = 1;
nodes = (
(422,760,o),
(465,718,o),
(528,718,cs),
(596,718,o),
(637,762,o),
(637,853,cs),
(637,949,o),
(597,985,o),
(529,985,cs),
(464,985,o),
(422,955,o),
(422,853,cs)
);
}
);
width = 1060;
}
);
unicode = 664;
},
{
color = 4;
glyphname = c;
lastChange = "2023-02-28 19:30:45 +0000";
layers = (
{
anchors = (
{
name = bottom;
pos = (432,0);
},
{
name = top;
pos = (432,1377);
}
);
layerId = "043639A7-E62C-4A4F-99F5-E7AE759848D8";
shapes = (
{
closed = 1;
nodes = (
(95,154,o),
(220,-15,o),
(452,-15,cs),
(681,-15,o),
(792,99,o),
(792,360,cs),
(792,423,l),
(587,423,l),
(587,363,ls),
(587,218,o),
(531,173,o),
(480,173,cs),
(381,173,o),
(349,261,o),
(349,501,cs),
(349,892,ls),
(349,1129,o),
(392,1205,o),
(474,1205,cs),
(548,1205,o),
(587,1122,o),
(587,984,cs),
(587,941,l),
(779,941,l),
(790,984,o),
(796,1027,o),
(796,1090,cs),
(796,1296,o),
(669,1393,o),
(482,1393,cs),
(343,1393,o),
(95,1350,o),
(95,824,cs),
(95,564,ls)
);
}
);
width = 863;
}
);
unicode = 99;
userData = {
com.typemytype.robofont.guides = (
{
angle = 90;
isGlobal = 0;
magnetic = 5;
x = 598;
y = 0;
}
);
com.typemytype.robofont.mark = (
1,
0.6,
0.6,
1
);
};
},
{
color = 4;
glyphname = d;
lastChange = "2023-03-01 02:47:36 +0000";
layers = (
{
anchors = (
{
name = bottom;
pos = (493,0);
},
{
name = center;
pos = (493,689);
},
{
name = top;
pos = (493,2096);
},
{
name = topright;
pos = (900,1377);
}
);
layerId = "043639A7-E62C-4A4F-99F5-E7AE759848D8";
shapes = (
{
closed = 1;
nodes = (
(95,14,o),
(298,-16,o),
(391,-16,cs),
(519,-16,o),
(592,55,o),
(636,128,c),
(658,0,l),
(855,0,l),
(855,1819,l),
(603,1819,l),
(603,1452,l),
(611,1278,l),
(610,1277,l),
(572,1333,o),
(497,1392,o),
(397,1392,cs),
(316,1392,o),
(95,1381,o),
(95,918,cs),
(95,481,l)
);
},
{
closed = 1;
nodes = (
(581,238,o),
(543,190,o),
(477,190,cs),
(403,190,o),
(349,236,o),
(349,441,cs),
(349,938,ls),
(349,1144,o),
(402,1187,o),
(476,1187,cs),
(536,1187,o),
(578,1141,o),
(603,1086,c),
(603,289,l)
);
}
);
width = 985;
}
);
unicode = 100;
userData = {
com.typemytype.robofont.mark = (
1,
0.6,
0.6,
1
);
};
},
{
color = 1;
glyphname = dcroat;
lastChange = "2023-03-01 02:53:15 +0000";
layers = (
{
layerId = "043639A7-E62C-4A4F-99F5-E7AE759848D8";
shapes = (
{
closed = 1;
nodes = (
(411,1499,l),
(603,1499,l),
(603,1452,l),
(611,1278,l),
(610,1277,l),
(572,1333,o),
(497,1392,o),
(397,1392,cs),
(316,1392,o),
(95,1381,o),
(95,918,cs),
(95,481,ls),
(95,14,o),
(298,-16,o),
(391,-16,cs),
(519,-16,o),
(592,55,o),
(636,128,c),
(658,0,l),
(855,0,l),
(855,1499,l),
(986,1499,l),
(986,1682,l),
(855,1682,l),
(855,1819,l),
(603,1819,l),
(603,1682,l),
(411,1682,l)
);
},
{
closed = 1;
nodes = (
(477,190,cs),
(403,190,o),
(349,236,o),
(349,441,cs),
(349,938,ls),
(349,1144,o),
(402,1187,o),
(476,1187,cs),
(536,1187,o),
(578,1141,o),
(603,1086,c),
(603,289,l),
(581,238,o),
(543,190,o)
);
}
);
width = 985;
}
);
unicode = 273;
userData = {
com.typemytype.robofont.mark = (
0.6,
0.986,
1,
1
);
};
},
{
color = 4;
glyphname = eth;
lastChange = "2023-02-28 19:30:45 +0000";
layers = (
{
anchors = (
{
name = bottom;
pos = (482,0);
},
{
name = top;
pos = (482,2096);
}
);
layerId = "043639A7-E62C-4A4F-99F5-E7AE759848D8";
shapes = (
{
closed = 1;
nodes = (
(321,1509,l),
(652,1904,l),
(520,2020,l),
(194,1615,l)
);
},
{
closed = 1;
nodes = (
(487,-15,cs),
(646,-15,o),
(871,47,o),
(871,597,cs),
(871,789,ls),
(871,1399,o),
(609,1959,o),
(118,1959,c),
(118,1793,l),
(329,1789,o),
(487,1617,o),
(551,1367,c),
(527,1378,o),
(514,1386,o),
(445,1386,cs),
(339,1386,o),
(92,1343,o),
(92,795,cs),
(92,597,ls),
(92,39,o),
(311,-15,o)
);
},
{
closed = 1;
nodes = (
(489,149,cs),
(386,149,o),
(366,237,o),
(366,489,cs),
(366,881,ls),
(366,1133,o),
(386,1224,o),
(489,1224,cs),
(588,1224,o),
(605,1133,o),
(605,881,cs),
(605,489,ls),
(605,237,o),
(588,149,o)
);
}
);
width = 963;
}
);
unicode = 240;
},
{
color = 4;
glyphname = e;
lastChange = "2023-02-28 19:30:45 +0000";
layers = (
{
anchors = (
{
name = bottom;
pos = (457,0);
},
{
name = ogonek;
pos = (823,10);
},
{
name = top;
pos = (457,1377);
}
);
layerId = "043639A7-E62C-4A4F-99F5-E7AE759848D8";
shapes = (
{
closed = 1;
nodes = (
(95,154,o),
(226,-15,o),
(463,-15,cs),
(699,-15,o),
(827,99,o),
(827,360,cs),
(827,423,l),
(619,423,l),
(619,363,ls),
(619,218,o),
(558,173,o),
(496,173,cs),
(381,173,o),
(349,261,o),
(349,501,cs),
(349,641,l),
(800,641,l),
(820,729,o),
(833,852,o),
(833,963,cs),
(833,1295,o),
(677,1393,o),
(495,1393,cs),
(349,1393,o),
(95,1350,o),
(95,824,cs),
(95,564,ls)
);
},
{
closed = 1;
nodes = (
(349,811,l),
(349,892,ls),
(349,1129,o),
(391,1205,o),
(480,1205,c),
(564,1204,o),
(601,1131,o),
(601,949,cs),
(601,913,o),
(600,840,o),
(597,811,c)
);
}
);
width = 914;
}
);
unicode = 101;
userData = {
com.typemytype.robofont.guides = (
{
angle = 90;
isGlobal = 0;
magnetic = 5;
x = 828;
y = 0;
},
{
angle = 90;
isGlobal = 0;
magnetic = 5;
x = 480;
y = 0;
}
);
com.typemytype.robofont.mark = (
1,
0.6,
0.6,
1
);
};
},
{
color = 1;
glyphname = eopen;
lastChange = "2023-02-28 20:41:26 +0000";
layers = (
{
anchors = (
{
name = bottom;
pos = (513,0);
},
{
name = top;
pos = (513,1377);
}
);
layerId = "043639A7-E62C-4A4F-99F5-E7AE759848D8";
shapes = (
{
closed = 1;
nodes = (
(910,385,o),
(893,444,c),
(691,444,l),
(691,380,ls),
(691,209,o),
(616,154,o),
(516,154,cs),
(417,154,o),
(358,197,o),
(358,312,cs),
(358,458,ls),
(358,574,o),
(401,639,o),
(534,639,cs),
(643,639,l),
(643,787,l),
(534,787,ls),
(448,787,o),
(383,830,o),
(383,943,cs),
(383,1075,ls),
(383,1176,o),
(430,1222,o),
(527,1222,cs),
(634,1222,o),
(695,1141,o),
(695,997,cs),
(695,931,l),
(895,931,l),
(909,984,o),
(922,1036,o),
(922,1095,cs),
(922,1233,o),
(796,1385,o),
(527,1385,cs),
(236,1385,o),
(116,1275,o),
(116,1082,c),
(116,998,ls),
(116,842,o),
(223,759,o),
(326,720,c),
(326,713,l),
(193,677,o),
(91,601,o),
(91,421,cs),
(91,331,ls),
(91,78,o),
(286,-8,o),
(516,-8,cs),
(777,-8,o),
(918,98,o),
(918,283,cs),
(918,328,o)
);
}
);
width = 1025;
}
);
unicode = 603;
},
{
color = 1;
glyphname = ereversed;
lastChange = "2023-02-28 19:39:31 +0000";
layers = (
{
anchors = (
{
name = bottom;
pos = (457,0);
},
{
name = ogonek;
pos = (91,10);
},
{
name = top;
pos = (457,1377);
}
);
layerId = "043639A7-E62C-4A4F-99F5-E7AE759848D8";
shapes = (
{
closed = 1;
nodes = (
(819,824,ls),
(819,1350,o),
(565,1393,o),
(419,1393,cs),
(237,1393,o),
(81,1295,o),
(81,963,cs),
(81,852,o),
(94,729,o),
(114,641,c),
(565,641,l),
(565,501,ls),
(565,261,o),
(533,173,o),
(418,173,cs),
(356,173,o),
(295,218,o),
(295,363,cs),
(295,423,l),
(87,423,l),
(87,360,ls),
(87,99,o),
(215,-15,o),
(451,-15,cs),
(688,-15,o),
(819,154,o),
(819,564,cs)
);
},
{
closed = 1;
nodes = (
(314,840,o),
(313,913,o),
(313,949,cs),
(313,1131,o),
(350,1204,o),
(434,1205,c),
(523,1205,o),
(565,1129,o),
(565,892,cs),
(565,811,l),
(317,811,l)
);
}
);
width = 914;
}
);
unicode = 600;
},
{
color = 1;
glyphname = esh;
lastChange = "2023-02-28 20:40:39 +0000";
layers = (
{
anchors = (
{
name = bottom;
pos = (303,0);
},
{
name = top;
pos = (303,2096);
}
);
layerId = "043639A7-E62C-4A4F-99F5-E7AE759848D8";
shapes = (
{
closed = 1;
nodes = (
(148,-120,o),
(90,-159,o),
(24,-159,cs),
(-10,-159,o),
(-43,-155,o),
(-70,-148,c),
(-70,-326,l),
(-24,-349,o),
(49,-360,o),
(98,-360,cs),
(266,-360,o),
(401,-299,o),
(401,0,cs),
(401,1476,ls),
(401,1596,o),
(459,1635,o),
(525,1635,cs),
(559,1635,o),
(592,1631,o),
(619,1624,c),
(619,1802,l),
(573,1825,o),
(500,1836,o),
(451,1836,cs),
(283,1836,o),
(148,1775,o),
(148,1476,cs),
(148,0,ls)
);
}
);
width = 606;
}
);
unicode = 643;
},
{
color = 1;
glyphname = eturned;
lastChange = "2023-02-28 19:40:09 +0000";
layers = (
{
anchors = (
{
name = bottom;
pos = (471,0);
},
{
name = ogonek;
pos = (105,1367);
},
{
name = top;
pos = (471,1377);
}
);
layerId = "043639A7-E62C-4A4F-99F5-E7AE759848D8";
shapes = (
{
closed = 1;
nodes = (
(833,1223,o),
(702,1392,o),
(465,1392,cs),
(229,1392,o),
(101,1278,o),
(101,1017,cs),
(101,954,l),
(309,954,l),
(309,1014,ls),
(309,1159,o),
(370,1204,o),
(432,1204,cs),
(547,1204,o),
(579,1116,o),
(579,876,cs),
(579,736,l),
(128,736,l),
(108,648,o),
(95,525,o),
(95,414,cs),
(95,82,o),
(251,-16,o),
(433,-16,cs),
(579,-16,o),
(833,27,o),
(833,553,cs),
(833,813,ls)
);
},
{
closed = 1;
nodes = (
(579,566,l),
(579,485,ls),
(579,248,o),
(537,172,o),
(448,172,c),
(364,173,o),
(327,246,o),
(327,428,cs),
(327,464,o),
(328,537,o),
(331,566,c)
);
}
);
width = 914;
}
);
metricLeft = e;
metricRight = e;
unicode = 477;
},
{
color = 1;
glyphname = schwa;
lastChange = "2023-02-28 19:40:09 +0000";
layers = (
{
layerId = "043639A7-E62C-4A4F-99F5-E7AE759848D8";
shapes = (
{
closed = 1;
nodes = (
(833,1223,o),
(702,1392,o),
(465,1392,cs),
(229,1392,o),
(101,1278,o),
(101,1017,cs),
(101,954,l),
(309,954,l),
(309,1014,ls),
(309,1159,o),
(370,1204,o),
(432,1204,cs),
(547,1204,o),
(579,1116,o),
(579,876,cs),
(579,736,l),
(128,736,l),
(108,648,o),
(95,525,o),
(95,414,cs),
(95,82,o),
(251,-16,o),
(433,-16,cs),
(579,-16,o),
(833,27,o),
(833,553,cs),
(833,813,ls)
);
},
{
closed = 1;
nodes = (
(579,566,l),
(579,485,ls),
(579,248,o),
(537,172,o),
(448,172,c),
(364,173,o),
(327,246,o),
(327,428,cs),
(327,464,o),
(328,537,o),
(331,566,c)
);
}
);
width = 914;
}
);
metricLeft = e;
metricRight = e;
metricWidth = e;
unicode = 601;
},
{
color = 1;
glyphname = ezh;
lastChange = "2023-03-01 05:20:00 +0000";
layers = (
{
anchors = (
{
name = bottom;
pos = (395,0);
},
{
name = center;
pos = (395,689);
},
{
name = top;
pos = (415,1377);
}
);
layerId = "043639A7-E62C-4A4F-99F5-E7AE759848D8";
shapes = (
{
closed = 1;
nodes = (
(605,-192,o),
(782,-94,o),
(782,190,cs),
(782,293,ls),
(782,452,o),
(652,626,o),
(532,684,c),
(747,1251,l),
(747,1377,l),
(85,1377,l),
(85,1185,l),
(475,1185,l),
(292,705,l),
(292,538,l),
(391,538,ls),
(511,538,o),
(540,465,o),
(540,334,cs),
(540,170,ls),
(540,39,o),
(487,-9,o),
(407,-9,cs),
(327,-9,o),
(259,53,o),
(259,246,cs),
(259,318,l),
(76,318,l),
(61,252,o),
(54,188,o),
(54,136,cs),
(54,-72,o),
(181,-192,o),
(407,-192,cs)
);
}
);
width = 847;
}
);
unicode = 658;
},
{
color = 4;
glyphname = f;
lastChange = "2023-02-28 19:30:45 +0000";
layers = (
{
anchors = (
{
name = bottom;
pos = (303,0);
},
{
name = top;
pos = (303,2096);
}
);
layerId = "043639A7-E62C-4A4F-99F5-E7AE759848D8";
shapes = (
{
closed = 1;
nodes = (
(148,0,l),
(401,0,l),
(401,1185,l),
(602,1185,l),
(602,1377,l),
(401,1377,l),
(401,1476,ls),
(401,1596,o),
(459,1635,o),
(525,1635,cs),
(559,1635,o),
(592,1631,o),
(619,1624,c),
(619,1802,l),
(573,1825,o),
(500,1836,o),
(451,1836,cs),
(283,1836,o),
(148,1775,o),
(148,1476,cs),
(148,1377,l),
(33,1377,l),
(33,1185,l),
(148,1185,l)
);
}
);
width = 606;
}
);
unicode = 102;
userData = {
com.typemytype.robofont.guides = (
{
angle = 0;
isGlobal = 0;
magnetic = 5;
x = 0;
y = 1836;
},
{
angle = 90;
isGlobal = 0;
magnetic = 5;
x = 1212;
y = 0;
},
{
angle = 90;
isGlobal = 0;
magnetic = 5;
x = 711;
y = 0;
}
);
com.typemytype.robofont.mark = (
1,
0.6,
0.6,
1
);
};
},
{
color = 4;
glyphname = g;
lastChange = "2023-02-28 19:30:45 +0000";
layers = (
{
anchors = (
{
name = bottom;
pos = (492,-508);
},
{
name = top;
pos = (492,1377);
}
);
layerId = "043639A7-E62C-4A4F-99F5-E7AE759848D8";
shapes = (
{
closed = 1;
nodes = (
(154,-94,l),
(145,-126,o),
(141,-155,o),
(141,-174,cs),
(141,-391,o),
(289,-445,o),
(471,-445,cs),
(740,-445,o),
(855,-251,o),
(855,56,cs),
(855,1378,l),
(658,1378,l),
(635,1242,l),
(598,1315,o),
(531,1392,o),
(397,1392,cs),
(297,1392,o),
(95,1366,o),
(95,918,cs),
(95,556,l),
(95,88,o),
(298,58,o),
(391,58,cs),
(497,58,o),
(566,107,o),
(611,165,c),
(611,-52,ls),
(611,-220,o),
(543,-257,o),
(468,-257,cs),
(377,-257,o),
(333,-212,o),
(333,-94,c)
);
},
{
closed = 1;
nodes = (
(477,264,cs),
(403,264,o),
(349,311,o),
(349,516,cs),
(349,938,ls),
(349,1144,o),
(402,1187,o),
(476,1187,cs),
(536,1187,o),
(578,1141,o),
(603,1086,c),
(603,364,l),
(581,313,o),
(543,264,o)
);
}
);
width = 984;
}
);
unicode = 103;
userData = {
com.typemytype.robofont.mark = (
1,
0.6,
0.6,
1
);
};
},
{
color = 0;
glyphname = gsingle;
lastChange = "2023-03-01 03:46:17 +0000";
layers = (
{
anchors = (
{
name = bottom;
pos = (492,-508);
},
{
name = top;
pos = (492,1377);
}
);
layerId = "043639A7-E62C-4A4F-99F5-E7AE759848D8";
shapes = (
{
closed = 1;
nodes = (
(154,-94,l),
(145,-126,o),
(141,-155,o),
(141,-174,cs),
(141,-391,o),
(289,-445,o),
(471,-445,cs),
(740,-445,o),
(855,-251,o),
(855,56,cs),
(855,1378,l),
(397,1377,ls),
(297,1377,o),
(95,1366,o),
(95,918,cs),
(95,556,l),
(95,88,o),
(298,58,o),
(391,58,cs),
(497,58,o),
(566,107,o),
(611,165,c),
(611,-52,ls),
(611,-220,o),
(543,-257,o),
(468,-257,cs),
(377,-257,o),
(333,-212,o),
(333,-94,c)
);
},
{
closed = 1;
nodes = (
(581,313,o),
(543,264,o),
(477,264,cs),
(403,264,o),
(349,311,o),
(349,516,cs),
(349,938,ls),
(349,1144,o),
(402,1187,o),
(476,1187,cs),
(603,1189,l),
(603,364,l)
);
}
);
width = 984;
}
);
metricLeft = g;
metricRight = g;
unicode = 609;
},
{
color = 1;
glyphname = gstroke;
lastChange = "2023-03-01 05:19:13 +0000";
layers = (
{
anchors = (
{
name = bottom;
pos = (492,-508);
},
{
name = top;
pos = (492,1377);
}
);
layerId = "043639A7-E62C-4A4F-99F5-E7AE759848D8";
shapes = (
{
closed = 1;
nodes = (
(154,-187,l),
(145,-219,o),
(141,-248,o),
(141,-267,cs),
(141,-454,o),
(289,-508,o),
(471,-508,cs),
(740,-508,o),
(855,-314,o),
(855,-7,cs),
(855,1378,l),
(658,1378,l),
(635,1242,l),
(598,1315,o),
(531,1392,o),
(397,1392,cs),
(297,1392,o),
(95,1366,o),
(95,918,cs),
(95,676,l),
(95,208,o),
(298,178,o),
(391,178,cs),
(497,178,o),
(566,227,o),
(611,285,c),
(611,-115,ls),
(611,-283,o),
(543,-320,o),
(468,-320,cs),
(377,-320,o),
(333,-275,o),
(333,-187,c)
);
},
{
closed = 1;
nodes = (
(581,433,o),
(543,384,o),
(477,384,cs),
(403,384,o),
(349,431,o),
(349,636,cs),
(349,938,ls),
(349,1144,o),
(402,1187,o),
(476,1187,cs),
(536,1187,o),
(578,1141,o),
(603,1086,c),
(603,484,l)
);
},
{
closed = 1;
nodes = (
(987,-93,l),
(987,97,l),
(386,97,l),
(386,-93,l)
);
}
);
width = 1016;
}
);
metricLeft = g;
metricRight = t;
unicode = 485;
},
{
color = 4;
glyphname = h;
lastChange = "2023-03-01 02:48:36 +0000";
layers = (
{
anchors = (
{
name = bottom;
pos = (506,0);
},
{
name = center;
pos = (506,1048);
},
{
name = top;
pos = (256,1819);
}
);
layerId = "043639A7-E62C-4A4F-99F5-E7AE759848D8";
shapes = (
{
closed = 1;
nodes = (
(128,0,l),
(381,0,l),
(381,1091,l),
(419,1150,o),
(470,1187,o),
(521,1187,cs),
(593,1187,o),
(631,1146,o),
(631,1025,cs),
(631,0,l),
(884,0,l),
(884,1055,ls),
(884,1279,o),
(792,1393,o),
(632,1393,cs),
(539,1393,o),
(443,1362,o),
(368,1259,c),
(381,1495,l),
(381,1819,l),
(128,1819,l)
);
}
);
width = 1012;
}
);
unicode = 104;
userData = {
com.typemytype.robofont.mark = (
1,
0.6,
0.6,
1
);
};
},
{
color = 1;
glyphname = hbar;
lastChange = "2023-03-01 02:53:44 +0000";
layers = (
{
layerId = "043639A7-E62C-4A4F-99F5-E7AE759848D8";
shapes = (
{
closed = 1;
nodes = (
(128,0,l),
(381,0,l),
(381,1086,l),
(419,1138,o),
(470,1169,o),
(521,1169,cs),
(593,1169,o),
(631,1128,o),
(631,1008,cs),
(631,0,l),
(884,0,l),
(884,1050,ls),
(884,1273,o),
(792,1386,o),
(632,1386,cs),
(539,1386,o),
(443,1355,o),
(368,1253,c),
(381,1488,l),
(381,1505,l),
(602,1505,l),
(602,1676,l),
(381,1676,l),
(381,1810,l),
(128,1810,l),
(128,1676,l),
(4,1676,l),
(4,1505,l),
(128,1505,l)
);
}
);
width = 1011;
}
);
unicode = 295;
userData = {
com.typemytype.robofont.mark = (
0.6,
0.986,
1,
1
);
};
},
{
color = 4;
glyphname = i;
lastChange = "2023-03-01 05:13:04 +0000";
layers = (
{
anchors = (
{
name = bottom;
pos = (256,0);
}
);
layerId = "043639A7-E62C-4A4F-99F5-E7AE759848D8";
shapes = (
{
closed = 1;
nodes = (
(254,1568,cs),
(353,1568,o),
(412,1632,o),
(412,1736,cs),
(412,1847,o),
(354,1899,o),
(255,1899,cs),
(160,1899,o),
(99,1855,o),
(99,1736,cs),
(99,1629,o),
(161,1568,o)
);
},
{
closed = 1;
nodes = (
(129,0,l),
(382,0,l),
(382,1377,l),
(129,1377,l)
);
}
);
width = 511;
}
);
unicode = 105;
userData = {
KernOnName = i;
com.typemytype.robofont.mark = (
0.6,
0.986,
1,
1
);
};
},
{
color = 4;
glyphname = idotless;
lastChange = "2023-02-28 19:30:45 +0000";
layers = (
{
anchors = (
{
name = bottom;
pos = (256,0);
},
{
name = ogonek;
pos = (460,10);
},
{
name = top;
pos = (256,1377);
}
);
layerId = "043639A7-E62C-4A4F-99F5-E7AE759848D8";
shapes = (
{
closed = 1;
nodes = (
(129,0,l),
(382,0,l),
(382,1377,l),
(129,1377,l)
);
}
);
width = 511;
}
);
unicode = 305;
},
{
color = 1;
glyphname = ij_acutecomb;
lastChange = "2023-03-01 02:53:29 +0000";
layers = (
{
layerId = "043639A7-E62C-4A4F-99F5-E7AE759848D8";
shapes = (
{
closed = 1;
nodes = (
(129,0,l),
(382,0,l),
(382,1377,l),
(129,1377,l)
);
},
{
closed = 1;
nodes = (
(640,-116,l),
(640,-236,o),
(590,-275,o),
(531,-275,cs),
(520,-275,o),
(509,-274,o),
(499,-273,c),
(499,-420,l),
(539,-438,o),
(581,-444,o),
(621,-444,cs),
(762,-444,o),
(893,-384,o),
(893,-84,cs),
(893,1377,l),
(640,1377,l)
);
},
{
closed = 1;
nodes = (
(161,1462,l),
(495,1846,l),
(326,1983,l),
(36,1567,l)
);
},
{
closed = 1;
nodes = (
(709,1462,l),
(1043,1846,l),
(874,1983,l),
(584,1567,l)
);
}
);
width = 1022;
}
);
},
{
color = 4;
glyphname = j;
lastChange = "2023-03-01 02:53:19 +0000";
layers = (
{
anchors = (
{
name = btm;
pos = (185,-100);
},
{
name = top;
pos = (260,500);
}
);
layerId = "043639A7-E62C-4A4F-99F5-E7AE759848D8";
shapes = (
{
closed = 1;
nodes = (
(129,-116,l),
(129,-236,o),
(79,-275,o),
(20,-275,cs),
(9,-275,o),
(-2,-274,o),
(-12,-273,c),
(-12,-420,l),
(28,-438,o),
(70,-444,o),
(110,-444,cs),
(251,-444,o),
(382,-384,o),
(382,-84,cs),
(382,1377,l),
(129,1377,l)
);
},
{
closed = 1;
nodes = (
(254,1568,cs),
(353,1568,o),
(412,1632,o),
(412,1736,cs),
(412,1847,o),
(354,1899,o),
(255,1899,cs),
(160,1899,o),
(99,1855,o),
(99,1736,cs),
(99,1629,o),
(161,1568,o)
);
}
);
width = 511;
}
);
unicode = 106;
userData = {
com.typemytype.robofont.guides = (
{
angle = 90;
isGlobal = 0;
magnetic = 5;
x = 58;
y = 0;
}
);
com.typemytype.robofont.mark = (
1,
0.6,
0.6,
1
);
};
},
{
color = 4;
glyphname = jdotless;
lastChange = "2023-02-28 19:30:45 +0000";
layers = (
{
anchors = (
{
name = bottom;
pos = (256,-508);
},
{
name = top;
pos = (256,1377);
}
);
layerId = "043639A7-E62C-4A4F-99F5-E7AE759848D8";
shapes = (
{
closed = 1;
nodes = (
(129,-116,l),
(129,-236,o),
(79,-275,o),
(20,-275,cs),
(9,-275,o),
(-2,-274,o),
(-12,-273,c),
(-12,-420,l),
(28,-438,o),
(70,-444,o),
(110,-444,cs),
(251,-444,o),
(382,-384,o),
(382,-84,cs),
(382,1377,l),
(129,1377,l)
);
}
);
width = 511;
}
);
unicode = 567;
userData = {
com.typemytype.robofont.guides = (
{
angle = 90;
isGlobal = 0;
magnetic = 5;
x = 58;
y = 0;
}
);
com.typemytype.robofont.mark = (
1,
0.6,
0.6,
1
);
};
},
{
color = 4;
glyphname = k;
lastChange = "2023-03-01 02:16:11 +0000";
layers = (
{
anchors = (
{
name = bottom;
pos = (475,0);
},
{
name = top;
pos = (255,1818);
}
);
layerId = "043639A7-E62C-4A4F-99F5-E7AE759848D8";
shapes = (
{
closed = 1;
nodes = (
(129,0,l),
(382,0,l),
(382,683,l),
(390,683,l),
(682,0,l),
(938,0,l),
(614,759,l),
(909,1377,l),
(666,1377,l),
(390,772,l),
(382,772,l),
(382,1819,l),
(129,1819,l)
);
}
);
width = 949;
}
);
unicode = 107;
userData = {
com.typemytype.robofont.mark = (
1,
0.6,
0.6,
1
);
};
},
{
color = 4;
glyphname = kgreenlandic;
lastChange = "2023-02-28 19:30:45 +0000";
layers = (
{
anchors = (
{
name = bottom;
pos = (475,0);
},
{
name = top;
pos = (475,1377);
}
);
layerId = "043639A7-E62C-4A4F-99F5-E7AE759848D8";
shapes = (
{
closed = 1;
nodes = (
(129,0,l),
(382,0,l),
(382,639,l),
(390,639,l),
(682,0,l),
(938,0,l),
(614,714,l),
(909,1370,l),
(666,1370,l),
(390,727,l),
(382,727,l),
(382,1370,l),
(129,1370,l)
);
}
);
width = 949;
}
);
unicode = 312;
userData = {
com.typemytype.robofont.guides = (
{
angle = 90;
isGlobal = 0;
magnetic = 5;
x = 941;
y = 0;
}
);
};
},
{
color = 4;
glyphname = l;
lastChange = "2023-02-28 19:30:45 +0000";
layers = (
{
anchors = (
{
name = bottom;
pos = (256,0);
},
{
name = center;
pos = (256,1048);
},
{
name = top;
pos = (256,2096);
},
{
name = topright;
pos = (491,2096);
}
);
layerId = "043639A7-E62C-4A4F-99F5-E7AE759848D8";
shapes = (
{
closed = 1;
nodes = (
(129,0,l),
(382,0,l),
(382,1819,l),
(129,1819,l)
);
}
);
width = 511;
}
);
unicode = 108;
userData = {
com.typemytype.robofont.mark = (
1,
0.6,
0.6,
1
);
};
},
{
color = 1;
glyphname = ldot;
lastChange = "2023-03-01 02:53:44 +0000";
layers = (
{
layerId = "043639A7-E62C-4A4F-99F5-E7AE759848D8";
shapes = (
{
closed = 1;
nodes = (
(129,0,l),
(382,0,l),
(382,1810,l),
(129,1810,l)
);
},
{
closed = 1;
nodes = (
(614,712,cs),
(701,712,o),
(747,780,o),
(747,890,cs),
(747,1008,o),
(701,1062,o),
(615,1062,cs),
(531,1062,o),
(475,1016,o),
(475,890,cs),
(475,777,o),
(532,712,o)
);
}
);
width = 757;
}
);
unicode = 320;
},
{
color = 1;
glyphname = lslash;
lastChange = "2023-03-01 02:53:36 +0000";
layers = (
{
layerId = "043639A7-E62C-4A4F-99F5-E7AE759848D8";
shapes = (
{
closed = 1;
nodes = (
(168,0,l),
(420,0,l),
(420,1810,l),
(168,1810,l)
);
},
{
closed = 1;
nodes = (
(58,709,l),
(241,882,l),
(380,996,l),
(668,1269,l),
(550,1391,l),
(379,1229,l),
(227,1102,l),
(-60,830,l)
);
}
);
width = 608;
}
);
unicode = 322;
userData = {
com.typemytype.robofont.mark = (
0.6,
0.986,
1,
1
);
};
},
{
color = 4;
glyphname = m;
lastChange = "2023-02-28 19:30:45 +0000";
layers = (
{
anchors = (
{
name = bottom;
pos = (757,0);
},
{
name = top;
pos = (757,1377);
}
);
layerId = "043639A7-E62C-4A4F-99F5-E7AE759848D8";
shapes = (
{
closed = 1;
nodes = (
(129,0,l),
(382,0,l),
(382,1093,l),
(419,1151,o),
(469,1187,o),
(514,1187,cs),
(596,1187,o),
(631,1146,o),
(631,1025,cs),
(631,0,l),
(884,0,l),
(884,1055,ls),
(884,1067,o),
(884,1079,o),
(883,1091,c),
(921,1150,o),
(971,1187,o),
(1017,1187,cs),
(1099,1187,o),
(1134,1146,o),
(1134,1025,cs),
(1134,0,l),
(1387,0,l),
(1387,1055,ls),
(1387,1279,o),
(1295,1393,o),
(1136,1393,cs),
(1036,1393,o),
(934,1356,o),
(855,1237,c),
(817,1341,o),
(740,1393,o),
(633,1393,cs),
(531,1393,o),
(426,1355,o),
(347,1229,c),
(347,1230,l),
(323,1377,l),
(129,1377,l)
);
}
);
width = 1514;
}
);
unicode = 109;
userData = {
com.typemytype.robofont.mark = (
1,
0.6,
0.6,
1
);
};
},
{
color = 4;
glyphname = n;
lastChange = "2023-03-01 05:13:04 +0000";
layers = (
{
anchors = (
{
name = bottom;
pos = (506,0);
},
{
name = top;
pos = (506,1377);
}
);
layerId = "043639A7-E62C-4A4F-99F5-E7AE759848D8";
shapes = (
{
closed = 1;
nodes = (
(129,0,l),
(382,0,l),
(382,1093,l),
(420,1151,o),
(470,1187,o),
(521,1187,cs),
(593,1187,o),
(631,1146,o),
(631,1025,cs),
(631,0,l),
(884,0,l),
(884,1055,ls),
(884,1279,o),
(792,1393,o),
(632,1393,cs),
(531,1393,o),
(426,1355,o),
(347,1229,c),
(347,1230,l),
(322,1377,l),
(129,1377,l)
);
}
);
width = 1011;
}
);
unicode = 110;
userData = {
KernOnName = n;
com.typemytype.robofont.mark = (
1,
0.6,
0.6,
1
);
};
},
{
color = 1;
glyphname = nhookleft;
lastChange = "2023-02-28 20:43:01 +0000";
layers = (
{
anchors = (
{
name = bottom;
pos = (506,0);
},
{
name = top;
pos = (506,1377);
}
);
layerId = "043639A7-E62C-4A4F-99F5-E7AE759848D8";
shapes = (
{
closed = 1;
nodes = (
(382,0,l),
(382,1093,l),
(420,1151,o),
(470,1187,o),
(521,1187,cs),
(593,1187,o),
(631,1146,o),
(631,1025,cs),
(631,0,l),
(884,0,l),
(884,1055,ls),
(884,1279,o),
(792,1393,o),
(632,1393,cs),
(531,1393,o),
(426,1355,o),
(347,1229,c),
(347,1230,l),
(322,1377,l),
(129,1377,l),
(129,0,l)
);
},
{
closed = 1;
nodes = (
(275,-444,o),
(382,-384,o),
(382,-84,cs),
(382,0,l),
(269,278,l),
(129,0,l),
(128,-116,ls),
(127,-236,o),
(78,-275,o),
(19,-275,cs),
(8,-275,o),
(-3,-274,o),
(-13,-273,c),
(-13,-420,l),
(27,-438,o),
(69,-444,o),
(109,-444,cs)
);
}
);
width = 1011;
}
);
unicode = 626;
},
{
color = 1;
glyphname = eng;
lastChange = "2023-02-28 20:43:01 +0000";
layers = (
{
anchors = (
{
name = bottom;
pos = (506,0);
},
{
name = top;
pos = (506,1377);
}
);
layerId = "043639A7-E62C-4A4F-99F5-E7AE759848D8";
shapes = (
{
closed = 1;
nodes = (
(129,0,l),
(382,0,l),
(382,1093,l),
(420,1151,o),
(470,1187,o),
(521,1187,cs),
(593,1187,o),
(631,1146,o),
(631,1025,cs),
(631,0,l),
(884,0,l),
(884,1055,ls),
(884,1279,o),
(792,1393,o),
(632,1393,cs),
(531,1393,o),
(426,1355,o),
(347,1229,c),
(347,1230,l),
(322,1377,l),
(129,1377,l)
);
},
{
closed = 1;
nodes = (
(777,-444,o),
(884,-384,o),
(884,-84,cs),
(884,0,l),
(771,278,l),
(631,0,l),
(630,-116,ls),
(629,-236,o),
(580,-275,o),
(521,-275,cs),
(510,-275,o),
(499,-274,o),
(489,-273,c),
(489,-420,l),
(529,-438,o),
(571,-444,o),
(611,-444,cs)
);
}
);
width = 1011;
}
);
unicode = 331;
},
{
color = 4;
glyphname = o;
lastChange = "2023-03-01 05:13:04 +0000";
layers = (
{
anchors = (
{
name = bottom;
pos = (474,0);
},
{
name = center;
pos = (474,689);
},
{
name = ogonek;
pos = (853,10);
},
{
name = top;
pos = (474,1377);
},
{
name = topright;
pos = (580,1377);
}
);
layerId = "043639A7-E62C-4A4F-99F5-E7AE759848D8";
shapes = (
{
closed = 1;
nodes = (
(476,-15,cs),
(635,-15,o),
(853,56,o),
(853,591,cs),
(853,807,ls),
(853,1349,o),
(642,1393,o),
(477,1393,cs),
(306,1393,o),
(95,1342,o),
(95,807,cs),
(95,591,ls),
(95,47,o),
(300,-15,o)
);
},
{
closed = 1;
nodes = (
(478,173,cs),
(383,173,o),
(349,258,o),
(349,516,cs),
(349,859,ls),
(349,1117,o),
(383,1205,o),
(478,1205,cs),
(569,1205,o),
(599,1117,o),
(599,859,cs),
(599,516,ls),
(599,258,o),
(569,173,o)
);
}
);
width = 948;
}
);
unicode = 111;
userData = {
KernOnName = o;
com.typemytype.robofont.mark = (
1,
0.6,
0.6,
1
);
};
},
{
color = 1;
glyphname = oopen;
lastChange = "2023-02-28 20:43:13 +0000";
layers = (
{
anchors = (
{
name = bottom;
pos = (431,0);
},
{
name = top;
pos = (431,1377);
}
);
layerId = "043639A7-E62C-4A4F-99F5-E7AE759848D8";
shapes = (
{
closed = 1;
nodes = (
(768,824,ls),
(768,1350,o),
(520,1393,o),
(381,1393,cs),
(194,1393,o),
(67,1296,o),
(67,1090,cs),
(67,1027,o),
(73,984,o),
(84,941,c),
(276,941,l),
(276,984,ls),
(276,1122,o),
(315,1205,o),
(389,1205,cs),
(471,1205,o),
(514,1129,o),
(514,892,cs),
(514,501,ls),
(514,261,o),
(482,173,o),
(383,173,cs),
(332,173,o),
(276,218,o),
(276,363,cs),
(276,423,l),
(71,423,l),
(71,360,ls),
(71,99,o),
(182,-15,o),
(411,-15,cs),
(643,-15,o),
(768,154,o),
(768,564,cs)
);
}
);
width = 863;
}
);
unicode = 596;
},
{
color = 1;
glyphname = oslash;
lastChange = "2023-03-01 02:50:19 +0000";
layers = (
{
anchors = (
{
name = top;
pos = (474,1377);
}
);
layerId = "043639A7-E62C-4A4F-99F5-E7AE759848D8";
shapes = (
{
closed = 1;
nodes = (
(95,-171,l),
(212,-171,l),
(852,1541,l),
(735,1541,l)
);
},
{
closed = 1;
nodes = (
(95,47,o),
(300,-15,o),
(476,-15,cs),
(635,-15,o),
(853,56,o),
(853,588,cs),
(853,803,ls),
(853,1342,o),
(642,1386,o),
(477,1386,cs),
(306,1386,o),
(95,1335,o),
(95,803,cs),
(95,588,ls)
);
},
{
closed = 1;
nodes = (
(619,249,o),
(583,161,o),
(478,161,cs),
(369,161,o),
(329,249,o),
(329,513,cs),
(329,855,ls),
(329,1118,o),
(369,1210,o),
(478,1210,cs),
(583,1210,o),
(619,1118,o),
(619,855,cs),
(619,513,ls)
);
}
);
width = 948;
}
);
unicode = 248;
userData = {
com.typemytype.robofont.guides = (
{
angle = 90;
isGlobal = 0;
magnetic = 5;
x = 95;
y = 0;
},
{
angle = 90;
isGlobal = 0;
magnetic = 5;
x = 852;
y = 0;
}
);
com.typemytype.robofont.mark = (
1,
0.6,
0.6,
1
);
};
},
{
color = 4;
glyphname = oe;
lastChange = "2023-02-28 19:30:45 +0000";
layers = (
{
anchors = (
{
name = bottom;
pos = (709,0);
},
{
name = top;
pos = (709,1377);
}
);
layerId = "043639A7-E62C-4A4F-99F5-E7AE759848D8";
shapes = (
{
closed = 1;
nodes = (
(476,-15,cs),
(555,-15,o),
(651,10,o),
(722,98,c),
(730,98,l),
(788,31,o),
(877,-15,o),
(977,-15,cs),
(1219,-15,o),
(1328,99,o),
(1328,358,cs),
(1328,421,l),
(1123,421,l),
(1123,361,ls),
(1123,217,o),
(1062,172,o),
(1000,172,cs),
(885,172,o),
(853,260,o),
(853,499,cs),
(853,638,l),
(1302,638,l),
(1322,725,o),
(1335,848,o),
(1335,958,cs),
(1335,1289,o),
(1181,1386,o),
(999,1386,cs),
(923,1386,o),
(822,1368,o),
(738,1273,c),
(730,1273,l),
(658,1366,o),
(558,1386,o),
(477,1386,cs),
(306,1386,o),
(95,1335,o),
(95,803,cs),
(95,588,ls),
(95,47,o),
(300,-15,o)
);
},
{
closed = 1;
nodes = (
(478,172,cs),
(383,172,o),
(349,257,o),
(349,513,cs),
(349,855,ls),
(349,1111,o),
(383,1199,o),
(478,1199,cs),
(569,1199,o),
(599,1111,o),
(599,855,cs),
(599,513,ls),
(599,257,o),
(569,172,o)
);
},
{
closed = 1;
nodes = (
(853,807,l),
(853,888,ls),
(853,1123,o),
(895,1199,o),
(984,1199,c),
(1068,1198,o),
(1105,1125,o),
(1105,944,cs),
(1105,908,o),
(1104,836,o),
(1101,807,c)
);
}
);
width = 1418;
}
);
unicode = 339;
userData = {
com.typemytype.robofont.guides = (
{
angle = 0;
isGlobal = 0;
magnetic = 5;
x = 0;
y = 1273;
}
);
};
},
{
color = 4;
glyphname = p;
lastChange = "2023-02-28 19:30:45 +0000";
layers = (
{
anchors = (
{
name = bottom;
pos = (493,0);
},
{
name = top;
pos = (493,1377);
}
);
layerId = "043639A7-E62C-4A4F-99F5-E7AE759848D8";
shapes = (
{
closed = 1;
nodes = (
(373,91,l),
(418,33,o),
(487,-16,o),
(594,-16,cs),
(687,-16,o),
(890,14,o),
(890,481,cs),
(890,898,l),
(890,1366,o),
(688,1392,o),
(604,1392,cs),
(473,1392,o),
(395,1308,o),
(349,1232,c),
(326,1377,l),
(128,1377,l),
(128,-445,l),
(381,-445,l),
(381,-78,l)
);
},
{
closed = 1;
nodes = (
(381,299,c),
(381,1092,l),
(406,1143,o),
(446,1187,o),
(509,1187,cs),
(583,1187,o),
(635,1142,o),
(635,937,cs),
(635,449,ls),
(635,244,o),
(582,198,o),
(508,198,cs),
(440,198,o),
(403,247,o)
);
}
);
width = 985;
}
);
unicode = 112;
userData = {
com.typemytype.robofont.mark = (
1,
0.6,
0.6,
1
);
};
},
{
color = 4;
glyphname = thorn;
lastChange = "2023-02-28 19:30:45 +0000";
layers = (
{
anchors = (
{
name = bottom;
pos = (493,0);
},
{
name = top;
pos = (493,1377);
}
);
layerId = "043639A7-E62C-4A4F-99F5-E7AE759848D8";
shapes = (
{
closed = 1;
nodes = (
(368,95,l),
(408,44,o),
(491,-16,o),
(594,-16,cs),
(687,-16,o),
(890,14,o),
(890,479,cs),
(890,894,l),
(890,1359,o),
(688,1385,o),
(604,1385,cs),
(494,1385,o),
(421,1326,o),
(375,1263,c),
(374,1264,l),
(382,1445,l),
(382,1810,l),
(129,1810,l),
(129,-443,l),
(382,-443,l),
(382,-59,l)
);
},
{
closed = 1;
nodes = (
(382,296,c),
(382,1089,l),
(407,1133,o),
(447,1171,o),
(509,1171,cs),
(583,1171,o),
(635,1126,o),
(635,922,cs),
(635,447,ls),
(635,243,o),
(582,197,o),
(508,197,cs),
(441,197,o),
(404,245,o)
);
}
);
width = 985;
}
);
unicode = 254;
},
{
color = 4;
glyphname = q;
lastChange = "2023-02-28 19:30:45 +0000";
layers = (
{
anchors = (
{
name = bottom;
pos = (492,0);
},
{
name = top;
pos = (492,1377);
}
);
layerId = "043639A7-E62C-4A4F-99F5-E7AE759848D8";
shapes = (
{
closed = 1;
nodes = (
(391,-16,cs),
(497,-16,o),
(565,32,o),
(610,89,c),
(603,-79,l),
(603,-446,l),
(855,-446,l),
(855,1377,l),
(658,1377,l),
(634,1234,l),
(589,1309,o),
(511,1392,o),
(381,1392,cs),
(297,1392,o),
(95,1366,o),
(95,898,cs),
(95,481,l),
(95,14,o),
(298,-16,o)
);
},
{
closed = 1;
nodes = (
(477,190,cs),
(403,190,o),
(349,236,o),
(349,441,cs),
(349,936,ls),
(349,1142,o),
(402,1187,o),
(476,1187,cs),
(536,1187,o),
(578,1141,o),
(603,1086,c),
(603,289,l),
(581,238,o),
(543,190,o)
);
}
);
width = 984;
}
);
unicode = 113;
userData = {
com.typemytype.robofont.mark = (
1,
0.6,
0.6,
1
);
};
},
{
color = 4;
glyphname = r;
lastChange = "2023-02-28 19:30:45 +0000";
layers = (
{
anchors = (
{
name = bottom;
pos = (391,0);
},
{
name = top;
pos = (391,1377);
}
);
layerId = "043639A7-E62C-4A4F-99F5-E7AE759848D8";
shapes = (
{
closed = 1;
nodes = (
(129,0,l),
(382,0,l),
(382,1113,l),
(401,1159,o),
(428,1187,o),
(460,1187,cs),
(509,1187,o),
(547,1156,o),
(547,1045,cs),
(547,938,l),
(723,938,l),
(742,994,o),
(757,1079,o),
(757,1125,cs),
(757,1303,o),
(689,1393,o),
(544,1393,cs),
(468,1393,o),
(391,1341,o),
(336,1237,c),
(314,1377,l),
(129,1377,l)
);
}
);
width = 782;
}
);
unicode = 114;
userData = {
com.typemytype.robofont.mark = (
1,
0.6,
0.6,
1
);
};
},
{
color = 1;
glyphname = rturned;
lastChange = "2023-11-01 02:12:15 +0000";
layers = (
{
layerId = "043639A7-E62C-4A4F-99F5-E7AE759848D8";
shapes = (
{
closed = 1;
nodes = (
(653,1377,l),
(400,1377,l),
(400,264,l),
(381,218,o),
(354,190,o),
(322,190,cs),
(273,190,o),
(235,221,o),
(235,332,cs),
(235,439,l),
(59,439,l),
(40,383,o),
(25,298,o),
(25,252,cs),
(25,74,o),
(93,-16,o),
(238,-16,cs),
(314,-16,o),
(391,36,o),
(446,140,c),
(468,0,l),
(653,0,l)
);
}
);
width = 782;
}
);
unicode = 633;
},
{
color = 4;
glyphname = s;
lastChange = "2023-02-28 19:30:45 +0000";
layers = (
{
anchors = (
{
name = bottom;
pos = (405,0);
},
{
name = top;
pos = (405,1377);
}
);
layerId = "043639A7-E62C-4A4F-99F5-E7AE759848D8";
shapes = (
{
closed = 1;
nodes = (
(65,288,cs),
(65,61,o),
(213,-15,o),
(398,-15,cs),
(623,-15,o),
(749,113,o),
(749,307,cs),
(749,468,o),
(645,601,o),
(587,674,cs),
(387,916,ls),
(336,980,o),
(301,1025,o),
(301,1089,cs),
(301,1147,o),
(325,1205,o),
(403,1205,cs),
(495,1205,o),
(531,1118,o),
(534,937,c),
(709,937,l),
(720,980,o),
(734,1044,o),
(734,1107,cs),
(734,1297,o),
(606,1393,o),
(407,1393,cs),
(227,1393,o),
(69,1293,o),
(69,1079,cs),
(69,919,o),
(158,790,o),
(254,669,cs),
(431,451,ls),
(485,385,o),
(519,335,o),
(519,276,cs),
(519,220,o),
(479,173,o),
(413,173,cs),
(319,173,o),
(268,242,o),
(268,442,c),
(90,442,l),
(79,409,o),
(65,348,o)
);
}
);
width = 810;
}
);
unicode = 115;
userData = {
com.typemytype.robofont.guides = (
{
angle = 90;
isGlobal = 0;
magnetic = 5;
x = 65;
y = 0;
},
{
angle = 90;
isGlobal = 0;
magnetic = 5;
x = 748;
y = 0;
}
);
com.typemytype.robofont.mark = (
1,
0.6,
0.6,
1
);
};
},
{
color = 4;
glyphname = germandbls;
lastChange = "2023-02-28 19:30:45 +0000";
layers = (
{
anchors = (
{
name = bottom;
pos = (513,0);
},
{
name = top;
pos = (513,2096);
}
);
layerId = "043639A7-E62C-4A4F-99F5-E7AE759848D8";
shapes = (
{
closed = 1;
nodes = (
(129,-443,l),
(382,-443,l),
(382,1485,ls),
(382,1591,o),
(445,1629,o),
(524,1629,cs),
(627,1629,o),
(681,1546,o),
(681,1436,cs),
(681,1348,o),
(662,1281,o),
(593,1140,cs),
(528,1033,o),
(505,980,o),
(505,907,cs),
(505,824,o),
(535,750,o),
(575,670,cs),
(633,509,ls),
(670,435,o),
(705,363,o),
(705,296,cs),
(705,208,o),
(650,170,o),
(602,170,cs),
(573,170,o),
(567,170,o),
(537,177,c),
(537,11,l),
(582,-7,o),
(632,-19,o),
(693,-19,cs),
(886,-19,o),
(962,136,o),
(962,297,cs),
(962,392,o),
(934,468,o),
(888,593,cs),
(796,790,ls),
(764,859,o),
(747,902,o),
(747,948,cs),
(747,988,o),
(756,1029,o),
(820,1134,cs),
(887,1269,o),
(919,1362,o),
(919,1474,cs),
(919,1680,o),
(798,1828,o),
(529,1828,cs),
(285,1828,o),
(129,1691,o),
(129,1408,cs)
);
}
);
width = 1026;
}
);
unicode = 223;
userData = {
com.typemytype.robofont.guides = (
{
angle = 0;
isGlobal = 0;
magnetic = 5;
x = 0;
y = 297;
}
);
};
},
{
color = 4;
glyphname = t;
lastChange = "2023-03-01 02:49:27 +0000";
layers = (
{
anchors = (
{
name = bottom;
pos = (331,0);
},
{
name = center;
pos = (331,689);
},
{
name = top;
pos = (331,1734);
},
{
name = topright;
pos = (492,1377);
}
);
layerId = "043639A7-E62C-4A4F-99F5-E7AE759848D8";
shapes = (
{
closed = 1;
nodes = (
(149,343,l),
(149,44,o),
(280,-16,o),
(421,-16,cs),
(492,-16,o),
(573,3,o),
(631,74,c),
(631,234,l),
(597,213,o),
(560,203,o),
(511,203,cs),
(452,203,o),
(402,221,o),
(402,341,cs),
(402,1185,l),
(632,1185,l),
(632,1377,l),
(402,1377,l),
(402,1734,l),
(222,1734,l),
(171,1377,l),
(32,1377,l),
(32,1185,l),
(149,1185,l)
);
}
);
width = 661;
}
);
unicode = 116;
userData = {
com.typemytype.robofont.guides = (
{
angle = 90;
isGlobal = 0;
magnetic = 5;
x = 145;
y = 0;
},
{
angle = 90;
isGlobal = 0;
magnetic = 5;
x = 644;
y = 0;
}
);
com.typemytype.robofont.mark = (
1,
0.6,
0.6,
1
);
};
},
{
color = 1;
glyphname = tbar;
lastChange = "2023-03-01 02:13:54 +0000";
layers = (
{
layerId = "043639A7-E62C-4A4F-99F5-E7AE759848D8";
shapes = (
{
closed = 1;
nodes = (
(30,766,l),
(149,766,l),
(149,343,ls),
(149,44,o),
(280,-16,o),
(421,-16,cs),
(492,-16,o),
(573,3,o),
(631,74,c),
(631,234,l),
(597,213,o),
(560,203,o),
(511,203,cs),
(452,203,o),
(402,221,o),
(402,341,cs),
(402,766,l),
(631,766,l),
(631,956,l),
(402,956,l),
(402,1185,l),
(632,1185,l),
(632,1377,l),
(402,1377,l),
(402,1734,l),
(222,1734,l),
(171,1377,l),
(32,1377,l),
(32,1185,l),
(149,1185,l),
(149,956,l),
(30,956,l)
);
}
);
width = 661;
}
);
unicode = 359;
userData = {
com.typemytype.robofont.mark = (
0.6,
0.986,
1,
1
);
};
},
{
color = 1;
glyphname = tretroflexhook;
lastChange = "2023-03-01 02:53:44 +0000";
layers = (
{
anchors = (
{
name = topright;
pos = (641,2096);
}
);
layerId = "043639A7-E62C-4A4F-99F5-E7AE759848D8";
shapes = (
{
closed = 1;
nodes = (
(149,-84,l),
(149,-383,o),
(280,-443,o),
(421,-443,cs),
(492,-443,o),
(573,-424,o),
(631,-353,c),
(631,-193,l),
(597,-214,o),
(560,-224,o),
(511,-224,cs),
(452,-224,o),
(402,-206,o),
(402,-86,cs),
(402,1185,l),
(632,1185,l),
(632,1377,l),
(402,1377,l),
(402,1734,l),
(222,1734,l),
(171,1377,l),
(32,1377,l),
(32,1185,l),
(149,1185,l)
);
}
);
width = 661;
}
);
unicode = 648;
},
{
color = 4;
glyphname = u;
lastChange = "2023-02-28 19:50:46 +0000";
layers = (
{
anchors = (
{
name = bottom;
pos = (506,0);
},
{
name = ogonek;
pos = (910,10);
},
{
name = top;
pos = (506,1377);
},
{
name = topright;
pos = (773,1377);
}
);
layerId = "043639A7-E62C-4A4F-99F5-E7AE759848D8";
shapes = (
{
closed = 1;
nodes = (
(127,322,l),
(127,97,o),
(219,-16,o),
(379,-16,cs),
(480,-16,o),
(584,22,o),
(663,147,c),
(664,147,l),
(689,0,l),
(882,0,l),
(882,1377,l),
(629,1377,l),
(629,283,l),
(591,231,o),
(540,202,o),
(490,202,cs),
(418,202,o),
(380,243,o),
(380,364,cs),
(380,1377,l),
(127,1377,l)
);
}
);
width = 1011;
}
);
unicode = 117;
userData = {
com.typemytype.robofont.mark = (
1,
0.6,
0.6,
1
);
};
},
{
color = 1;
glyphname = "upsilon-latin";
lastChange = "2023-03-01 02:11:26 +0000";
layers = (
{
layerId = "043639A7-E62C-4A4F-99F5-E7AE759848D8";
shapes = (
{
closed = 1;
nodes = (
(98,1377,l),
(98,1185,l),
(335,1185,l),
(181,1003,o),
(95,784,o),
(95,485,cs),
(95,118,o),
(374,-15,o),
(539,-15,cs),
(711,-15,o),
(976,118,o),
(976,485,cs),
(976,784,o),
(889,1003,o),
(738,1185,c),
(971,1185,l),
(971,1377,l),
(596,1377,l),
(596,1191,l),
(667,1042,o),
(730,890,o),
(728,445,cs),
(727,216,o),
(660,173,o),
(541,173,cs),
(422,173,o),
(344,216,o),
(344,445,cs),
(344,903,o),
(412,1043,o),
(482,1191,c),
(482,1377,l)
);
}
);
width = 1071;
}
);
metricLeft = o;
metricRight = o;
unicode = 650;
},
{
color = 4;
glyphname = v;
lastChange = "2023-02-28 19:30:45 +0000";
layers = (
{
anchors = (
{
name = bottom;
pos = (432,0);
},
{
name = top;
pos = (432,1377);
}
);
layerId = "043639A7-E62C-4A4F-99F5-E7AE759848D8";
shapes = (
{
closed = 1;
nodes = (
(321,0,l),
(537,0,l),
(851,1377,l),
(607,1377,l),
(475,645,l),
(437,352,l),
(429,352,l),
(396,645,l),
(263,1377,l),
(11,1377,l)
);
}
);
width = 864;
}
);
unicode = 118;
userData = {
com.typemytype.robofont.mark = (
1,
0.6,
0.6,
1
);
};
},
{
color = 1;
glyphname = vturned;
lastChange = "2023-03-01 02:11:58 +0000";
layers = (
{
anchors = (
{
name = bottom;
pos = (432,0);
},
{
name = top;
pos = (432,1377);
}
);
layerId = "043639A7-E62C-4A4F-99F5-E7AE759848D8";
shapes = (
{
closed = 1;
nodes = (
(543,1377,l),
(327,1377,l),
(13,0,l),
(257,0,l),
(389,732,l),
(427,1025,l),
(435,1025,l),
(468,732,l),
(601,0,l),
(853,0,l)
);
}
);
width = 864;
}
);
unicode = 652;
},
{
color = 4;
glyphname = w;
lastChange = "2023-02-28 19:30:45 +0000";
layers = (
{
anchors = (
{
name = bottom;
pos = (664,0);
},
{
name = top;
pos = (664,1377);
}
);
layerId = "043639A7-E62C-4A4F-99F5-E7AE759848D8";
shapes = (
{
closed = 1;
nodes = (
(257,0,l),
(500,0,l),
(630,766,l),
(659,977,l),
(659,977,o),
(667,977,o),
(667,977,c),
(699,766,l),
(842,0,l),
(1075,0,l),
(1298,1377,l),
(1062,1377,l),
(975,631,l),
(958,352,l),
(950,352,l),
(913,631,l),
(777,1377,l),
(564,1377,l),
(432,631,l),
(402,352,l),
(394,352,l),
(370,631,l),
(271,1377,l),
(30,1377,l)
);
}
);
width = 1328;
}
);
unicode = 119;
userData = {
com.typemytype.robofont.mark = (
1,
0.6,
0.6,
1
);
};
},
{
color = 1;
glyphname = wturned;
lastChange = "2022-11-25 17:49:41 +0000";
layers = (
{
anchors = (
{
name = bottom;
pos = (664,0);
},
{
name = top;
pos = (664,1377);
}
);
layerId = "043639A7-E62C-4A4F-99F5-E7AE759848D8";
shapes = (
{
closed = 1;
nodes = (
(1071,1377,l),
(828,1377,l),
(698,611,l),
(669,400,l),
(669,400,o),
(661,400,o),
(661,400,c),
(629,611,l),
(486,1377,l),
(253,1377,l),
(30,0,l),
(266,0,l),
(353,746,l),
(370,1025,l),
(378,1025,l),
(415,746,l),
(551,0,l),
(764,0,l),
(896,746,l),
(926,1025,l),
(934,1025,l),
(958,746,l),
(1057,0,l),
(1298,0,l)
);
}
);
width = 1328;
}
);
unicode = 653;
},
{
color = 4;
glyphname = x;
lastChange = "2023-02-28 19:30:45 +0000";
layers = (
{
anchors = (
{
name = bottom;
pos = (446,0);
},
{
name = top;
pos = (446,1377);
}
);
layerId = "043639A7-E62C-4A4F-99F5-E7AE759848D8";
shapes = (
{
closed = 1;
nodes = (
(20,0,l),
(263,0,l),
(435,475,l),
(443,475,l),
(613,0,l),
(872,0,l),
(579,723,l),
(840,1377,l),
(598,1377,l),
(442,926,l),
(440,926,l),
(293,1377,l),
(34,1377,l),
(306,699,l)
);
}
);
width = 892;
}
);
unicode = 120;
userData = {
com.typemytype.robofont.guides = (
{
angle = 90;
isGlobal = 0;
magnetic = 5;
x = 12;
y = 0;
},
{
angle = 90;
isGlobal = 0;
magnetic = 5;
x = 868;
y = 0;
}
);
com.typemytype.robofont.mark = (
1,
0.6,
0.6,
1
);
};
},
{
color = 4;
glyphname = y;
lastChange = "2023-02-28 19:30:45 +0000";
layers = (
{
anchors = (
{
name = bottom;
pos = (444,0);
},
{
name = top;
pos = (444,1377);
}
);
layerId = "043639A7-E62C-4A4F-99F5-E7AE759848D8";
shapes = (
{
closed = 1;
nodes = (
(80,-265,c),
(79,-420,l),
(125,-437,o),
(170,-445,o),
(212,-445,cs),
(426,-445,o),
(523,-315,o),
(574,-51,cs),
(857,1377,l),
(613,1377,l),
(496,615,l),
(467,352,l),
(459,352,l),
(417,615,l),
(272,1377,l),
(20,1377,l),
(346,-8,l),
(338,-203,o),
(233,-287,o)
);
}
);
width = 888;
}
);
unicode = 121;
userData = {
com.typemytype.robofont.guides = (
{
angle = 0;
isGlobal = 0;
magnetic = 5;
x = 0;
y = -504;
}
);
com.typemytype.robofont.mark = (
1,
0.6,
0.6,
1
);
};
},
{
color = 4;
glyphname = yturned;
lastChange = "2023-02-28 19:30:44 +0000";
layers = (
{
layerId = "043639A7-E62C-4A4F-99F5-E7AE759848D8";
shapes = (
{
closed = 1;
nodes = (
(797,1197,c),
(798,1352,l),
(752,1369,o),
(707,1377,o),
(665,1377,cs),
(451,1377,o),
(354,1247,o),
(303,983,cs),
(20,-445,l),
(264,-445,l),
(381,317,l),
(410,580,l),
(418,580,l),
(460,317,l),
(605,-445,l),
(857,-445,l),
(531,940,l),
(539,1135,o),
(644,1219,o)
);
}
);
width = 888;
}
);
unicode = 654;
},
{
color = 4;
glyphname = z;
lastChange = "2023-02-28 19:30:45 +0000";
layers = (
{
anchors = (
{
name = bottom;
pos = (344,0);
},
{
name = center;
pos = (344,689);
},
{
name = top;
pos = (344,1377);
}
);
layerId = "043639A7-E62C-4A4F-99F5-E7AE759848D8";
shapes = (
{
closed = 1;
nodes = (
(14,0,l),
(673,0,l),
(673,192,l),
(252,192,l),
(266,142,l),
(666,1251,l),
(666,1377,l),
(34,1377,l),
(34,1185,l),
(440,1185,l),
(421,1256,l),
(14,126,l)
);
}
);
width = 687;
}
);
unicode = 122;
userData = {
com.typemytype.robofont.guides = (
{
angle = 90;
isGlobal = 0;
magnetic = 5;
x = 13;
y = 0;
},
{
angle = 90;
isGlobal = 0;
magnetic = 5;
x = 677;
y = 0;
}
);
com.typemytype.robofont.mark = (
1,
0.6,
0.6,
1
);
};
},
{
color = 1;
glyphname = saltillo;
lastChange = "2023-03-01 02:55:50 +0000";
layers = (
{
layerId = "043639A7-E62C-4A4F-99F5-E7AE759848D8";
shapes = (
{
closed = 1;
nodes = (
(129,1004,l),
(382,1004,l),
(382,1708,l),
(129,1708,l)
);
}
);
width = 511;
}
);
unicode = 42892;
},
{
color = 1;
glyphname = f_f;
lastChange = "2023-03-01 02:53:51 +0000";
layers = (
{
layerId = "043639A7-E62C-4A4F-99F5-E7AE759848D8";
shapes = (
{
closed = 1;
nodes = (
(148,0,l),
(401,0,l),
(401,1185,l),
(602,1185,l),
(602,1377,l),
(401,1377,l),
(401,1456,ls),
(401,1576,o),
(459,1615,o),
(525,1615,cs),
(559,1615,o),
(592,1611,o),
(619,1604,c),
(619,1782,l),
(573,1805,o),
(500,1816,o),
(451,1816,cs),
(283,1816,o),
(148,1755,o),
(148,1456,cs),
(148,1377,l),
(33,1377,l),
(33,1185,l),
(148,1185,l)
);
},
{
closed = 1;
nodes = (
(754,0,l),
(1007,0,l),
(1007,1185,l),
(1208,1185,l),
(1208,1377,l),
(1007,1377,l),
(1007,1476,ls),
(1007,1596,o),
(1065,1635,o),
(1131,1635,cs),
(1165,1635,o),
(1198,1631,o),
(1225,1624,c),
(1225,1802,l),
(1179,1825,o),
(1106,1836,o),
(1057,1836,cs),
(889,1836,o),
(754,1775,o),
(754,1476,cs),
(754,1377,l),
(639,1377,l),
(639,1185,l),
(754,1185,l)
);
}
);
width = 1212;
}
);
},
{
color = 1;
glyphname = f_f_i;
lastChange = "2023-03-01 02:53:51 +0000";
layers = (
{
layerId = "043639A7-E62C-4A4F-99F5-E7AE759848D8";
shapes = (
{
closed = 1;
nodes = (
(1465,1568,cs),
(1564,1568,o),
(1623,1632,o),
(1623,1736,cs),
(1623,1847,o),
(1565,1899,o),
(1466,1899,cs),
(1371,1899,o),
(1310,1855,o),
(1310,1736,cs),
(1310,1629,o),
(1372,1568,o)
);
},
{
closed = 1;
nodes = (
(754,0,l),
(1007,0,l),
(1007,1185,l),
(1208,1185,l),
(1208,1377,l),
(1007,1377,l),
(1007,1476,ls),
(1007,1596,o),
(1065,1635,o),
(1131,1635,cs),
(1165,1635,o),
(1198,1631,o),
(1225,1624,c),
(1225,1802,l),
(1179,1825,o),
(1106,1836,o),
(1057,1836,cs),
(889,1836,o),
(754,1775,o),
(754,1476,cs),
(754,1377,l),
(639,1377,l),
(639,1185,l),
(754,1185,l)
);
},
{
closed = 1;
nodes = (
(148,0,l),
(401,0,l),
(401,1185,l),
(602,1185,l),
(602,1377,l),
(401,1377,l),
(401,1476,ls),
(401,1596,o),
(459,1635,o),
(525,1635,cs),
(559,1635,o),
(592,1631,o),
(619,1624,c),
(619,1802,l),
(573,1825,o),
(500,1836,o),
(451,1836,cs),
(283,1836,o),
(148,1775,o),
(148,1476,cs),
(148,1377,l),
(33,1377,l),
(33,1185,l),
(148,1185,l)
);
},
{
closed = 1;
nodes = (
(1341,0,l),
(1594,0,l),
(1594,1377,l),
(1341,1377,l)
);
}
);
width = 1723;
}
);
},
{
color = 1;
glyphname = fi;
lastChange = "2023-03-01 02:53:51 +0000";
layers = (
{
layerId = "043639A7-E62C-4A4F-99F5-E7AE759848D8";
shapes = (
{
closed = 1;
nodes = (
(148,0,l),
(401,0,l),
(401,1185,l),
(602,1185,l),
(602,1377,l),
(401,1377,l),
(401,1476,ls),
(401,1596,o),
(459,1635,o),
(525,1635,cs),
(555,1635,o),
(585,1631,o),
(609,1624,c),
(609,1802,l),
(566,1825,o),
(497,1836,o),
(451,1836,cs),
(283,1836,o),
(148,1775,o),
(148,1476,cs),
(148,1377,l),
(33,1377,l),
(33,1185,l),
(148,1185,l)
);
},
{
closed = 1;
nodes = (
(858,1568,cs),
(957,1568,o),
(1016,1632,o),
(1016,1736,cs),
(1016,1847,o),
(958,1899,o),
(859,1899,cs),
(764,1899,o),
(703,1855,o),
(703,1736,cs),
(703,1629,o),
(765,1568,o)
);
},
{
closed = 1;
nodes = (
(732,0,l),
(985,0,l),
(985,1377,l),
(732,1377,l)
);
}
);
width = 1117;
}
);
unicode = 64257;
},
{
color = 1;
glyphname = fl;
lastChange = "2023-03-01 02:53:51 +0000";
layers = (
{
layerId = "043639A7-E62C-4A4F-99F5-E7AE759848D8";
shapes = (
{
closed = 1;
nodes = (
(148,0,l),
(401,0,l),
(401,1185,l),
(602,1185,l),
(602,1377,l),
(401,1377,l),
(401,1476,ls),
(401,1596,o),
(459,1635,o),
(525,1635,cs),
(555,1635,o),
(585,1631,o),
(609,1624,c),
(609,1802,l),
(566,1825,o),
(497,1836,o),
(451,1836,cs),
(283,1836,o),
(148,1775,o),
(148,1476,cs),
(148,1377,l),
(33,1377,l),
(33,1185,l),
(148,1185,l)
);
},
{
closed = 1;
nodes = (
(735,0,l),
(988,0,l),
(988,1819,l),
(735,1819,l)
);
}
);
width = 1117;
}
);
unicode = 64258;
},
{
color = 1;
glyphname = clickalveolar;
lastChange = "2023-03-01 03:28:06 +0000";
layers = (
{
layerId = "043639A7-E62C-4A4F-99F5-E7AE759848D8";
shapes = (
{
closed = 1;
nodes = (
(429,-221,l),
(429,1855,l),
(170,1855,l),
(170,-221,l)
);
},
{
closed = 1;
nodes = (
(600,585,l),
(600,777,l),
(0,777,l),
(0,585,l)
);
},
{
closed = 1;
nodes = (
(600,1146,l),
(600,1338,l),
(0,1338,l),
(0,1146,l)
);
}
);
width = 600;
}
);
unicode = 450;
},
{
color = 1;
glyphname = clickdental;
lastChange = "2023-03-01 03:28:06 +0000";
layers = (
{
layerId = "043639A7-E62C-4A4F-99F5-E7AE759848D8";
shapes = (
{
closed = 1;
nodes = (
(400,-221,l),
(400,1855,l),
(141,1855,l),
(141,-221,l)
);
}
);
width = 541;
}
);
unicode = 448;
},
{
color = 1;
glyphname = clicklateral;
lastChange = "2023-03-01 03:28:06 +0000";
layers = (
{
layerId = "043639A7-E62C-4A4F-99F5-E7AE759848D8";
shapes = (
{
closed = 1;
nodes = (
(871,-221,l),
(871,1855,l),
(612,1855,l),
(612,-221,l)
);
},
{
closed = 1;
nodes = (
(400,-221,l),
(400,1855,l),
(141,1855,l),
(141,-221,l)
);
}
);
width = 1012;
}
);
metricRight = "=|";
unicode = 449;
},
{
color = 1;
glyphname = clickretroflex;
lastChange = "2023-03-01 03:28:06 +0000";
layers = (
{
layerId = "043639A7-E62C-4A4F-99F5-E7AE759848D8";
shapes = (
{
closed = 1;
nodes = (
(445,559,l),
(476,1817,l),
(203,1817,l),
(238,559,l)
);
},
{
closed = 1;
nodes = (
(440,-10,o),
(499,60,o),
(499,181,cs),
(499,313,o),
(441,377,o),
(342,377,cs),
(246,377,o),
(186,321,o),
(186,181,cs),
(186,56,o),
(247,-10,o),
(341,-10,cs)
);
}
);
width = 680;
}
);
unicode = 451;
},
{
glyphname = ordfeminine;
lastChange = "2023-03-01 05:13:04 +0000";
layers = (
{
layerId = "043639A7-E62C-4A4F-99F5-E7AE759848D8";
shapes = (
{
closed = 1;
nodes = (
(395,814,cs),
(323,814,o),
(282,869,o),
(282,949,cs),
(282,1056,o),
(366,1125,o),
(428,1150,cs),
(462,1165,o),
(471,1167,o),
(494,1175,c),
(494,852,l),
(469,831,o),
(436,814,o)
);
},
{
closed = 1;
nodes = (
(404,1761,cs),
(178,1761,o),
(85,1636,o),
(85,1514,cs),
(85,1476,o),
(88,1443,o),
(99,1392,c),
(281,1392,l),
(281,1438,ls),
(281,1557,o),
(331,1597,o),
(403,1597,cs),
(473,1597,o),
(494,1551,o),
(494,1479,cs),
(494,1320,l),
(451,1308,o),
(403,1287,o),
(378,1276,cs),
(259,1227,o),
(64,1126,o),
(64,905,cs),
(64,777,o),
(131,649,o),
(304,649,cs),
(392,649,o),
(485,692,o),
(533,740,c),
(550,668,l),
(722,668,l),
(722,1472,ls),
(722,1615,o),
(673,1761,o)
);
}
);
width = 826;
}
);
unicode = 170;
userData = {
KernOnSpecialSpacing = {
L = superiors;
R = superiors;
};
com.typemytype.robofont.guides = (
{
angle = 90;
isGlobal = 0;
magnetic = 5;
x = 70;
y = 0;
}
);
};
},
{
glyphname = ordmasculine;
lastChange = "2023-03-01 05:13:04 +0000";
layers = (
{
layerId = "043639A7-E62C-4A4F-99F5-E7AE759848D8";
shapes = (
{
closed = 1;
nodes = (
(122,1389,ls),
(122,1691,o),
(320,1761,o),
(466,1761,cs),
(611,1761,o),
(809,1690,o),
(809,1387,cs),
(809,1040,ls),
(809,737,o),
(611,666,o),
(466,666,cs),
(320,666,o),
(122,736,o),
(122,1039,cs)
);
},
{
closed = 1;
nodes = (
(343,1040,l),
(343,898,o),
(371,830,o),
(466,830,cs),
(561,830,o),
(588,899,o),
(588,1039,cs),
(588,1387,ls),
(588,1528,o),
(561,1597,o),
(466,1597,cs),
(371,1597,o),
(343,1529,o),
(343,1389,cs)
);
}
);
width = 909;
}
);
unicode = 186;
userData = {
KernOnSpecialSpacing = {
L = superiors;
R = superiors;
};
};
},
{
color = 0;
glyphname = Omega;
lastChange = "2023-03-01 03:27:59 +0000";
layers = (
{
layerId = "043639A7-E62C-4A4F-99F5-E7AE759848D8";
shapes = (
{
closed = 1;
nodes = (
(518,0,l),
(518,182,l),
(448,374,o),
(330,542,o),
(330,1085,cs),
(330,1428,o),
(438,1519,o),
(577,1519,cs),
(716,1519,o),
(823,1428,o),
(824,1085,cs),
(825,559,o),
(703,375,o),
(632,182,c),
(632,0,l),
(1127,0,l),
(1127,190,l),
(814,190,l),
(965,426,o),
(1072,696,o),
(1072,1085,cs),
(1072,1555,o),
(807,1717,o),
(575,1717,cs),
(360,1717,o),
(81,1555,o),
(81,1085,cs),
(81,697,o),
(187,426,o),
(341,190,c),
(24,190,l),
(24,0,l)
);
}
);
width = 1151;
}
);
metricLeft = T;
metricRight = T;
unicode = 937;
},
{
color = 1;
glyphname = pi;
lastChange = "2023-03-01 05:05:31 +0000";
layers = (
{
layerId = "043639A7-E62C-4A4F-99F5-E7AE759848D8";
shapes = (
{
closed = 1;
nodes = (
(1019,-6,o),
(1100,34,o),
(1122,75,c),
(1122,229,l),
(1077,194,o),
(1019,194,o),
(972,194,cs),
(929,194,o),
(884,215,o),
(884,459,cs),
(884,774,o),
(882,1120,o),
(882,1209,c),
(1060,1209,l),
(1060,1377,l),
(79,1377,l),
(79,1209,l),
(237,1209,l),
(152,1,l),
(363,1,l),
(444,1209,l),
(674,1209,l),
(674,316,ls),
(674,125,o),
(725,-6,o),
(958,-6,cs)
);
}
);
width = 1200;
}
);
unicode = 960;
},
{
glyphname = zero;
lastChange = "2023-03-01 05:13:41 +0000";
layers = (
{
layerId = "043639A7-E62C-4A4F-99F5-E7AE759848D8";
shapes = (
{
closed = 1;
nodes = (
(677,-15,o),
(947,50,o),
(947,498,cs),
(947,1220,ls),
(947,1678,o),
(681,1723,o),
(531,1723,cs),
(375,1723,o),
(110,1670,o),
(110,1220,cs),
(110,498,l),
(110,49,o),
(369,-15,o),
(531,-15,cs)
);
},
{
closed = 1;
nodes = (
(426,187,o),
(375,248,o),
(375,389,cs),
(375,1314,ls),
(375,1462,o),
(426,1528,o),
(531,1528,cs),
(633,1528,o),
(684,1462,o),
(684,1314,cs),
(684,389,ls),
(684,248,o),
(633,187,o),
(531,187,cs)
);
}
);
width = 1057;
}
);
unicode = 48;
userData = {
KernOnName = zero;
};
},
{
glyphname = one;
lastChange = "2023-03-01 05:13:04 +0000";
layers = (
{
layerId = "043639A7-E62C-4A4F-99F5-E7AE759848D8";
shapes = (
{
closed = 1;
nodes = (
(802,0,l),
(802,195,l),
(605,195,l),
(605,1707,l),
(604,1706,l),
(605,1708,l),
(412,1708,l),
(24,1304,l),
(136,1173,l),
(348,1360,l),
(348,195,l),
(150,195,l),
(150,0,l)
);
}
);
width = 826;
}
);
unicode = 49;
userData = {
KernOnName = one;
};
},
{
glyphname = two;
lastChange = "2023-03-01 05:13:04 +0000";
layers = (
{
layerId = "043639A7-E62C-4A4F-99F5-E7AE759848D8";
shapes = (
{
closed = 1;
nodes = (
(893,0,l),
(893,204,l),
(394,204,l),
(731,844,ls),
(853,1078,o),
(895,1197,o),
(895,1336,cs),
(895,1580,o),
(773,1723,o),
(475,1723,cs),
(198,1723,o),
(81,1534,o),
(81,1361,cs),
(81,1288,o),
(94,1231,o),
(108,1157,c),
(308,1157,l),
(308,1239,ls),
(308,1419,o),
(368,1520,o),
(475,1520,cs),
(572,1520,o),
(622,1457,o),
(622,1336,cs),
(622,1247,o),
(607,1136,o),
(474,878,cs),
(97,152,l),
(97,0,l)
);
}
);
width = 982;
}
);
unicode = 50;
userData = {
KernOnName = two;
};
},
{
glyphname = three;
lastChange = "2023-03-01 05:13:04 +0000";
layers = (
{
layerId = "043639A7-E62C-4A4F-99F5-E7AE759848D8";
shapes = (
{
closed = 1;
nodes = (
(727,-15,o),
(922,93,o),
(922,408,cs),
(922,521,ls),
(922,745,o),
(820,840,o),
(687,885,c),
(687,893,l),
(790,942,o),
(897,1046,o),
(897,1240,cs),
(897,1345,l),
(897,1586,o),
(777,1723,o),
(486,1723,cs),
(217,1723,o),
(91,1534,o),
(91,1361,cs),
(91,1288,o),
(104,1223,o),
(118,1157,c),
(318,1157,l),
(318,1239,ls),
(318,1419,o),
(379,1520,o),
(486,1520,cs),
(583,1520,o),
(630,1462,o),
(630,1336,cs),
(630,1172,ls),
(630,1031,o),
(565,977,o),
(479,977,cs),
(370,977,l),
(370,792,l),
(479,792,ls),
(612,792,o),
(655,712,o),
(655,567,cs),
(655,385,ls),
(655,241,o),
(596,187,o),
(497,187,cs),
(397,187,o),
(322,256,o),
(322,469,cs),
(322,549,l),
(120,549,l),
(103,476,o),
(95,405,o),
(95,348,cs),
(95,118,o),
(236,-15,o),
(497,-15,cs)
);
}
);
width = 1025;
}
);
unicode = 51;
userData = {
KernOnName = three;
com.typemytype.robofont.guides = (
{
angle = 90;
isGlobal = 0;
magnetic = 5;
x = 96;
y = 0;
},
{
angle = 90;
isGlobal = 0;
magnetic = 5;
x = 890;
y = 0;
}
);
};
},
{
glyphname = four;
lastChange = "2023-03-01 03:27:51 +0000";
layers = (
{
layerId = "043639A7-E62C-4A4F-99F5-E7AE759848D8";
shapes = (
{
closed = 1;
nodes = (
(883,0,l),
(883,306,l),
(1041,306,l),
(1041,509,l),
(883,509,l),
(883,1708,l),
(574,1708,l),
(76,442,l),
(76,306,l),
(642,306,l),
(642,0,l)
);
},
{
closed = 1;
nodes = (
(636,1335,l),
(668,1335,l),
(642,761,l),
(642,509,l),
(340,509,l)
);
}
);
width = 1090;
}
);
unicode = 52;
userData = {
com.typemytype.robofont.guides = (
{
angle = 90;
isGlobal = 0;
magnetic = 5;
x = 633;
y = 0;
}
);
};
},
{
glyphname = five;
lastChange = "2023-03-01 03:27:51 +0000";
layers = (
{
layerId = "043639A7-E62C-4A4F-99F5-E7AE759848D8";
shapes = (
{
closed = 1;
nodes = (
(721,-15,o),
(917,96,o),
(917,447,cs),
(917,737,ls),
(917,1014,o),
(822,1159,o),
(610,1159,cs),
(518,1159,o),
(428,1120,o),
(372,1057,c),
(372,1479,l),
(890,1479,l),
(890,1708,l),
(156,1708,l),
(156,836,l),
(347,836,l),
(382,895,o),
(434,943,o),
(509,943,cs),
(588,943,o),
(650,909,o),
(650,739,cs),
(650,415,ls),
(650,268,o),
(609,186,o),
(500,186,cs),
(393,186,o),
(348,253,o),
(348,415,cs),
(348,549,l),
(146,549,l),
(129,476,o),
(121,413,o),
(121,351,cs),
(121,127,o),
(258,-15,o),
(512,-15,cs)
);
}
);
width = 1020;
}
);
unicode = 53;
userData = {
com.typemytype.robofont.guides = (
{
angle = 90;
isGlobal = 0;
magnetic = 5;
x = 907;
y = 0;
}
);
};
},
{
glyphname = six;
lastChange = "2023-03-01 03:27:51 +0000";
layers = (
{
layerId = "043639A7-E62C-4A4F-99F5-E7AE759848D8";
shapes = (
{
closed = 1;
nodes = (
(784,-15,o),
(942,115,o),
(942,479,cs),
(942,645,l),
(942,983,o),
(759,1067,o),
(604,1067,cs),
(428,1067,o),
(328,947,o),
(304,859,c),
(342,738,l),
(368,791,o),
(434,873,o),
(530,873,cs),
(623,873,o),
(678,819,o),
(678,654,cs),
(678,407,ls),
(678,261,o),
(636,187,o),
(534,187,cs),
(417,187,o),
(368,251,o),
(368,407,cs),
(368,1302,ls),
(368,1474,o),
(422,1528,o),
(529,1528,cs),
(647,1528,o),
(696,1479,o),
(696,1264,cs),
(696,1227,l),
(896,1227,l),
(914,1282,o),
(923,1341,o),
(923,1388,cs),
(923,1546,o),
(812,1723,o),
(529,1723,cs),
(374,1723,o),
(103,1682,o),
(103,1209,cs),
(103,507,l),
(103,126,o),
(258,-15,o),
(537,-15,cs)
);
}
);
width = 1040;
}
);
unicode = 54;
userData = {
com.typemytype.robofont.guides = (
{
angle = 90;
isGlobal = 0;
magnetic = 5;
x = 953;
y = 0;
}
);
};
},
{
glyphname = seven;
lastChange = "2023-03-01 03:27:51 +0000";
layers = (
{
layerId = "043639A7-E62C-4A4F-99F5-E7AE759848D8";
shapes = (
{
closed = 1;
nodes = (
(346,0,l),
(816,1572,l),
(816,1709,l),
(36,1709,l),
(36,1480,l),
(538,1480,l),
(65,0,l)
);
}
);
width = 838;
}
);
unicode = 55;
userData = {
com.typemytype.robofont.guides = (
{
angle = 90;
isGlobal = 0;
magnetic = 5;
x = 55;
y = 0;
},
{
angle = 90;
isGlobal = 0;
magnetic = 5;
x = 792;
y = 0;
}
);
};
},
{
glyphname = eight;
lastChange = "2023-03-01 03:27:51 +0000";
layers = (
{
layerId = "043639A7-E62C-4A4F-99F5-E7AE759848D8";
shapes = (
{
closed = 1;
nodes = (
(723,-15,o),
(953,63,o),
(953,415,cs),
(953,520,ls),
(953,721,o),
(863,825,o),
(741,885,c),
(741,893,l),
(830,940,o),
(929,1035,o),
(929,1220,cs),
(929,1340,ls),
(929,1674,o),
(671,1723,o),
(517,1723,cs),
(364,1723,o),
(106,1673,o),
(106,1339,cs),
(106,1219,ls),
(106,1034,o),
(205,939,o),
(294,892,c),
(294,884,l),
(173,824,o),
(82,720,o),
(82,519,cs),
(82,414,l),
(82,62,o),
(309,-15,o),
(516,-15,cs)
);
},
{
closed = 1;
nodes = (
(428,187,o),
(348,226,o),
(348,400,cs),
(348,581,ls),
(348,726,o),
(407,791,o),
(504,791,cs),
(529,791,ls),
(626,791,o),
(687,731,o),
(687,582,cs),
(687,401,ls),
(687,227,o),
(604,187,o),
(516,187,cs)
);
},
{
closed = 1;
nodes = (
(420,976,o),
(370,1026,o),
(370,1177,cs),
(370,1302,ls),
(370,1443,o),
(410,1520,o),
(517,1520,cs),
(624,1520,o),
(666,1444,o),
(666,1304,cs),
(666,1178,ls),
(666,1021,o),
(607,976,o),
(529,976,cs),
(505,976,l)
);
}
);
width = 1032;
}
);
unicode = 56;
userData = {
com.typemytype.robofont.guides = (
{
angle = 90;
isGlobal = 0;
magnetic = 5;
x = 104;
y = 0;
}
);
};
},
{
color = 1;
glyphname = zero.tf;
lastChange = "2023-03-01 05:13:04 +0000";
layers = (
{
layerId = "043639A7-E62C-4A4F-99F5-E7AE759848D8";
shapes = (
{
closed = 1;
nodes = (
(103,498,l),
(103,49,o),
(362,-15,o),
(524,-15,cs),
(670,-15,o),
(940,50,o),
(940,498,cs),
(940,1220,ls),
(940,1678,o),
(674,1723,o),
(524,1723,cs),
(368,1723,o),
(103,1670,o),
(103,1220,cs)
);
},
{
closed = 1;
nodes = (
(368,389,cs),
(368,1314,ls),
(368,1462,o),
(419,1528,o),
(524,1528,cs),
(626,1528,o),
(677,1462,o),
(677,1314,cs),
(677,389,ls),
(677,248,o),
(626,187,o),
(524,187,cs),
(419,187,o),
(368,248,o)
);
}
);
width = 1043;
}
);
userData = {
KernOnSpecialSpacing = {
L = NoKerning;
R = NoKerning;
};
};
},
{
color = 1;
glyphname = one.tf;
lastChange = "2023-03-01 05:13:04 +0000";
layers = (
{
layerId = "043639A7-E62C-4A4F-99F5-E7AE759848D8";
shapes = (
{
closed = 1;
nodes = (
(197,0,l),
(939,0,l),
(939,195,l),
(702,195,l),
(702,1707,l),
(701,1706,l),
(702,1708,l),
(509,1708,l),
(81,1334,l),
(193,1203,l),
(445,1360,l),
(445,195,l),
(197,195,l)
);
}
);
width = 1043;
}
);
userData = {
KernOnSpecialSpacing = {
L = NoKerning;
R = NoKerning;
};
};
},
{
color = 1;
glyphname = two.tf;
lastChange = "2023-03-01 05:13:04 +0000";
layers = (
{
layerId = "043639A7-E62C-4A4F-99F5-E7AE759848D8";
shapes = (
{
closed = 1;
nodes = (
(138,0,l),
(934,0,l),
(934,204,l),
(435,204,l),
(772,844,ls),
(894,1078,o),
(936,1197,o),
(936,1336,cs),
(936,1580,o),
(814,1723,o),
(516,1723,cs),
(239,1723,o),
(122,1534,o),
(122,1361,cs),
(122,1288,o),
(135,1231,o),
(149,1157,c),
(349,1157,l),
(349,1239,ls),
(349,1419,o),
(409,1520,o),
(516,1520,cs),
(613,1520,o),
(663,1457,o),
(663,1336,cs),
(663,1247,o),
(648,1136,o),
(515,878,cs),
(138,152,l)
);
}
);
width = 1043;
}
);
userData = {
KernOnSpecialSpacing = {
L = NoKerning;
R = NoKerning;
};
};
},
{
color = 1;
glyphname = three.tf;
lastChange = "2023-03-01 05:13:04 +0000";
layers = (
{
layerId = "043639A7-E62C-4A4F-99F5-E7AE759848D8";
shapes = (
{
closed = 1;
nodes = (
(113,348,cs),
(113,118,o),
(254,-15,o),
(515,-15,cs),
(745,-15,o),
(940,93,o),
(940,408,cs),
(940,521,ls),
(940,745,o),
(838,840,o),
(705,885,c),
(705,893,l),
(808,942,o),
(915,1046,o),
(915,1240,cs),
(915,1345,l),
(915,1586,o),
(795,1723,o),
(504,1723,cs),
(235,1723,o),
(109,1534,o),
(109,1361,cs),
(109,1288,o),
(122,1223,o),
(136,1157,c),
(336,1157,l),
(336,1239,ls),
(336,1419,o),
(397,1520,o),
(504,1520,cs),
(601,1520,o),
(648,1462,o),
(648,1336,cs),
(648,1172,ls),
(648,1031,o),
(583,977,o),
(497,977,cs),
(388,977,l),
(388,792,l),
(497,792,ls),
(630,792,o),
(673,712,o),
(673,567,cs),
(673,385,ls),
(673,241,o),
(614,187,o),
(515,187,cs),
(415,187,o),
(340,256,o),
(340,469,cs),
(340,549,l),
(138,549,l),
(121,476,o),
(113,405,o)
);
}
);
width = 1043;
}
);
userData = {
KernOnSpecialSpacing = {
L = NoKerning;
R = NoKerning;
};
};
},
{
color = 1;
glyphname = four.tf;
lastChange = "2023-03-01 05:13:04 +0000";
layers = (
{
layerId = "043639A7-E62C-4A4F-99F5-E7AE759848D8";
shapes = (
{
closed = 1;
nodes = (
(50,306,l),
(612,306,l),
(612,0,l),
(843,0,l),
(843,306,l),
(1001,306,l),
(1001,509,l),
(843,509,l),
(843,1708,l),
(544,1708,l),
(50,442,l)
);
},
{
closed = 1;
nodes = (
(310,509,l),
(606,1335,l),
(638,1335,l),
(612,761,l),
(612,509,l)
);
}
);
width = 1043;
}
);
userData = {
KernOnSpecialSpacing = {
L = NoKerning;
R = NoKerning;
};
};
},
{
color = 1;
glyphname = five.tf;
lastChange = "2023-03-01 05:13:04 +0000";
layers = (
{
layerId = "043639A7-E62C-4A4F-99F5-E7AE759848D8";
shapes = (
{
closed = 1;
nodes = (
(129,351,cs),
(129,127,o),
(266,-15,o),
(520,-15,cs),
(729,-15,o),
(925,96,o),
(925,447,cs),
(925,737,ls),
(925,1014,o),
(830,1159,o),
(618,1159,cs),
(526,1159,o),
(436,1120,o),
(380,1057,c),
(380,1479,l),
(898,1479,l),
(898,1708,l),
(164,1708,l),
(164,836,l),
(355,836,l),
(390,895,o),
(442,943,o),
(517,943,cs),
(596,943,o),
(658,909,o),
(658,739,cs),
(658,415,ls),
(658,268,o),
(617,186,o),
(508,186,cs),
(401,186,o),
(356,253,o),
(356,415,cs),
(356,549,l),
(154,549,l),
(137,476,o),
(129,413,o)
);
}
);
width = 1043;
}
);
userData = {
KernOnSpecialSpacing = {
L = NoKerning;
R = NoKerning;
};
};
},
{
color = 1;
glyphname = six.tf;
lastChange = "2023-03-01 05:13:04 +0000";
layers = (
{
layerId = "043639A7-E62C-4A4F-99F5-E7AE759848D8";
shapes = (
{
closed = 1;
nodes = (
(103,507,l),
(103,126,o),
(258,-15,o),
(537,-15,cs),
(784,-15,o),
(942,115,o),
(942,479,cs),
(942,645,l),
(942,983,o),
(759,1067,o),
(604,1067,cs),
(428,1067,o),
(328,947,o),
(304,859,c),
(342,738,l),
(368,791,o),
(434,873,o),
(530,873,cs),
(623,873,o),
(678,819,o),
(678,654,cs),
(678,407,ls),
(678,261,o),
(636,187,o),
(534,187,cs),
(417,187,o),
(368,251,o),
(368,407,cs),
(368,1302,ls),
(368,1474,o),
(422,1528,o),
(529,1528,cs),
(647,1528,o),
(696,1479,o),
(696,1264,cs),
(696,1227,l),
(896,1227,l),
(914,1282,o),
(923,1341,o),
(923,1388,cs),
(923,1546,o),
(812,1723,o),
(529,1723,cs),
(374,1723,o),
(103,1682,o),
(103,1209,cs)
);
}
);
width = 1043;
}
);
userData = {
KernOnSpecialSpacing = {
L = NoKerning;
R = NoKerning;
};
};
},
{
color = 1;
glyphname = seven.tf;
lastChange = "2023-03-01 05:13:04 +0000";
layers = (
{
layerId = "043639A7-E62C-4A4F-99F5-E7AE759848D8";
shapes = (
{
closed = 1;
nodes = (
(183,0,l),
(464,0,l),
(954,1572,l),
(954,1709,l),
(124,1709,l),
(124,1480,l),
(676,1480,l)
);
}
);
width = 1043;
}
);
userData = {
KernOnSpecialSpacing = {
L = NoKerning;
R = NoKerning;
};
};
},
{
color = 1;
glyphname = eight.tf;
lastChange = "2023-03-01 05:13:04 +0000";
layers = (
{
layerId = "043639A7-E62C-4A4F-99F5-E7AE759848D8";
shapes = (
{
closed = 1;
nodes = (
(509,976,l),
(424,976,o),
(374,1026,o),
(374,1177,cs),
(374,1302,ls),
(374,1443,o),
(414,1520,o),
(521,1520,cs),
(628,1520,o),
(670,1444,o),
(670,1304,cs),
(670,1178,ls),
(670,1021,o),
(611,976,o),
(533,976,cs)
);
},
{
closed = 1;
nodes = (
(352,400,cs),
(352,581,ls),
(352,726,o),
(411,791,o),
(508,791,cs),
(533,791,ls),
(630,791,o),
(691,731,o),
(691,582,cs),
(691,401,ls),
(691,227,o),
(608,187,o),
(520,187,cs),
(432,187,o),
(352,226,o)
);
},
{
closed = 1;
nodes = (
(86,414,l),
(86,62,o),
(313,-15,o),
(520,-15,cs),
(727,-15,o),
(957,63,o),
(957,415,cs),
(957,520,ls),
(957,721,o),
(867,825,o),
(745,885,c),
(745,893,l),
(834,940,o),
(933,1035,o),
(933,1220,cs),
(933,1340,ls),
(933,1674,o),
(675,1723,o),
(521,1723,cs),
(368,1723,o),
(110,1673,o),
(110,1339,cs),
(110,1219,ls),
(110,1034,o),
(209,939,o),
(298,892,c),
(298,884,l),
(177,824,o),
(86,720,o),
(86,519,cs)
);
}
);
width = 1043;
}
);
userData = {
KernOnSpecialSpacing = {
L = NoKerning;
R = NoKerning;
};
};
},
{
color = 1;
glyphname = nine.tf;
lastChange = "2023-03-01 05:13:04 +0000";
layers = (
{
layerId = "043639A7-E62C-4A4F-99F5-E7AE759848D8";
shapes = (
{
closed = 1;
nodes = (
(939,1201,l),
(939,1582,o),
(784,1723,o),
(505,1723,cs),
(258,1723,o),
(100,1593,o),
(100,1229,cs),
(100,1063,l),
(100,725,o),
(283,641,o),
(438,641,cs),
(614,641,o),
(714,761,o),
(738,849,c),
(700,970,l),
(674,917,o),
(608,835,o),
(512,835,cs),
(419,835,o),
(364,889,o),
(364,1054,cs),
(364,1301,ls),
(364,1447,o),
(406,1521,o),
(508,1521,cs),
(625,1521,o),
(674,1457,o),
(674,1301,cs),
(674,406,ls),
(674,234,o),
(620,180,o),
(513,180,cs),
(395,180,o),
(346,229,o),
(346,444,cs),
(346,481,l),
(146,481,l),
(128,426,o),
(119,367,o),
(119,320,cs),
(119,162,o),
(230,-15,o),
(513,-15,cs),
(668,-15,o),
(939,26,o),
(939,499,cs)
);
}
);
width = 1043;
}
);
userData = {
KernOnSpecialSpacing = {
L = NoKerning;
R = NoKerning;
};
};
},
{
color = 1;
glyphname = zero.dnom;
lastChange = "2023-03-01 03:25:01 +0000";
layers = (
{
layerId = "043639A7-E62C-4A4F-99F5-E7AE759848D8";
shapes = (
{
closed = 1;
nodes = (
(145,344,l),
(145,30,o),
(378,-15,o),
(524,-15,cs),
(655,-15,o),
(898,31,o),
(898,344,cs),
(898,850,ls),
(898,1170,o),
(659,1202,o),
(524,1202,cs),
(383,1202,o),
(145,1165,o),
(145,850,cs)
);
},
{
closed = 1;
nodes = (
(383,308,cs),
(383,871,ls),
(383,975,o),
(429,1021,o),
(524,1021,cs),
(616,1021,o),
(661,975,o),
(661,871,cs),
(661,308,ls),
(661,209,o),
(616,166,o),
(524,166,cs),
(429,166,o),
(383,209,o)
);
}
);
width = 1043;
}
);
},
{
color = 1;
glyphname = one.dnom;
lastChange = "2023-03-01 03:25:01 +0000";
layers = (
{
layerId = "043639A7-E62C-4A4F-99F5-E7AE759848D8";
shapes = (
{
closed = 1;
nodes = (
(147,0,l),
(779,0,l),
(779,180,l),
(582,180,l),
(582,1186,l),
(582,1187,l),
(409,1187,l),
(51,888,l),
(133,737,l),
(345,854,l),
(345,180,l),
(147,180,l)
);
}
);
width = 839;
}
);
},
{
color = 1;
glyphname = two.dnom;
lastChange = "2023-03-01 03:25:01 +0000";
layers = (
{
layerId = "043639A7-E62C-4A4F-99F5-E7AE759848D8";
shapes = (
{
closed = 1;
nodes = (
(136,0,l),
(853,0,l),
(853,180,l),
(433,180,l),
(707,591,ls),
(816,754,o),
(854,838,o),
(854,935,cs),
(854,1106,o),
(745,1206,o),
(476,1206,cs),
(227,1206,o),
(122,1074,o),
(122,953,cs),
(122,862,o),
(133,822,o),
(146,770,c),
(326,770,l),
(326,827,ls),
(326,953,o),
(380,1025,o),
(476,1025,cs),
(564,1025,o),
(609,980,o),
(609,895,cs),
(609,833,o),
(595,795,o),
(475,615,cs),
(136,106,l)
);
}
);
width = 982;
}
);
},
{
color = 1;
glyphname = three.dnom;
lastChange = "2023-03-01 03:25:01 +0000";
layers = (
{
layerId = "043639A7-E62C-4A4F-99F5-E7AE759848D8";
shapes = (
{
closed = 1;
nodes = (
(136,239,cs),
(136,78,o),
(263,-15,o),
(498,-15,cs),
(705,-15,o),
(880,61,o),
(880,281,cs),
(880,360,ls),
(880,517,o),
(789,584,o),
(669,615,c),
(669,621,l),
(762,655,o),
(858,728,o),
(858,864,cs),
(858,937,l),
(858,1106,o),
(750,1202,o),
(488,1202,cs),
(246,1202,o),
(133,1069,o),
(133,948,cs),
(133,897,o),
(144,852,o),
(157,805,c),
(337,805,l),
(337,863,ls),
(337,950,o),
(392,1021,o),
(488,1021,cs),
(575,1021,o),
(618,980,o),
(618,931,cs),
(618,816,ls),
(618,717,o),
(559,679,o),
(482,679,cs),
(384,679,l),
(384,520,l),
(482,520,ls),
(601,520,o),
(640,464,o),
(640,362,cs),
(640,265,ls),
(640,204,o),
(587,166,o),
(498,166,cs),
(408,166,o),
(340,215,o),
(340,324,cs),
(340,380,l),
(159,380,l),
(143,329,o),
(136,279,o)
);
}
);
width = 1025;
}
);
},
{
color = 1;
glyphname = four.dnom;
lastChange = "2023-03-01 03:25:01 +0000";
layers = (
{
layerId = "043639A7-E62C-4A4F-99F5-E7AE759848D8";
shapes = (
{
closed = 1;
nodes = (
(94,176,l),
(604,176,l),
(604,0,l),
(821,0,l),
(821,176,l),
(963,176,l),
(963,356,l),
(821,356,l),
(821,1189,l),
(542,1189,l),
(94,309,l)
);
},
{
closed = 1;
nodes = (
(332,356,l),
(598,928,l),
(627,928,l),
(604,533,l),
(604,356,l)
);
}
);
width = 1060;
}
);
},
{
color = 1;
glyphname = five.dnom;
lastChange = "2023-03-01 03:25:01 +0000";
layers = (
{
layerId = "043639A7-E62C-4A4F-99F5-E7AE759848D8";
shapes = (
{
closed = 1;
nodes = (
(161,241,cs),
(161,84,o),
(284,-15,o),
(513,-15,cs),
(701,-15,o),
(877,63,o),
(877,308,cs),
(877,481,ls),
(877,675,o),
(792,777,o),
(601,777,cs),
(518,777,o),
(437,750,o),
(387,705,c),
(387,989,l),
(853,989,l),
(853,1189,l),
(192,1189,l),
(192,521,l),
(364,521,l),
(396,562,o),
(443,596,o),
(510,596,cs),
(581,596,o),
(637,572,o),
(637,453,cs),
(637,286,ls),
(637,223,o),
(600,166,o),
(502,166,cs),
(406,166,o),
(365,213,o),
(365,286,cs),
(365,380,l),
(183,380,l),
(168,329,o),
(161,285,o)
);
}
);
width = 1020;
}
);
},
{
color = 1;
glyphname = six.dnom;
lastChange = "2023-03-01 03:25:01 +0000";
layers = (
{
layerId = "043639A7-E62C-4A4F-99F5-E7AE759848D8";
shapes = (
{
closed = 1;
nodes = (
(145,350,l),
(145,84,o),
(284,-15,o),
(536,-15,cs),
(758,-15,o),
(900,76,o),
(900,331,cs),
(900,447,l),
(900,684,o),
(735,742,o),
(596,742,cs),
(437,742,o),
(347,658,o),
(326,597,c),
(360,512,l),
(383,549,o),
(443,607,o),
(529,607,cs),
(613,607,o),
(662,569,o),
(662,453,cs),
(662,320,ls),
(662,218,o),
(625,166,o),
(533,166,cs),
(428,166,o),
(383,211,o),
(383,320,cs),
(383,907,ls),
(383,987,o),
(432,1025,o),
(528,1025,cs),
(635,1025,o),
(679,991,o),
(679,880,cs),
(679,854,l),
(859,854,l),
(875,893,o),
(883,934,o),
(883,967,cs),
(883,1078,o),
(783,1202,o),
(528,1202,cs),
(389,1202,o),
(145,1173,o),
(145,842,cs)
);
}
);
width = 1040;
}
);
},
{
color = 1;
glyphname = seven.dnom;
lastChange = "2023-03-01 03:25:01 +0000";
layers = (
{
layerId = "043639A7-E62C-4A4F-99F5-E7AE759848D8";
shapes = (
{
closed = 1;
nodes = (
(101,0,l),
(354,0,l),
(777,1093,l),
(777,1189,l),
(75,1189,l),
(75,979,l),
(507,979,l)
);
}
);
width = 838;
}
);
},
{
color = 1;
glyphname = eight.dnom;
lastChange = "2023-03-01 03:25:01 +0000";
layers = (
{
layerId = "043639A7-E62C-4A4F-99F5-E7AE759848D8";
shapes = (
{
closed = 1;
nodes = (
(506,679,l),
(430,679,o),
(385,714,o),
(385,819,cs),
(385,868,ls),
(385,967,o),
(421,1021,o),
(517,1021,cs),
(613,1021,o),
(651,967,o),
(651,869,cs),
(651,820,ls),
(651,710,o),
(598,679,o),
(528,679,cs)
);
},
{
closed = 1;
nodes = (
(365,316,cs),
(365,402,ls),
(365,504,o),
(418,549,o),
(505,549,cs),
(528,549,ls),
(615,549,o),
(670,507,o),
(670,403,cs),
(670,316,ls),
(670,194,o),
(595,166,o),
(516,166,cs),
(437,166,o),
(365,194,o)
);
},
{
closed = 1;
nodes = (
(126,285,l),
(126,39,o),
(330,-15,o),
(516,-15,cs),
(702,-15,o),
(909,40,o),
(909,286,cs),
(909,360,ls),
(909,500,o),
(828,573,o),
(719,615,c),
(719,621,l),
(799,654,o),
(888,720,o),
(888,850,cs),
(888,934,ls),
(888,1167,o),
(656,1202,o),
(517,1202,cs),
(379,1202,o),
(147,1167,o),
(147,933,cs),
(147,849,ls),
(147,719,o),
(236,653,o),
(316,620,c),
(316,614,l),
(207,572,o),
(126,500,o),
(126,359,cs)
);
}
);
width = 1032;
}
);
},
{
color = 1;
glyphname = nine.dnom;
lastChange = "2023-03-01 04:47:36 +0000";
layers = (
{
layerId = "043639A7-E62C-4A4F-99F5-E7AE759848D8";
shapes = (
{
closed = 1;
nodes = (
(895,836,l),
(895,1103,o),
(756,1202,o),
(504,1202,cs),
(282,1202,o),
(140,1111,o),
(140,856,cs),
(140,740,l),
(140,503,o),
(305,444,o),
(444,444,cs),
(603,444,o),
(693,528,o),
(714,590,c),
(680,705,l),
(657,667,o),
(597,610,o),
(511,610,cs),
(427,610,o),
(378,648,o),
(378,763,cs),
(378,866,ls),
(378,968,o),
(415,1020,o),
(507,1020,cs),
(612,1020,o),
(657,975,o),
(657,866,cs),
(657,320,ls),
(657,199,o),
(608,162,o),
(512,162,cs),
(405,162,o),
(361,196,o),
(361,306,cs),
(361,332,l),
(181,332,l),
(165,294,o),
(157,252,o),
(157,220,cs),
(157,109,o),
(257,-15,o),
(512,-15,cs),
(651,-15,o),
(895,14,o),
(895,345,cs)
);
}
);
width = 1040;
}
);
},
{
glyphname = fraction;
lastChange = "2023-03-01 05:13:04 +0000";
layers = (
{
layerId = "043639A7-E62C-4A4F-99F5-E7AE759848D8";
shapes = (
{
closed = 1;
nodes = (
(-99,0,l),
(83,0,l),
(542,1709,l),
(360,1709,l)
);
}
);
width = 442;
}
);
unicode = 8260;
userData = {
KernOnSpecialSpacing = {
L = fraction;
R = fraction;
};
};
},
{
glyphname = .notdef;
lastChange = "2017-07-28 05:08:00 +0000";
layers = (
{
layerId = "043639A7-E62C-4A4F-99F5-E7AE759848D8";
shapes = (
{
closed = 1;
nodes = (
(100,0,l),
(1216,0,l),
(1216,1943,l),
(100,1943,l)
);
},
{
closed = 1;
nodes = (
(291,399,l),
(555,945,l),
(291,1481,l),
(527,1481,l),
(611,1276,l),
(656,1138,l),
(703,1276,l),
(788,1481,l),
(1024,1481,l),
(759,944,l),
(1024,399,l),
(800,399,l),
(713,602,l),
(658,760,l),
(602,602,l),
(515,399,l)
);
}
);
width = 1316;
}
);
},
{
glyphname = period;
lastChange = "2023-03-01 05:13:04 +0000";
layers = (
{
layerId = "043639A7-E62C-4A4F-99F5-E7AE759848D8";
shapes = (
{
closed = 1;
nodes = (
(340,-14,o),
(399,57,o),
(399,179,cs),
(399,312,o),
(341,377,o),
(242,377,cs),
(146,377,o),
(86,320,o),
(86,179,cs),
(86,53,o),
(147,-14,o),
(241,-14,cs)
);
}
);
width = 491;
}
);
unicode = 46;
userData = {
KernOnName = period;
KernOnSpecialSpacing = {
L = period;
R = period;
};
};
},
{
glyphname = comma;
lastChange = "2023-03-01 05:13:04 +0000";
layers = (
{
layerId = "043639A7-E62C-4A4F-99F5-E7AE759848D8";
shapes = (
{
closed = 1;
nodes = (
(261,-327,l),
(407,350,l),
(150,350,l),
(50,-327,l)
);
}
);
width = 502;
}
);
unicode = 44;
userData = {
KernOnSpecialSpacing = {
L = period;
R = period;
};
com.typemytype.robofont.guides = (
{
angle = 0;
isGlobal = 0;
magnetic = 5;
x = 0;
y = 21;
}
);
};
},
{
glyphname = exclam;
lastChange = "2023-03-01 05:13:04 +0000";
layers = (
{
layerId = "043639A7-E62C-4A4F-99F5-E7AE759848D8";
shapes = (
{
closed = 1;
nodes = (
(445,555,l),
(476,1813,l),
(203,1813,l),
(238,555,l)
);
},
{
closed = 1;
nodes = (
(440,-14,o),
(499,56,o),
(499,177,cs),
(499,309,o),
(441,373,o),
(342,373,cs),
(246,373,o),
(186,317,o),
(186,177,cs),
(186,52,o),
(247,-14,o),
(341,-14,cs)
);
}
);
width = 680;
}
);
unicode = 33;
userData = {
KernOnSpecialSpacing = {
L = "spaced-off";
};
com.typemytype.robofont.guides = (
{
angle = 0;
isGlobal = 0;
magnetic = 5;
x = 0;
y = 1828;
},
{
angle = 0;
isGlobal = 0;
magnetic = 5;
x = 0;
y = 1792;
}
);
};
},
{
glyphname = question;
lastChange = "2023-03-01 05:13:04 +0000";
layers = (
{
layerId = "043639A7-E62C-4A4F-99F5-E7AE759848D8";
shapes = (
{
closed = 1;
nodes = (
(607,557,l),
(607,701,ls),
(607,813,o),
(619,849,o),
(695,952,cs),
(775,1060,ls),
(878,1200,o),
(918,1307,o),
(918,1439,cs),
(918,1674,o),
(781,1827,o),
(505,1827,cs),
(228,1827,o),
(107,1667,o),
(107,1465,cs),
(107,1392,o),
(120,1335,o),
(134,1261,c),
(338,1261,l),
(338,1343,ls),
(338,1523,o),
(388,1623,o),
(495,1623,cs),
(592,1623,o),
(652,1548,o),
(652,1439,cs),
(652,1365,o),
(621,1271,o),
(570,1189,cs),
(452,1003,ls),
(394,910,o),
(387,866,o),
(387,760,cs),
(386,557,l)
);
},
{
closed = 1;
nodes = (
(609,-14,o),
(668,56,o),
(668,177,cs),
(668,309,o),
(610,373,o),
(511,373,cs),
(415,373,o),
(355,317,o),
(355,177,cs),
(355,52,o),
(416,-14,o),
(510,-14,cs)
);
}
);
width = 1016;
}
);
unicode = 63;
userData = {
KernOnSpecialSpacing = {
L = "spaced-off";
};
};
},
{
glyphname = bullet;
lastChange = "2023-03-01 05:13:04 +0000";
layers = (
{
layerId = "043639A7-E62C-4A4F-99F5-E7AE759848D8";
shapes = (
{
closed = 1;
nodes = (
(497,532,o),
(572,652,o),
(572,764,cs),
(572,893,o),
(497,1008,o),
(345,1008,cs),
(196,1008,o),
(129,891,o),
(129,764,cs),
(129,646,o),
(199,532,o),
(345,532,cs)
);
}
);
width = 701;
}
);
unicode = 8226;
userData = {
KernOnSpecialSpacing = {
L = NoKerning;
R = NoKerning;
};
};
},
{
glyphname = asterisk;
lastChange = "2023-03-01 05:13:04 +0000";
layers = (
{
layerId = "043639A7-E62C-4A4F-99F5-E7AE759848D8";
shapes = (
{
closed = 1;
nodes = (
(868,986,l),
(633,1239,l),
(964,1295,l),
(891,1534,l),
(590,1377,l),
(644,1727,l),
(398,1727,l),
(444,1377,l),
(145,1539,l),
(74,1300,l),
(399,1239,l),
(162,993,l),
(361,844,l),
(516,1153,l),
(668,840,l)
);
}
);
width = 1038;
}
);
unicode = 42;
userData = {
KernOnSpecialSpacing = {
L = quotes;
R = quotes;
};
};
},
{
glyphname = asterism;
lastChange = "2022-11-25 17:49:41 +0000";
layers = (
{
layerId = "043639A7-E62C-4A4F-99F5-E7AE759848D8";
shapes = (
{
closed = 1;
nodes = (
(1248,1042,l),
(1037,1270,l),
(1335,1321,l),
(1269,1536,l),
(998,1394,l),
(1047,1709,l),
(825,1709,l),
(867,1394,l),
(598,1540,l),
(534,1325,l),
(826,1270,l),
(613,1049,l),
(792,915,l),
(931,1193,l),
(1068,911,l)
);
},
{
closed = 1;
nodes = (
(788,265,l),
(577,493,l),
(875,544,l),
(809,759,l),
(538,617,l),
(587,932,l),
(365,932,l),
(407,617,l),
(138,763,l),
(74,548,l),
(366,493,l),
(153,272,l),
(332,138,l),
(471,416,l),
(608,134,l)
);
},
{
closed = 1;
nodes = (
(1715,265,l),
(1504,493,l),
(1802,544,l),
(1736,759,l),
(1465,617,l),
(1514,932,l),
(1292,932,l),
(1334,617,l),
(1065,763,l),
(1001,548,l),
(1293,493,l),
(1080,272,l),
(1259,138,l),
(1398,416,l),
(1535,134,l)
);
}
);
width = 1876;
}
);
metricLeft = asterisk;
metricRight = asterisk;
unicode = 8258;
},
{
glyphname = dblverticalbar;
lastChange = "2023-03-01 03:27:29 +0000";
layers = (
{
layerId = "043639A7-E62C-4A4F-99F5-E7AE759848D8";
shapes = (
{
closed = 1;
nodes = (
(918,-326,l),
(918,1884,l),
(698,1884,l),
(698,-326,l)
);
},
{
closed = 1;
nodes = (
(462,-326,l),
(462,1884,l),
(242,1884,l),
(242,-326,l)
);
}
);
width = 1160;
}
);
metricLeft = bar;
metricRight = bar;
unicode = 8214;
},
{
glyphname = numbersign;
lastChange = "2023-03-01 03:27:29 +0000";
layers = (
{
layerId = "043639A7-E62C-4A4F-99F5-E7AE759848D8";
shapes = (
{
closed = 1;
nodes = (
(383,0,l),
(411,385,l),
(649,385,l),
(621,0,l),
(800,0,l),
(828,385,l),
(967,385,l),
(967,567,l),
(841,567,l),
(860,809,l),
(1007,809,l),
(1007,991,l),
(873,991,l),
(901,1369,l),
(722,1369,l),
(694,991,l),
(456,991,l),
(484,1369,l),
(305,1369,l),
(277,991,l),
(131,991,l),
(131,809,l),
(264,809,l),
(245,567,l),
(91,567,l),
(91,385,l),
(232,385,l),
(204,0,l)
);
},
{
closed = 1;
nodes = (
(442,809,l),
(681,809,l),
(663,567,l),
(424,567,l)
);
}
);
width = 1098;
}
);
unicode = 35;
},
{
glyphname = slash;
lastChange = "2023-03-01 05:13:04 +0000";
layers = (
{
layerId = "043639A7-E62C-4A4F-99F5-E7AE759848D8";
shapes = (
{
closed = 1;
nodes = (
(224,-326,l),
(537,1884,l),
(318,1884,l),
(5,-326,l)
);
}
);
width = 542;
}
);
unicode = 47;
userData = {
KernOnSpecialSpacing = {
L = slash;
R = slash;
};
};
},
{
glyphname = backslash;
lastChange = "2023-03-01 05:13:04 +0000";
layers = (
{
layerId = "043639A7-E62C-4A4F-99F5-E7AE759848D8";
shapes = (
{
closed = 1;
nodes = (
(537,-326,l),
(224,1884,l),
(5,1884,l),
(318,-326,l)
);
}
);
width = 542;
}
);
unicode = 92;
userData = {
KernOnSpecialSpacing = {
L = "spaced-off";
R = "spaced-off";
};
};
},
{
glyphname = hyphen;
lastChange = "2023-03-01 05:13:04 +0000";
layers = (
{
layerId = "043639A7-E62C-4A4F-99F5-E7AE759848D8";
shapes = (
{
closed = 1;
nodes = (
(866,685,l),
(866,888,l),
(121,888,l),
(121,685,l)
);
}
);
width = 987;
}
);
unicode = 45;
userData = {
KernOnSpecialSpacing = {
L = hyphen;
R = hyphen;
};
};
},
{
glyphname = softhyphen;
lastChange = "2023-03-01 05:13:04 +0000";
layers = (
{
layerId = "043639A7-E62C-4A4F-99F5-E7AE759848D8";
shapes = (
{
closed = 1;
nodes = (
(866,685,l),
(866,888,l),
(121,888,l),
(121,685,l)
);
}
);
width = 987;
}
);
unicode = 173;
userData = {
KernOnSpecialSpacing = {
L = hyphen;
R = hyphen;
};
};
},
{
glyphname = endash;
lastChange = "2023-03-01 05:13:04 +0000";
layers = (
{
layerId = "043639A7-E62C-4A4F-99F5-E7AE759848D8";
shapes = (
{
closed = 1;
nodes = (
(1249,685,l),
(1249,888,l),
(121,888,l),
(121,685,l)
);
}
);
width = 1371;
}
);
unicode = 8211;
userData = {
KernOnSpecialSpacing = {
L = dashes;
R = dashes;
};
};
},
{
glyphname = emdash;
lastChange = "2023-03-01 05:13:04 +0000";
layers = (
{
layerId = "043639A7-E62C-4A4F-99F5-E7AE759848D8";
shapes = (
{
closed = 1;
nodes = (
(1516,685,l),
(1516,888,l),
(121,888,l),
(121,685,l)
);
}
);
width = 1637;
}
);
unicode = 8212;
userData = {
KernOnSpecialSpacing = {
L = dashes;
R = dashes;
};
};
},
{
glyphname = underscore;
lastChange = "2023-03-01 05:13:04 +0000";
layers = (
{
layerId = "043639A7-E62C-4A4F-99F5-E7AE759848D8";
shapes = (
{
closed = 1;
nodes = (
(1381,-335,l),
(1381,-172,l),
(-10,-172,l),
(-10,-335,l)
);
}
);
width = 1371;
}
);
unicode = 95;
userData = {
KernOnSpecialSpacing = {
L = underscore;
R = underscore;
};
};
},
{
glyphname = parenleft;
lastChange = "2023-03-01 05:13:04 +0000";
layers = (
{
layerId = "043639A7-E62C-4A4F-99F5-E7AE759848D8";
shapes = (
{
closed = 1;
nodes = (
(649,-83,l),
(465,-83,o),
(356,164,o),
(356,712,cs),
(356,1003,ls),
(356,1520,o),
(457,1790,o),
(649,1790,c),
(649,1963,l),
(457,1963,o),
(126,1919,o),
(126,957,cs),
(126,760,l),
(126,-219,o),
(457,-257,o),
(649,-257,c)
);
}
);
width = 766;
}
);
unicode = 40;
userData = {
KernOnSpecialSpacing = {
R = parenthesis;
};
};
},
{
glyphname = parenright;
lastChange = "2023-03-01 05:13:04 +0000";
layers = (
{
layerId = "043639A7-E62C-4A4F-99F5-E7AE759848D8";
shapes = (
{
closed = 1;
nodes = (
(309,-257,o),
(639,-219,o),
(639,760,c),
(639,957,l),
(639,1919,o),
(309,1963,o),
(116,1963,c),
(116,1790,l),
(309,1790,o),
(410,1520,o),
(410,1003,cs),
(410,712,ls),
(410,164,o),
(301,-83,o),
(116,-83,c),
(116,-257,l)
);
}
);
width = 766;
}
);
unicode = 41;
userData = {
KernOnSpecialSpacing = {
L = parenthesis;
};
};
},
{
glyphname = braceleft;
lastChange = "2023-03-01 05:13:04 +0000";
layers = (
{
layerId = "043639A7-E62C-4A4F-99F5-E7AE759848D8";
shapes = (
{
closed = 1;
nodes = (
(653,-256,o),
(708,-246,o),
(760,-229,c),
(760,-76,l),
(722,-76,ls),
(558,-76,o),
(503,-41,o),
(503,63,cs),
(503,468,ls),
(503,663,o),
(464,786,o),
(341,843,c),
(341,869,l),
(467,926,o),
(503,1049,o),
(503,1245,cs),
(503,1646,ls),
(503,1750,o),
(558,1784,o),
(722,1784,cs),
(760,1784,l),
(760,1938,l),
(708,1954,o),
(653,1964,o),
(610,1964,cs),
(430,1964,o),
(278,1856,o),
(278,1580,cs),
(278,1161,ls),
(278,1002,o),
(223,955,o),
(122,949,cs),
(71,946,l),
(71,767,l),
(123,764,ls),
(224,758,o),
(279,711,o),
(279,551,cs),
(279,129,l),
(279,-148,o),
(430,-256,o),
(610,-256,cs)
);
}
);
width = 886;
}
);
unicode = 123;
userData = {
KernOnSpecialSpacing = {
R = parenthesis;
};
com.typemytype.robofont.guides = (
{
angle = 0;
isGlobal = 0;
magnetic = 5;
x = 0;
y = 1964;
},
{
angle = 0;
isGlobal = 0;
magnetic = 5;
x = 0;
y = -257;
},
{
angle = 90;
isGlobal = 0;
magnetic = 5;
x = 628;
y = 0;
},
{
angle = 90;
isGlobal = 0;
magnetic = 5;
x = 886;
y = 0;
}
);
};
},
{
glyphname = braceright;
lastChange = "2023-03-01 05:13:04 +0000";
layers = (
{
layerId = "043639A7-E62C-4A4F-99F5-E7AE759848D8";
shapes = (
{
closed = 1;
nodes = (
(456,-256,o),
(607,-148,o),
(607,129,cs),
(607,551,ls),
(607,711,o),
(662,758,o),
(763,764,cs),
(815,767,l),
(815,946,l),
(764,949,ls),
(663,955,o),
(608,1002,o),
(608,1161,cs),
(608,1580,ls),
(608,1856,o),
(456,1964,o),
(276,1964,cs),
(232,1964,o),
(178,1954,o),
(126,1938,c),
(126,1784,l),
(164,1784,ls),
(328,1784,o),
(383,1750,o),
(383,1646,cs),
(383,1245,ls),
(383,1049,o),
(419,926,o),
(544,869,c),
(544,843,l),
(422,786,o),
(383,663,o),
(383,468,cs),
(383,63,ls),
(383,-41,o),
(328,-76,o),
(164,-76,cs),
(126,-76,l),
(126,-229,l),
(178,-246,o),
(232,-256,o),
(276,-256,cs)
);
}
);
width = 886;
}
);
unicode = 125;
userData = {
KernOnSpecialSpacing = {
L = parenthesis;
};
};
},
{
glyphname = bracketleft;
lastChange = "2023-03-01 05:13:04 +0000";
layers = (
{
layerId = "043639A7-E62C-4A4F-99F5-E7AE759848D8";
shapes = (
{
closed = 1;
nodes = (
(639,-256,l),
(639,-66,l),
(356,-66,l),
(356,1771,l),
(639,1771,l),
(639,1963,l),
(134,1963,l),
(134,-256,l)
);
}
);
width = 766;
}
);
unicode = 91;
userData = {
KernOnSpecialSpacing = {
L = NoKerning;
R = parenthesis;
};
};
},
{
glyphname = bracketright;
lastChange = "2023-03-01 05:13:04 +0000";
layers = (
{
layerId = "043639A7-E62C-4A4F-99F5-E7AE759848D8";
shapes = (
{
closed = 1;
nodes = (
(631,-256,l),
(631,1963,l),
(126,1963,l),
(126,1771,l),
(410,1771,l),
(410,-66,l),
(126,-66,l),
(126,-256,l)
);
}
);
width = 766;
}
);
unicode = 93;
userData = {
KernOnSpecialSpacing = {
L = parenthesis;
R = NoKerning;
};
};
},
{
glyphname = quoteleft;
lastChange = "2023-03-01 05:13:04 +0000";
layers = (
{
layerId = "043639A7-E62C-4A4F-99F5-E7AE759848D8";
shapes = (
{
closed = 1;
nodes = (
(425,1180,l),
(425,1479,l),
(504,1876,l),
(307,1876,l),
(157,1404,l),
(157,1180,l)
);
}
);
width = 610;
}
);
unicode = 8216;
userData = {
KernOnSpecialSpacing = {
L = quotes;
R = quotes;
};
};
},
{
glyphname = quotereversed;
lastChange = "2022-11-25 17:49:41 +0000";
layers = (
{
layerId = "043639A7-E62C-4A4F-99F5-E7AE759848D8";
shapes = (
{
closed = 1;
nodes = (
(493,1180,l),
(414,1577,l),
(414,1876,l),
(146,1876,l),
(146,1652,l),
(296,1180,l)
);
}
);
width = 610;
}
);
unicode = 8219;
},
{
glyphname = guilsinglleft;
lastChange = "2023-03-01 05:13:04 +0000";
layers = (
{
layerId = "043639A7-E62C-4A4F-99F5-E7AE759848D8";
shapes = (
{
closed = 1;
nodes = (
(661,430,l),
(382,790,l),
(665,1149,l),
(528,1273,l),
(139,867,l),
(139,717,l),
(524,305,l)
);
}
);
width = 824;
}
);
unicode = 8249;
userData = {
KernOnSpecialSpacing = {
L = quotes;
R = quotes;
};
com.typemytype.robofont.guides = (
{
angle = 90;
isGlobal = 0;
magnetic = 5;
x = 698;
y = 0;
}
);
};
},
{
glyphname = quotesingle;
lastChange = "2023-03-01 05:13:04 +0000";
layers = (
{
layerId = "043639A7-E62C-4A4F-99F5-E7AE759848D8";
shapes = (
{
closed = 1;
nodes = (
(429,1180,l),
(450,1876,l),
(201,1876,l),
(226,1180,l)
);
}
);
width = 651;
}
);
unicode = 39;
userData = {
KernOnSpecialSpacing = {
L = quotes;
R = quotes;
};
};
},
{
glyphname = florin;
lastChange = "2023-03-01 05:13:04 +0000";
layers = (
{
layerId = "043639A7-E62C-4A4F-99F5-E7AE759848D8";
shapes = (
{
closed = 1;
nodes = (
(266,-419,o),
(401,-358,o),
(401,-59,cs),
(401,961,l),
(602,961,l),
(602,1153,l),
(401,1153,l),
(401,1476,ls),
(401,1596,o),
(459,1635,o),
(525,1635,cs),
(559,1635,o),
(592,1631,o),
(619,1624,c),
(619,1802,l),
(573,1825,o),
(500,1836,o),
(451,1836,cs),
(283,1836,o),
(148,1775,o),
(148,1476,cs),
(148,1153,l),
(33,1153,l),
(33,961,l),
(148,961,l),
(148,-59,ls),
(148,-179,o),
(90,-218,o),
(24,-218,cs),
(-10,-218,o),
(-43,-214,o),
(-70,-207,c),
(-70,-385,l),
(-24,-408,o),
(49,-419,o),
(98,-419,cs)
);
}
);
width = 606;
}
);
unicode = 402;
userData = {
KernOnSpecialSpacing = {
L = NoKerning;
R = NoKerning;
};
com.typemytype.robofont.guides = (
{
angle = 0;
isGlobal = 0;
magnetic = 5;
x = 0;
y = 1836;
},
{
angle = 90;
isGlobal = 0;
magnetic = 5;
x = 1212;
y = 0;
},
{
angle = 90;
isGlobal = 0;
magnetic = 5;
x = 711;
y = 0;
}
);
};
},
{
color = 1;
glyphname = baht;
lastChange = "2023-03-01 03:27:41 +0000";
layers = (
{
layerId = "043639A7-E62C-4A4F-99F5-E7AE759848D8";
shapes = (
{
closed = 1;
nodes = (
(573,0,ls),
(864,0,o),
(1123,65,o),
(1123,437,cs),
(1123,524,ls),
(1123,727,o),
(1042,833,o),
(887,894,c),
(887,902,l),
(992,940,o),
(1095,1056,o),
(1095,1238,cs),
(1095,1321,ls),
(1095,1679,o),
(795,1708,o),
(563,1708,cs),
(141,1708,l),
(141,0,l)
);
},
{
closed = 1;
nodes = (
(400,794,l),
(629,794,l),
(799,794,o),
(856,705,o),
(856,545,cs),
(856,412,ls),
(856,252,o),
(767,189,o),
(629,189,cs),
(400,189,l)
);
},
{
closed = 1;
nodes = (
(705,-256,l),
(705,1954,l),
(515,1954,l),
(515,-256,l)
);
},
{
closed = 1;
nodes = (
(400,1519,l),
(605,1519,l),
(776,1519,o),
(833,1429,o),
(833,1270,cs),
(833,1200,ls),
(833,1040,o),
(744,977,o),
(605,977,cs),
(400,977,l)
);
}
);
width = 1199;
}
);
metricLeft = B;
metricRight = B;
unicode = 3647;
},
{
glyphname = at;
lastChange = "2023-03-01 05:13:04 +0000";
layers = (
{
layerId = "043639A7-E62C-4A4F-99F5-E7AE759848D8";
shapes = (
{
closed = 1;
nodes = (
(944,-403,o),
(1097,-373,o),
(1149,-336,c),
(1149,-176,l),
(1078,-205,o),
(957,-219,o),
(879,-219,cs),
(631,-219,o),
(282,-178,o),
(282,474,cs),
(282,945,ls),
(282,1582,o),
(610,1646,o),
(820,1646,cs),
(1028,1646,o),
(1356,1614,o),
(1356,977,cs),
(1356,697,l),
(1356,351,o),
(1309,299,o),
(1249,299,cs),
(1203,299,o),
(1158,332,o),
(1158,450,cs),
(1158,1284,l),
(962,1284,l),
(939,1150,l),
(918,1170,l),
(918,323,l),
(966,308,l),
(987,308,l),
(1024,176,o),
(1103,115,o),
(1240,115,cs),
(1498,115,o),
(1554,391,o),
(1554,765,cs),
(1554,977,ls),
(1554,1704,o),
(1150,1820,o),
(818,1820,cs),
(496,1820,o),
(85,1672,o),
(85,945,cs),
(85,513,l),
(85,-304,o),
(566,-403,o),
(822,-403,cs)
);
},
{
closed = 1;
nodes = (
(874,116,o),
(970,210,o),
(1007,376,c),
(936,446,l),
(919,384,o),
(884,312,o),
(816,312,cs),
(750,312,o),
(704,349,o),
(704,546,cs),
(704,864,ls),
(704,1069,o),
(759,1106,o),
(817,1106,cs),
(885,1106,o),
(920,1032,o),
(938,950,c),
(1007,1003,l),
(981,1132,o),
(908,1299,o),
(743,1299,cs),
(642,1299,o),
(464,1249,o),
(464,837,cs),
(464,594,l),
(464,137,o),
(654,116,o),
(759,116,cs)
);
}
);
width = 1639;
}
);
unicode = 64;
userData = {
KernOnSpecialSpacing = {
L = symbols;
R = symbols;
};
com.typemytype.robofont.guides = (
{
angle = 0;
isGlobal = 0;
magnetic = 5;
x = 0;
y = 42;
},
{
angle = 90;
isGlobal = 0;
magnetic = 5;
x = 3264;
y = 0;
},
{
angle = 90;
isGlobal = 0;
magnetic = 5;
x = 836;
y = 0;
}
);
};
},
{
glyphname = ampersand;
lastChange = "2023-03-01 05:13:04 +0000";
layers = (
{
layerId = "043639A7-E62C-4A4F-99F5-E7AE759848D8";
shapes = (
{
closed = 1;
nodes = (
(803,-16,o),
(1108,346,o),
(1108,724,cs),
(1108,764,o),
(1104,806,o),
(1098,841,c),
(889,841,l),
(892,805,o),
(893,768,o),
(893,724,cs),
(893,448,o),
(755,189,o),
(541,189,cs),
(378,189,o),
(307,322,o),
(307,445,cs),
(307,565,o),
(361,689,o),
(453,793,cs),
(621,980,ls),
(704,1077,o),
(890,1255,o),
(890,1502,cs),
(890,1624,o),
(818,1810,o),
(546,1810,cs),
(338,1810,o),
(168,1664,o),
(168,1432,cs),
(168,1282,o),
(231,1129,o),
(301,1003,cs),
(857,1,l),
(1125,1,l),
(541,1061,ls),
(442,1241,o),
(405,1329,o),
(405,1432,cs),
(405,1565,o),
(484,1606,o),
(546,1606,cs),
(612,1606,o),
(672,1560,o),
(672,1458,cs),
(672,1308,o),
(576,1204,o),
(523,1143,cs),
(308,913,ls),
(220,812,o),
(50,637,o),
(50,410,cs),
(50,138,o),
(230,-16,o),
(486,-16,cs)
);
}
);
width = 1201;
}
);
unicode = 38;
userData = {
KernOnSpecialSpacing = {
L = symbols;
R = symbols;
};
com.typemytype.robofont.guides = (
{
angle = 90;
isGlobal = 0;
magnetic = 5;
x = 1199;
y = 0;
}
);
};
},
{
glyphname = paragraph;
lastChange = "2023-03-01 05:13:04 +0000";
layers = (
{
layerId = "043639A7-E62C-4A4F-99F5-E7AE759848D8";
shapes = (
{
closed = 1;
nodes = (
(507,520,l),
(507,1708,l),
(476,1708,ls),
(341,1708,o),
(94,1682,o),
(94,1179,cs),
(94,1119,l),
(94,546,o),
(341,520,o),
(476,520,c)
);
},
{
closed = 1;
nodes = (
(936,0,l),
(936,1708,l),
(678,1708,l),
(678,0,l)
);
}
);
width = 1091;
}
);
unicode = 182;
userData = {
KernOnSpecialSpacing = {
L = NoKerning;
R = NoKerning;
};
};
},
{
glyphname = section;
lastChange = "2023-03-01 05:13:04 +0000";
layers = (
{
layerId = "043639A7-E62C-4A4F-99F5-E7AE759848D8";
shapes = (
{
closed = 1;
nodes = (
(750,-369,o),
(892,-226,o),
(892,-25,cs),
(892,146,o),
(815,265,o),
(645,431,cs),
(489,584,ls),
(394,677,o),
(357,743,o),
(357,823,cs),
(357,921,o),
(418,1000,o),
(495,1031,c),
(389,1155,l),
(234,1097,o),
(131,966,o),
(131,791,cs),
(131,626,o),
(202,529,o),
(331,397,cs),
(488,237,ls),
(606,116,o),
(651,57,o),
(651,-25,cs),
(651,-113,o),
(604,-184,o),
(514,-184,cs),
(434,-184,o),
(368,-111,o),
(368,51,cs),
(368,160,l),
(188,160,l),
(170,86,o),
(161,29,o),
(161,-45,cs),
(161,-200,o),
(261,-369,o),
(514,-369,cs)
);
},
{
closed = 1;
nodes = (
(818,360,o),
(921,492,o),
(921,666,cs),
(921,831,o),
(850,929,o),
(721,1060,cs),
(565,1221,ls),
(446,1341,o),
(401,1401,o),
(401,1482,cs),
(401,1571,o),
(448,1642,o),
(538,1642,cs),
(618,1642,o),
(685,1568,o),
(685,1406,cs),
(685,1297,l),
(865,1297,l),
(883,1371,o),
(892,1429,o),
(892,1503,cs),
(892,1657,o),
(792,1827,o),
(538,1827,cs),
(302,1827,o),
(161,1684,o),
(161,1482,cs),
(161,1311,o),
(237,1192,o),
(407,1026,cs),
(564,873,ls),
(659,781,o),
(696,715,o),
(696,635,cs),
(696,537,o),
(634,458,o),
(558,427,c),
(664,302,l)
);
}
);
width = 1052;
}
);
unicode = 167;
userData = {
KernOnSpecialSpacing = {
R = symbols;
};
com.typemytype.robofont.guides = (
{
angle = 90;
isGlobal = 0;
magnetic = 5;
x = 161;
y = 0;
},
{
angle = 90;
isGlobal = 0;
magnetic = 5;
x = 892;
y = 0;
}
);
};
},
{
glyphname = copyright;
lastChange = "2023-03-01 05:13:04 +0000";
layers = (
{
layerId = "043639A7-E62C-4A4F-99F5-E7AE759848D8";
shapes = (
{
closed = 1;
nodes = (
(957,-15,o),
(1349,64,o),
(1349,694,cs),
(1349,1030,ls),
(1349,1660,o),
(959,1740,o),
(727,1740,cs),
(487,1740,o),
(99,1651,o),
(99,1030,cs),
(99,694,l),
(99,73,o),
(485,-15,o),
(725,-15,cs)
);
},
{
closed = 1;
nodes = (
(541,120,o),
(255,178,o),
(255,670,cs),
(255,1054,ls),
(255,1546,o),
(543,1604,o),
(727,1604,cs),
(905,1604,o),
(1195,1553,o),
(1195,1054,cs),
(1195,670,l),
(1193,171,o),
(903,120,o),
(725,120,cs)
);
},
{
closed = 1;
nodes = (
(933,293,o),
(1033,409,o),
(1033,622,cs),
(1033,696,l),
(848,696,l),
(848,611,ls),
(848,505,o),
(807,459,o),
(751,459,cs),
(671,459,o),
(632,508,o),
(632,673,cs),
(632,1040,ls),
(632,1211,o),
(672,1263,o),
(745,1263,cs),
(811,1263,o),
(847,1199,o),
(847,1076,cs),
(847,1020,l),
(1011,1020,l),
(1022,1078,o),
(1029,1122,o),
(1029,1179,cs),
(1029,1292,o),
(961,1430,o),
(750,1430,cs),
(628,1430,o),
(416,1393,o),
(416,993,cs),
(416,736,ls),
(416,337,o),
(623,292,o),
(751,292,cs)
);
}
);
width = 1448;
}
);
unicode = 169;
userData = {
KernOnSpecialSpacing = {
R = symbols;
};
};
},
{
glyphname = registered;
lastChange = "2023-03-01 05:13:04 +0000";
layers = (
{
layerId = "043639A7-E62C-4A4F-99F5-E7AE759848D8";
shapes = (
{
closed = 1;
nodes = (
(954,184,o),
(1370,264,o),
(1370,879,cs),
(1370,1045,l),
(1370,1660,o),
(956,1740,o),
(737,1740,cs),
(509,1740,o),
(99,1651,o),
(99,1045,cs),
(99,879,ls),
(99,274,o),
(507,184,o),
(735,184,cs)
);
},
{
closed = 1;
nodes = (
(539,330,o),
(255,396,o),
(255,871,cs),
(255,1053,ls),
(255,1528,o),
(541,1594,o),
(737,1594,cs),
(927,1594,o),
(1215,1536,o),
(1215,1053,cs),
(1215,871,l),
(1213,389,o),
(925,330,o),
(735,330,cs)
);
},
{
closed = 1;
nodes = (
(656,562,l),
(656,842,l),
(762,842,l),
(724,901,l),
(879,562,l),
(1086,562,l),
(870,946,l),
(811,871,l),
(950,885,o),
(1028,976,o),
(1028,1105,cs),
(1028,1135,l),
(1028,1375,o),
(807,1387,o),
(656,1387,cs),
(473,1387,l),
(473,562,l)
);
},
{
closed = 1;
nodes = (
(656,1261,l),
(687,1261,l),
(795,1261,o),
(828,1216,o),
(828,1144,cs),
(828,1102,ls),
(828,1010,o),
(791,968,o),
(687,968,cs),
(656,968,l)
);
}
);
width = 1469;
}
);
unicode = 174;
userData = {
KernOnSpecialSpacing = {
L = superiors;
};
};
},
{
glyphname = trademark;
lastChange = "2023-03-01 05:13:04 +0000";
layers = (
{
layerId = "043639A7-E62C-4A4F-99F5-E7AE759848D8";
shapes = (
{
closed = 1;
nodes = (
(858,873,l),
(858,959,ls),
(858,1271,o),
(845,1356,o),
(837,1464,c),
(844,1464,l),
(1019,997,l),
(1132,997,l),
(1298,1464,l),
(1304,1464,l),
(1296,1356,o),
(1283,1271,o),
(1283,959,cs),
(1283,873,l),
(1460,873,l),
(1460,1725,l),
(1256,1725,l),
(1119,1362,l),
(1084,1249,l),
(1068,1249,l),
(1034,1362,l),
(908,1725,l),
(681,1725,l),
(681,873,l)
);
},
{
closed = 1;
nodes = (
(391,873,l),
(391,1566,l),
(569,1566,l),
(569,1725,l),
(36,1725,l),
(35,1566,l),
(213,1566,l),
(213,873,l)
);
}
);
width = 1587;
}
);
unicode = 8482;
userData = {
KernOnSpecialSpacing = {
L = superiors;
};
};
},
{
glyphname = degree;
lastChange = "2023-03-01 05:13:04 +0000";
layers = (
{
layerId = "043639A7-E62C-4A4F-99F5-E7AE759848D8";
shapes = (
{
closed = 1;
nodes = (
(664,1072,o),
(778,1256,o),
(778,1428,cs),
(778,1621,o),
(664,1795,o),
(434,1795,cs),
(204,1795,o),
(101,1618,o),
(101,1428,cs),
(101,1247,o),
(209,1072,o),
(434,1072,cs)
);
},
{
closed = 1;
nodes = (
(343,1265,o),
(301,1343,o),
(301,1425,cs),
(301,1517,o),
(341,1602,o),
(431,1602,cs),
(530,1602,o),
(578,1518,o),
(578,1425,cs),
(578,1347,o),
(530,1265,o),
(431,1265,cs)
);
}
);
width = 879;
}
);
unicode = 176;
userData = {
KernOnSpecialSpacing = {
L = superiors;
};
};
},
{
glyphname = bar;
lastChange = "2023-03-01 05:13:04 +0000";
layers = (
{
layerId = "043639A7-E62C-4A4F-99F5-E7AE759848D8";
shapes = (
{
closed = 1;
nodes = (
(462,-326,l),
(462,1884,l),
(242,1884,l),
(242,-326,l)
);
}
);
width = 704;
}
);
unicode = 124;
userData = {
KernOnSpecialSpacing = {
L = NoKerning;
R = NoKerning;
};
};
},
{
glyphname = brokenbar;
lastChange = "2023-03-01 03:27:41 +0000";
layers = (
{
layerId = "043639A7-E62C-4A4F-99F5-E7AE759848D8";
shapes = (
{
closed = 1;
nodes = (
(462,-326,l),
(462,683,l),
(242,683,l),
(242,-326,l)
);
},
{
closed = 1;
nodes = (
(462,940,l),
(462,1884,l),
(242,1884,l),
(242,940,l)
);
}
);
width = 704;
}
);
unicode = 166;
},
{
glyphname = dagger;
lastChange = "2023-03-01 03:27:41 +0000";
layers = (
{
layerId = "043639A7-E62C-4A4F-99F5-E7AE759848D8";
shapes = (
{
closed = 1;
nodes = (
(331,-323,l),
(331,1865,l),
(111,1865,l),
(111,-323,l)
);
},
{
closed = 1;
nodes = (
(594,1155,l),
(594,1356,l),
(-151,1356,l),
(-151,1155,l)
);
}
);
width = 442;
}
);
unicode = 8224;
},
{
glyphname = daggerdbl;
lastChange = "2023-03-01 03:27:41 +0000";
layers = (
{
layerId = "043639A7-E62C-4A4F-99F5-E7AE759848D8";
shapes = (
{
closed = 1;
nodes = (
(331,-323,l),
(331,1865,l),
(111,1865,l),
(111,-323,l)
);
},
{
closed = 1;
nodes = (
(593,628,l),
(593,829,l),
(-151,829,l),
(-151,628,l)
);
},
{
closed = 1;
nodes = (
(593,1155,l),
(593,1356,l),
(-151,1356,l),
(-151,1155,l)
);
}
);
width = 442;
}
);
unicode = 8225;
},
{
color = 1;
glyphname = estimated;
lastChange = "2023-03-01 03:27:41 +0000";
layers = (
{
layerId = "043639A7-E62C-4A4F-99F5-E7AE759848D8";
shapes = (
{
closed = 1;
nodes = (
(1333,0,o),
(1528,95,o),
(1751,340,c),
(1575,340,l),
(1440,188,o),
(1218,68,o),
(980,68,cs),
(625,68,o),
(388,283,o),
(388,370,cs),
(388,790,ls),
(388,833,o),
(403,835,o),
(425,835,cs),
(1921,835,l),
(1896,1405,o),
(1535,1718,o),
(980,1718,cs),
(430,1718,o),
(40,1373,o),
(40,858,cs),
(40,335,o),
(430,0,o),
(980,0,cs)
);
},
{
closed = 1;
nodes = (
(398,888,o),
(388,895,o),
(388,910,cs),
(388,1358,ls),
(388,1433,o),
(640,1658,o),
(978,1658,cs),
(1245,1658,o),
(1570,1475,o),
(1570,1340,cs),
(1570,928,ls),
(1570,898,o),
(1565,888,o),
(1530,888,cs),
(425,888,ls)
);
}
);
width = 1961;
}
);
metricLeft = "=40";
metricRight = "=|";
unicode = 8494;
},
{
glyphname = cent;
lastChange = "2023-03-01 05:13:04 +0000";
layers = (
{
layerId = "043639A7-E62C-4A4F-99F5-E7AE759848D8";
shapes = (
{
closed = 1;
nodes = (
(575,1286,l),
(575,1623,l),
(389,1623,l),
(389,1286,l)
);
},
{
closed = 1;
nodes = (
(576,-258,l),
(576,79,l),
(390,79,l),
(390,-258,l)
);
},
{
pos = (13,0);
ref = c;
}
);
width = 889;
}
);
unicode = 162;
userData = {
KernOnSpecialSpacing = {
L = symbols;
R = symbols;
};
com.typemytype.robofont.guides = (
{
angle = 90;
isGlobal = 0;
magnetic = 5;
x = 849;
y = 0;
}
);
};
},
{
glyphname = currency;
lastChange = "2023-03-01 03:27:41 +0000";
layers = (
{
layerId = "043639A7-E62C-4A4F-99F5-E7AE759848D8";
shapes = (
{
closed = 1;
nodes = (
(880,464,o),
(1005,668,o),
(1005,858,cs),
(1005,1076,o),
(880,1265,o),
(623,1265,cs),
(369,1265,o),
(256,1071,o),
(256,858,cs),
(256,657,o),
(375,464,o),
(623,464,cs)
);
},
{
closed = 1;
nodes = (
(558,643,l),
(433,800,l),
(111,513,l),
(249,358,l)
);
},
{
closed = 1;
nodes = (
(558,1090,l),
(249,1375,l),
(111,1220,l),
(433,933,l)
);
},
{
closed = 1;
nodes = (
(527,691,o),
(481,772,o),
(481,855,cs),
(481,952,o),
(525,1039,o),
(623,1039,cs),
(733,1039,o),
(787,954,o),
(787,855,cs),
(787,776,o),
(733,691,o),
(623,691,cs)
);
},
{
closed = 1;
nodes = (
(1166,513,l),
(843,800,l),
(719,643,l),
(1027,358,l)
);
},
{
closed = 1;
nodes = (
(1166,1220,l),
(1027,1375,l),
(719,1090,l),
(843,933,l)
);
}
);
width = 1277;
}
);
unicode = 164;
},
{
glyphname = dollar;
lastChange = "2023-03-01 05:13:04 +0000";
layers = (
{
layerId = "043639A7-E62C-4A4F-99F5-E7AE759848D8";
shapes = (
{
closed = 1;
nodes = (
(742,-16,o),
(903,132,o),
(903,368,cs),
(903,525,o),
(843,643,o),
(733,786,cs),
(438,1168,ls),
(388,1234,o),
(353,1294,o),
(353,1371,cs),
(353,1461,o),
(404,1520,o),
(501,1520,cs),
(608,1520,o),
(668,1419,o),
(668,1239,cs),
(668,1157,l),
(868,1157,l),
(882,1231,o),
(895,1288,o),
(895,1361,cs),
(895,1534,o),
(803,1723,o),
(501,1723,cs),
(252,1723,o),
(103,1563,o),
(103,1336,cs),
(103,1185,o),
(159,1069,o),
(254,947,cs),
(517,608,ls),
(612,487,o),
(637,410,o),
(637,334,cs),
(637,238,o),
(588,187,o),
(490,187,cs),
(375,187,o),
(319,288,o),
(319,472,cs),
(319,548,l),
(118,548,l),
(101,477,o),
(92,419,o),
(92,346,cs),
(92,164,o),
(183,-16,o),
(492,-16,cs)
);
},
{
closed = 1;
nodes = (
(606,-255,l),
(606,78,l),
(420,78,l),
(420,-255,l)
);
},
{
closed = 1;
nodes = (
(605,1611,l),
(605,1944,l),
(419,1944,l),
(419,1611,l)
);
}
);
width = 996;
}
);
unicode = 36;
userData = {
KernOnSpecialSpacing = {
L = symbols;
R = symbols;
};
com.typemytype.robofont.guides = (
{
angle = 90;
isGlobal = 0;
magnetic = 5;
x = 420;
y = 0;
}
);
};
},
{
glyphname = euro;
lastChange = "2023-03-01 05:13:04 +0000";
layers = (
{
layerId = "043639A7-E62C-4A4F-99F5-E7AE759848D8";
shapes = (
{
closed = 1;
nodes = (
(838,-14,o),
(972,111,o),
(972,378,cs),
(972,439,l),
(754,439,l),
(754,373,ls),
(754,245,o),
(689,188,o),
(598,188,cs),
(479,188,o),
(418,251,o),
(418,463,cs),
(418,1233,ls),
(418,1452,o),
(479,1520,o),
(580,1520,cs),
(672,1520,o),
(722,1445,o),
(722,1259,cs),
(722,1194,l),
(922,1194,l),
(935,1254,o),
(949,1291,o),
(949,1386,cs),
(949,1574,o),
(856,1723,o),
(587,1723,cs),
(423,1723,o),
(153,1676,o),
(153,1161,cs),
(153,556,ls),
(153,43,o),
(423,-15,o),
(598,-15,cs)
);
},
{
closed = 1;
nodes = (
(653,546,l),
(685,726,l),
(-1,726,l),
(-1,546,l)
);
},
{
closed = 1;
nodes = (
(711,877,l),
(740,1056,l),
(-1,1056,l),
(-1,877,l)
);
}
);
width = 1028;
}
);
unicode = 8364;
userData = {
KernOnSpecialSpacing = {
L = symbols;
R = symbols;
};
};
},
{
color = 1;
glyphname = hryvnia;
lastChange = "2023-03-01 05:13:04 +0000";
layers = (
{
anchors = (
{
name = btm;
pos = (472,-100);
},
{
name = top;
pos = (472,500);
}
);
layerId = "043639A7-E62C-4A4F-99F5-E7AE759848D8";
shapes = (
{
closed = 1;
nodes = (
(788,-16,o),
(879,164,o),
(879,346,cs),
(879,419,o),
(870,477,o),
(853,548,c),
(652,548,l),
(652,472,ls),
(652,288,o),
(597,187,o),
(481,187,cs),
(383,187,o),
(331,238,o),
(331,334,cs),
(331,410,o),
(358,488,o),
(454,608,cs),
(697,947,ls),
(793,1068,o),
(871,1185,o),
(871,1336,cs),
(871,1563,o),
(722,1723,o),
(473,1723,cs),
(171,1723,o),
(79,1534,o),
(79,1361,cs),
(79,1288,o),
(93,1231,o),
(107,1157,c),
(307,1157,l),
(307,1239,ls),
(307,1419,o),
(366,1520,o),
(473,1520,cs),
(570,1520,o),
(621,1461,o),
(621,1371,cs),
(621,1294,o),
(581,1233,o),
(530,1168,cs),
(259,786,ls),
(147,644,o),
(65,525,o),
(65,368,cs),
(65,132,o),
(229,-16,o),
(479,-16,cs)
);
},
{
closed = 1;
nodes = (
(898,636,l),
(898,815,l),
(40,815,l),
(40,636,l)
);
},
{
closed = 1;
nodes = (
(912,909,l),
(912,1088,l),
(54,1088,l),
(54,909,l)
);
}
);
width = 936;
}
);
unicode = 8372;
userData = {
KernOnSpecialSpacing = {
L = symbols;
R = symbols;
};
};
},
{
color = 1;
glyphname = manat;
lastChange = "2023-03-01 03:27:41 +0000";
layers = (
{
layerId = "043639A7-E62C-4A4F-99F5-E7AE759848D8";
shapes = (
{
closed = 1;
nodes = (
(361,0,l),
(361,1233,ls),
(361,1454,o),
(431,1534,o),
(664,1534,cs),
(875,1534,o),
(976,1454,o),
(976,1233,cs),
(976,0,l),
(1196,0,l),
(1196,1256,ls),
(1196,1578,o),
(1023,1718,o),
(664,1718,cs),
(314,1718,o),
(141,1578,o),
(141,1256,cs),
(141,0,l)
);
},
{
closed = 1;
nodes = (
(739,0,l),
(739,1978,l),
(588,1978,l),
(588,0,l)
);
}
);
width = 1337;
}
);
metricLeft = H;
metricRight = H;
unicode = 8380;
},
{
color = 1;
glyphname = ruble;
lastChange = "2023-03-01 05:13:04 +0000";
layers = (
{
anchors = (
{
name = btm;
pos = (583,-100);
},
{
name = top;
pos = (583,500);
}
);
layerId = "043639A7-E62C-4A4F-99F5-E7AE759848D8";
shapes = (
{
closed = 1;
nodes = (
(449,0,l),
(449,520,l),
(474,520,ls),
(673,520,o),
(976,571,o),
(976,1119,cs),
(976,1179,l),
(976,1682,o),
(646,1708,o),
(449,1708,cs),
(190,1708,l),
(190,0,l)
);
},
{
closed = 1;
nodes = (
(725,185,l),
(725,375,l),
(40,375,l),
(40,185,l)
);
},
{
closed = 1;
nodes = (
(379,520,l),
(379,710,l),
(48,710,l),
(48,520,l)
);
},
{
closed = 1;
nodes = (
(449,1521,l),
(462,1521,l),
(658,1521,o),
(710,1428,o),
(710,1225,cs),
(710,1071,ls),
(710,814,o),
(650,710,o),
(462,710,cs),
(449,710,l)
);
}
);
width = 1044;
}
);
metricLeft = plus;
metricRight = P;
unicode = 8381;
userData = {
KernOnSpecialSpacing = {
L = symbols;
R = symbols;
};
};
},
{
color = 1;
glyphname = rupeeIndian;
lastChange = "2023-03-01 05:13:04 +0000";
layers = (
{
layerId = "043639A7-E62C-4A4F-99F5-E7AE759848D8";
shapes = (
{
closed = 1;
nodes = (
(805,0,l),
(302,647,l),
(502,647,o),
(775,687,o),
(803,1106,c),
(974,1106,l),
(974,1285,l),
(803,1285,l),
(795,1390,o),
(758,1500,o),
(710,1529,c),
(974,1529,l),
(974,1708,l),
(26,1708,l),
(26,1529,l),
(348,1529,l),
(486,1519,o),
(534,1437,o),
(538,1285,c),
(26,1285,l),
(26,1106,l),
(538,1106,l),
(534,895,o),
(472,826,o),
(319,826,cs),
(26,826,l),
(26,647,l),
(529,0,l)
);
}
);
width = 998;
}
);
metricLeft = "=|E";
metricRight = T;
unicode = 8377;
userData = {
KernOnSpecialSpacing = {
L = symbols;
R = symbols;
};
};
},
{
color = 1;
glyphname = sheqel;
lastChange = "2023-03-01 05:13:04 +0000";
layers = (
{
layerId = "043639A7-E62C-4A4F-99F5-E7AE759848D8";
shapes = (
{
closed = 1;
nodes = (
(1040,0,ls),
(1349,0,o),
(1492,140,o),
(1492,462,cs),
(1492,1708,l),
(1272,1708,l),
(1272,485,ls),
(1272,264,o),
(1171,204,o),
(1010,204,cs),
(747,204,l),
(747,1223,l),
(527,1223,l),
(527,0,l)
);
},
{
closed = 1;
nodes = (
(361,0,l),
(361,1504,l),
(624,1504,ls),
(785,1504,o),
(886,1444,o),
(886,1223,cs),
(886,485,l),
(1106,485,l),
(1106,1246,ls),
(1106,1568,o),
(963,1708,o),
(654,1708,cs),
(141,1708,l),
(141,0,l)
);
}
);
width = 1633;
}
);
metricLeft = H;
metricRight = H;
unicode = 8362;
userData = {
KernOnSpecialSpacing = {
L = symbols;
R = symbols;
};
};
},
{
glyphname = sterling;
lastChange = "2023-03-01 05:13:04 +0000";
layers = (
{
layerId = "043639A7-E62C-4A4F-99F5-E7AE759848D8";
shapes = (
{
closed = 1;
nodes = (
(903,0,l),
(903,204,l),
(367,204,l),
(424,288,o),
(445,403,o),
(445,563,cs),
(445,701,l),
(724,701,l),
(724,880,l),
(445,880,l),
(445,1224,ls),
(445,1455,o),
(486,1520,o),
(569,1520,cs),
(648,1520,o),
(700,1443,o),
(700,1228,cs),
(700,1157,l),
(901,1157,l),
(917,1231,o),
(927,1307,o),
(927,1371,cs),
(927,1552,o),
(829,1723,o),
(576,1723,cs),
(306,1723,o),
(190,1555,o),
(190,1224,cs),
(190,880,l),
(61,880,l),
(61,701,l),
(190,701,l),
(190,591,ls),
(190,385,o),
(204,203,o),
(93,152,c),
(93,0,l)
);
}
);
width = 996;
}
);
unicode = 163;
userData = {
KernOnSpecialSpacing = {
L = symbols;
R = symbols;
};
com.typemytype.robofont.guides = (
{
angle = 90;
isGlobal = 0;
magnetic = 5;
x = 906;
y = 0;
},
{
angle = 90;
isGlobal = 0;
magnetic = 5;
x = 61;
y = 0;
}
);
};
},
{
color = 1;
glyphname = won;
lastChange = "2023-03-01 05:13:04 +0000";
layers = (
{
anchors = (
{
name = btm;
pos = (734,-100);
},
{
name = top;
pos = (734,500);
}
);
layerId = "043639A7-E62C-4A4F-99F5-E7AE759848D8";
shapes = (
{
closed = 1;
nodes = (
(538,0,l),
(686,821,l),
(729,1178,l),
(749,1178,l),
(793,821,l),
(934,0,l),
(1197,0,l),
(1436,1708,l),
(1187,1708,l),
(1082,676,l),
(1070,435,l),
(1044,435,l),
(1024,676,l),
(848,1708,l),
(641,1708,l),
(457,676,l),
(433,435,l),
(408,435,l),
(395,676,l),
(280,1708,l),
(32,1708,l),
(278,0,l)
);
},
{
closed = 1;
nodes = (
(1466,870,l),
(1466,1049,l),
(3,1049,l),
(3,870,l)
);
}
);
width = 1469;
}
);
unicode = 8361;
userData = {
KernOnSpecialSpacing = {
L = symbols;
R = symbols;
};
};
},
{
glyphname = yen;
lastChange = "2023-03-01 05:13:04 +0000";
layers = (
{
layerId = "043639A7-E62C-4A4F-99F5-E7AE759848D8";
shapes = (
{
closed = 1;
nodes = (
(626,0,l),
(626,727,l),
(963,1708,l),
(702,1708,l),
(504,992,l),
(492,992,l),
(294,1708,l),
(33,1708,l),
(368,727,l),
(368,0,l)
);
},
{
closed = 1;
nodes = (
(861,217,l),
(861,396,l),
(132,396,l),
(132,217,l)
);
},
{
closed = 1;
nodes = (
(861,548,l),
(861,727,l),
(132,727,l),
(132,548,l)
);
}
);
width = 996;
}
);
unicode = 165;
userData = {
KernOnSpecialSpacing = {
L = symbols;
R = symbols;
};
};
},
{
glyphname = plus;
lastChange = "2023-03-01 05:13:04 +0000";
layers = (
{
layerId = "043639A7-E62C-4A4F-99F5-E7AE759848D8";
shapes = (
{
closed = 1;
nodes = (
(511,368,l),
(511,691,l),
(785,691,l),
(785,887,l),
(511,887,l),
(511,1200,l),
(312,1200,l),
(312,887,l),
(40,887,l),
(40,691,l),
(312,691,l),
(312,368,l)
);
}
);
width = 825;
}
);
unicode = 43;
userData = {
KernOnSpecialSpacing = {
L = math;
R = math;
};
};
},
{
glyphname = minus;
lastChange = "2023-03-01 05:13:04 +0000";
layers = (
{
layerId = "043639A7-E62C-4A4F-99F5-E7AE759848D8";
shapes = (
{
closed = 1;
nodes = (
(866,691,l),
(866,887,l),
(121,887,l),
(121,691,l)
);
}
);
width = 987;
}
);
unicode = 8722;
userData = {
KernOnSpecialSpacing = {
L = math;
R = math;
};
};
},
{
glyphname = multiply;
lastChange = "2023-03-01 05:13:04 +0000";
layers = (
{
layerId = "043639A7-E62C-4A4F-99F5-E7AE759848D8";
shapes = (
{
closed = 1;
nodes = (
(61,551,l),
(660,1161,l),
(790,1029,l),
(191,419,l)
);
},
{
closed = 1;
nodes = (
(790,551,l),
(191,1161,l),
(61,1029,l),
(660,419,l)
);
}
);
width = 850;
}
);
unicode = 215;
userData = {
KernOnSpecialSpacing = {
L = math;
R = math;
};
};
},
{
glyphname = divide;
lastChange = "2023-03-01 05:13:04 +0000";
layers = (
{
layerId = "043639A7-E62C-4A4F-99F5-E7AE759848D8";
shapes = (
{
closed = 1;
nodes = (
(785,691,l),
(785,887,l),
(413,887,l),
(40,887,l),
(40,691,l)
);
},
{
closed = 1;
nodes = (
(496,215,o),
(541,277,o),
(541,377,cs),
(541,484,o),
(496,535,o),
(413,535,cs),
(331,535,o),
(277,493,o),
(277,377,cs),
(277,274,o),
(332,215,o),
(412,215,cs)
);
},
{
closed = 1;
nodes = (
(497,1043,o),
(542,1105,o),
(542,1205,cs),
(542,1312,o),
(497,1363,o),
(414,1363,cs),
(332,1363,o),
(278,1321,o),
(278,1205,cs),
(278,1102,o),
(333,1043,o),
(413,1043,cs)
);
}
);
width = 825;
}
);
unicode = 247;
userData = {
KernOnSpecialSpacing = {
L = math;
R = math;
};
com.typemytype.robofont.guides = (
{
angle = 90;
isGlobal = 0;
magnetic = 5;
x = 413;
y = 0;
}
);
};
},
{
glyphname = equal;
lastChange = "2023-03-01 05:13:04 +0000";
layers = (
{
layerId = "043639A7-E62C-4A4F-99F5-E7AE759848D8";
shapes = (
{
closed = 1;
nodes = (
(825,895,l),
(825,1090,l),
(81,1090,l),
(81,895,l)
);
},
{
closed = 1;
nodes = (
(825,488,l),
(825,683,l),
(81,683,l),
(81,488,l)
);
}
);
width = 906;
}
);
unicode = 61;
userData = {
KernOnSpecialSpacing = {
L = math;
R = math;
};
};
},
{
glyphname = notequal;
lastChange = "2023-03-01 03:27:41 +0000";
layers = (
{
layerId = "043639A7-E62C-4A4F-99F5-E7AE759848D8";
shapes = (
{
closed = 1;
nodes = (
(329,200,l),
(680,1369,l),
(521,1369,l),
(170,200,l)
);
},
{
closed = 1;
nodes = (
(825,488,l),
(825,683,l),
(81,683,l),
(81,488,l)
);
},
{
closed = 1;
nodes = (
(825,895,l),
(825,1090,l),
(81,1090,l),
(81,895,l)
);
}
);
width = 906;
}
);
unicode = 8800;
},
{
glyphname = less;
lastChange = "2023-03-01 05:13:04 +0000";
layers = (
{
layerId = "043639A7-E62C-4A4F-99F5-E7AE759848D8";
shapes = (
{
closed = 1;
nodes = (
(684,548,l),
(268,784,l),
(268,792,l),
(684,1027,l),
(684,1262,l),
(40,862,l),
(40,715,l),
(684,314,l)
);
}
);
width = 765;
}
);
unicode = 60;
userData = {
KernOnSpecialSpacing = {
L = math;
R = math;
};
com.typemytype.robofont.guides = (
{
angle = 90;
isGlobal = 0;
magnetic = 5;
x = 652;
y = 0;
}
);
};
},
{
color = 4;
glyphname = greaterequal;
lastChange = "2023-03-01 03:27:41 +0000";
layers = (
{
layerId = "043639A7-E62C-4A4F-99F5-E7AE759848D8";
shapes = (
{
closed = 1;
nodes = (
(684,830,l),
(684,977,l),
(40,1377,l),
(40,1142,l),
(456,907,l),
(456,899,l),
(40,663,l),
(40,429,l)
);
},
{
closed = 1;
nodes = (
(685,169,l),
(685,364,l),
(41,364,l),
(41,169,l)
);
}
);
width = 725;
}
);
metricLeft = plus;
metricRight = plus;
unicode = 8805;
},
{
color = 4;
glyphname = lessequal;
lastChange = "2023-03-01 03:27:41 +0000";
layers = (
{
layerId = "043639A7-E62C-4A4F-99F5-E7AE759848D8";
shapes = (
{
closed = 1;
nodes = (
(684,663,l),
(268,899,l),
(268,907,l),
(684,1142,l),
(684,1377,l),
(40,977,l),
(40,830,l),
(684,429,l)
);
},
{
closed = 1;
nodes = (
(685,169,l),
(685,364,l),
(41,364,l),
(41,169,l)
);
}
);
width = 725;
}
);
metricLeft = plus;
metricRight = plus;
unicode = 8804;
},
{
glyphname = plusminus;
lastChange = "2023-03-01 05:13:04 +0000";
layers = (
{
layerId = "043639A7-E62C-4A4F-99F5-E7AE759848D8";
shapes = (
{
closed = 1;
nodes = (
(551,537,l),
(551,860,l),
(825,860,l),
(825,1055,l),
(551,1055,l),
(551,1369,l),
(352,1369,l),
(352,1055,l),
(81,1055,l),
(81,860,l),
(352,860,l),
(352,537,l)
);
},
{
closed = 1;
nodes = (
(825,169,l),
(825,364,l),
(81,364,l),
(81,169,l)
);
}
);
width = 906;
}
);
unicode = 177;
userData = {
KernOnSpecialSpacing = {
L = math;
R = math;
};
com.typemytype.robofont.guides = (
{
angle = 90;
isGlobal = 0;
magnetic = 5;
x = 82;
y = 0;
}
);
};
},
{
glyphname = logicalnot;
lastChange = "2023-03-01 03:27:41 +0000";
layers = (
{
layerId = "043639A7-E62C-4A4F-99F5-E7AE759848D8";
shapes = (
{
closed = 1;
nodes = (
(900,368,l),
(900,887,l),
(40,887,l),
(40,692,l),
(702,692,l),
(702,368,l)
);
}
);
width = 981;
}
);
unicode = 172;
},
{
glyphname = asciitilde;
lastChange = "2023-03-01 05:13:04 +0000";
layers = (
{
layerId = "043639A7-E62C-4A4F-99F5-E7AE759848D8";
shapes = (
{
closed = 1;
nodes = (
(1064,399,o),
(1218,556,o),
(1159,869,c),
(967,869,l),
(999,687,o),
(963,588,o),
(871,588,cs),
(739,588,o),
(689,900,o),
(423,900,cs),
(250,900,o),
(98,797,o),
(125,450,c),
(311,450,l),
(288,603,o),
(328,708,o),
(429,708,cs),
(558,708,o),
(622,399,o),
(895,399,cs)
);
}
);
width = 1294;
}
);
unicode = 126;
userData = {
KernOnSpecialSpacing = {
L = math;
R = math;
};
};
},
{
glyphname = asciicircum;
lastChange = "2023-03-01 05:13:04 +0000";
layers = (
{
layerId = "043639A7-E62C-4A4F-99F5-E7AE759848D8";
shapes = (
{
closed = 1;
nodes = (
(249,277,l),
(408,1067,l),
(461,1385,l),
(486,1385,l),
(538,1067,l),
(700,277,l),
(919,277,l),
(585,1708,l),
(352,1708,l),
(30,277,l)
);
}
);
width = 949;
}
);
unicode = 94;
userData = {
KernOnSpecialSpacing = {
L = math;
R = math;
};
};
},
{
color = 4;
glyphname = infinity;
lastChange = "2023-03-01 03:27:41 +0000";
layers = (
{
layerId = "043639A7-E62C-4A4F-99F5-E7AE759848D8";
shapes = (
{
closed = 1;
nodes = (
(392,422,ls),
(521,422,o),
(588,526,o),
(621,620,c),
(633,620,l),
(666,526,o),
(733,422,o),
(862,422,cs),
(946,422,ls),
(1180,422,o),
(1214,693,o),
(1214,855,cs),
(1214,1016,o),
(1179,1287,o),
(946,1287,cs),
(862,1287,ls),
(732,1287,o),
(666,1183,o),
(633,1089,c),
(621,1089,l),
(589,1183,o),
(522,1287,o),
(393,1287,cs),
(309,1287,ls),
(75,1287,o),
(40,1016,o),
(40,855,cs),
(40,693,o),
(74,422,o),
(308,422,cs)
);
},
{
closed = 1;
nodes = (
(235,699,o),
(182,743,o),
(182,855,cs),
(182,967,o),
(236,1009,o),
(334,1009,cs),
(422,1009,ls),
(528,1009,o),
(563,957,o),
(563,868,cs),
(563,842,ls),
(563,761,o),
(531,699,o),
(421,699,cs),
(333,699,ls)
);
},
{
closed = 1;
nodes = (
(723,699,o),
(691,761,o),
(691,842,cs),
(691,868,ls),
(691,957,o),
(726,1009,o),
(832,1009,cs),
(920,1009,ls),
(1018,1009,o),
(1072,967,o),
(1072,855,cs),
(1072,743,o),
(1019,699,o),
(921,699,cs),
(833,699,ls)
);
}
);
width = 1254;
}
);
metricLeft = plus;
metricRight = plus;
unicode = 8734;
},
{
glyphname = integral;
lastChange = "2023-03-01 03:27:41 +0000";
layers = (
{
layerId = "043639A7-E62C-4A4F-99F5-E7AE759848D8";
shapes = (
{
closed = 1;
nodes = (
(266,-419,o),
(401,-358,o),
(401,-59,cs),
(401,1476,l),
(401,1596,o),
(459,1635,o),
(525,1635,cs),
(559,1635,o),
(592,1631,o),
(619,1624,c),
(619,1802,l),
(573,1825,o),
(500,1836,o),
(451,1836,cs),
(283,1836,o),
(148,1775,o),
(148,1476,cs),
(148,-59,ls),
(148,-179,o),
(90,-218,o),
(24,-218,cs),
(-10,-218,o),
(-43,-214,o),
(-70,-207,c),
(-70,-385,l),
(-24,-408,o),
(49,-419,o),
(98,-419,cs)
);
}
);
width = 606;
}
);
unicode = 8747;
userData = {
com.typemytype.robofont.guides = (
{
angle = 0;
isGlobal = 0;
magnetic = 5;
x = 0;
y = 1836;
},
{
angle = 90;
isGlobal = 0;
magnetic = 5;
x = 1212;
y = 0;
},
{
angle = 90;
isGlobal = 0;
magnetic = 5;
x = 711;
y = 0;
}
);
};
},
{
color = 4;
glyphname = increment;
lastChange = "2023-03-01 03:27:41 +0000";
layers = (
{
layerId = "043639A7-E62C-4A4F-99F5-E7AE759848D8";
shapes = (
{
closed = 1;
nodes = (
(943,0,l),
(624,1708,l),
(332,1708,l),
(14,0,l)
);
},
{
closed = 1;
nodes = (
(473,1356,l),
(484,1356,l),
(654,195,l),
(303,195,l)
);
}
);
width = 957;
}
);
unicode = 8710;
},
{
glyphname = product;
lastChange = "2023-03-01 03:27:41 +0000";
layers = (
{
anchors = (
{
name = btm;
pos = (368,-100);
},
{
name = top;
pos = (368,500);
}
);
layerId = "043639A7-E62C-4A4F-99F5-E7AE759848D8";
shapes = (
{
closed = 1;
nodes = (
(498,-443,l),
(498,1504,l),
(749,1504,l),
(749,-443,l),
(1008,-443,l),
(1008,1504,l),
(1232,1504,l),
(1232,1708,l),
(24,1708,l),
(24,1504,l),
(239,1504,l),
(239,-443,l)
);
}
);
width = 1256;
}
);
metricLeft = T;
metricRight = T;
unicode = 8719;
},
{
glyphname = summation;
lastChange = "2023-03-01 03:27:41 +0000";
layers = (
{
layerId = "043639A7-E62C-4A4F-99F5-E7AE759848D8";
shapes = (
{
closed = 1;
nodes = (
(745,-443,l),
(745,-239,l),
(314,-239,l),
(644,633,l),
(314,1504,l),
(745,1504,l),
(745,1708,l),
(24,1708,l),
(24,1571,l),
(390,634,l),
(24,-306,l),
(24,-443,l)
);
}
);
width = 771;
}
);
metricLeft = Z;
metricRight = E;
unicode = 8721;
},
{
glyphname = radical;
lastChange = "2023-03-01 03:27:41 +0000";
layers = (
{
layerId = "043639A7-E62C-4A4F-99F5-E7AE759848D8";
shapes = (
{
closed = 1;
nodes = (
(635,0,l),
(1118,2061,l),
(874,2061,l),
(573,642,l),
(535,350,l),
(527,350,l),
(494,642,l),
(373,1190,l),
(121,1190,l),
(419,0,l)
);
},
{
closed = 1;
nodes = (
(297,994,l),
(297,1137,l),
(122,1190,l),
(26,1190,l),
(26,994,l)
);
}
);
width = 1023;
}
);
unicode = 8730;
},
{
glyphname = micro;
lastChange = "2022-11-28 00:42:14 +0000";
layers = (
{
layerId = "043639A7-E62C-4A4F-99F5-E7AE759848D8";
shapes = (
{
closed = 1;
nodes = (
(358,-328,l),
(351,44,l),
(359,43,l),
(401,-7,o),
(440,-16,o),
(485,-16,cs),
(553,-16,o),
(630,35,o),
(670,96,c),
(687,0,l),
(893,0,l),
(893,1377,l),
(627,1377,l),
(627,256,l),
(585,206,o),
(541,193,o),
(495,193,cs),
(416,193,o),
(378,234,o),
(378,356,cs),
(378,1377,l),
(116,1377,l),
(117,-328,l)
);
}
);
width = 1026;
}
);
unicode = 181;
userData = {
com.typemytype.robofont.guides = (
{
angle = 90;
isGlobal = 0;
magnetic = 5;
x = 379;
y = 0;
}
);
};
},
{
glyphname = partialdiff;
lastChange = "2023-03-01 03:27:41 +0000";
layers = (
{
layerId = "043639A7-E62C-4A4F-99F5-E7AE759848D8";
shapes = (
{
closed = 1;
nodes = (
(646,-15,o),
(871,47,o),
(871,597,cs),
(871,789,ls),
(871,1399,o),
(609,2039,o),
(118,2039,c),
(118,1873,l),
(329,1869,o),
(487,1697,o),
(551,1367,c),
(527,1378,o),
(514,1386,o),
(445,1386,cs),
(339,1386,o),
(92,1343,o),
(92,795,cs),
(92,597,ls),
(92,39,o),
(311,-15,o),
(487,-15,cs)
);
},
{
closed = 1;
nodes = (
(386,149,o),
(366,237,o),
(366,489,cs),
(366,881,ls),
(366,1133,o),
(386,1224,o),
(489,1224,cs),
(588,1224,o),
(605,1133,o),
(605,881,cs),
(605,489,ls),
(605,237,o),
(588,149,o),
(489,149,cs)
);
}
);
width = 963;
}
);
unicode = 8706;
},
{
glyphname = percent;
lastChange = "2023-03-01 05:13:04 +0000";
layers = (
{
layerId = "043639A7-E62C-4A4F-99F5-E7AE759848D8";
shapes = (
{
closed = 1;
nodes = (
(802,0,l),
(1261,1727,l),
(1080,1727,l),
(620,0,l)
);
},
{
closed = 1;
nodes = (
(608,786,o),
(794,855,o),
(794,1221,cs),
(794,1328,ls),
(794,1697,o),
(612,1748,o),
(475,1748,cs),
(333,1748,o),
(151,1693,o),
(151,1328,cs),
(151,1221,ls),
(151,850,o),
(323,786,o),
(474,786,cs)
);
},
{
closed = 1;
nodes = (
(389,945,o),
(357,1016,o),
(357,1169,cs),
(357,1363,ls),
(357,1517,o),
(389,1589,o),
(476,1589,cs),
(559,1589,o),
(589,1517,o),
(589,1363,cs),
(589,1169,ls),
(589,1016,o),
(559,945,o),
(476,945,cs)
);
},
{
closed = 1;
nodes = (
(1538,-15,o),
(1724,53,o),
(1724,420,cs),
(1724,527,ls),
(1724,896,o),
(1542,947,o),
(1405,947,cs),
(1264,947,o),
(1082,892,o),
(1082,527,cs),
(1082,420,l),
(1082,48,o),
(1253,-15,o),
(1404,-15,cs)
);
},
{
closed = 1;
nodes = (
(1319,144,o),
(1287,215,o),
(1287,368,cs),
(1287,562,ls),
(1287,716,o),
(1319,788,o),
(1406,788,cs),
(1489,788,o),
(1519,716,o),
(1519,562,cs),
(1519,368,ls),
(1519,215,o),
(1489,144,o),
(1406,144,cs)
);
}
);
width = 1875;
}
);
unicode = 37;
userData = {
KernOnSpecialSpacing = {
L = "spaced-off";
};
};
},
{
glyphname = perthousand;
lastChange = "2023-03-01 03:27:41 +0000";
layers = (
{
layerId = "043639A7-E62C-4A4F-99F5-E7AE759848D8";
shapes = (
{
closed = 1;
nodes = (
(802,0,l),
(1261,1727,l),
(1080,1727,l),
(620,0,l)
);
},
{
closed = 1;
nodes = (
(608,786,o),
(794,855,o),
(794,1221,cs),
(794,1328,ls),
(794,1697,o),
(612,1748,o),
(475,1748,cs),
(333,1748,o),
(151,1693,o),
(151,1328,cs),
(151,1221,ls),
(151,850,o),
(323,786,o),
(474,786,cs)
);
},
{
closed = 1;
nodes = (
(389,945,o),
(357,1016,o),
(357,1169,cs),
(357,1363,ls),
(357,1517,o),
(389,1589,o),
(476,1589,cs),
(559,1589,o),
(589,1517,o),
(589,1363,cs),
(589,1169,ls),
(589,1016,o),
(559,945,o),
(476,945,cs)
);
},
{
closed = 1;
nodes = (
(1538,-15,o),
(1724,53,o),
(1724,420,cs),
(1724,527,ls),
(1724,896,o),
(1542,947,o),
(1405,947,cs),
(1264,947,o),
(1082,892,o),
(1082,527,cs),
(1082,420,l),
(1082,48,o),
(1253,-15,o),
(1404,-15,cs)
);
},
{
closed = 1;
nodes = (
(1319,144,o),
(1287,215,o),
(1287,368,cs),
(1287,562,ls),
(1287,716,o),
(1319,788,o),
(1406,788,cs),
(1489,788,o),
(1519,716,o),
(1519,562,cs),
(1519,368,ls),
(1519,215,o),
(1489,144,o),
(1406,144,cs)
);
},
{
closed = 1;
nodes = (
(2328,-15,o),
(2514,53,o),
(2514,420,cs),
(2514,527,ls),
(2514,896,o),
(2332,947,o),
(2195,947,cs),
(2054,947,o),
(1872,892,o),
(1872,527,cs),
(1872,420,ls),
(1872,48,o),
(2043,-15,o),
(2194,-15,cs)
);
},
{
closed = 1;
nodes = (
(2109,144,o),
(2077,215,o),
(2077,368,c),
(2077,562,ls),
(2077,716,o),
(2109,788,o),
(2196,788,cs),
(2279,788,o),
(2309,716,o),
(2309,562,cs),
(2309,368,ls),
(2309,215,o),
(2279,144,o),
(2196,144,cs)
);
}
);
width = 2666;
}
);
unicode = 8240;
},
{
color = 1;
glyphname = upArrow;
lastChange = "2023-03-01 05:13:04 +0000";
layers = (
{
background = {
shapes = (
{
closed = 1;
nodes = (
(612,687,l),
(599,909,l),
(711,512,l),
(958,512,l),
(614,1377,l),
(385,1377,l),
(40,512,l),
(287,512,l),
(401,909,l),
(388,687,l),
(388,0,l),
(612,0,l)
);
}
);
};
layerId = "043639A7-E62C-4A4F-99F5-E7AE759848D8";
shapes = (
{
closed = 1;
nodes = (
(610,0,l),
(610,627,l),
(597,849,l),
(711,512,l),
(958,512,l),
(548,1377,l),
(449,1377,l),
(40,512,l),
(287,512,l),
(401,849,l),
(388,627,l),
(388,0,l)
);
}
);
width = 998;
}
);
metricLeft = plus;
metricRight = plus;
unicode = 8593;
userData = {
KernOnSpecialSpacing = {
L = NoKerning;
R = NoKerning;
};
};
},
{
color = 1;
glyphname = rightArrow;
lastChange = "2023-03-01 05:13:04 +0000";
layers = (
{
layerId = "043639A7-E62C-4A4F-99F5-E7AE759848D8";
shapes = (
{
closed = 1;
nodes = (
(1417,640,l),
(1417,739,l),
(552,1148,l),
(552,901,l),
(889,787,l),
(667,800,l),
(40,800,l),
(40,578,l),
(667,578,l),
(889,591,l),
(552,477,l),
(552,230,l)
);
}
);
width = 1457;
}
);
metricLeft = plus;
metricRight = plus;
unicode = 8594;
userData = {
KernOnSpecialSpacing = {
L = NoKerning;
R = NoKerning;
};
};
},
{
color = 1;
glyphname = downArrow;
lastChange = "2023-03-01 05:13:04 +0000";
layers = (
{
layerId = "043639A7-E62C-4A4F-99F5-E7AE759848D8";
shapes = (
{
closed = 1;
nodes = (
(548,0,l),
(958,865,l),
(711,865,l),
(597,528,l),
(610,750,l),
(610,1377,l),
(388,1377,l),
(388,750,l),
(401,528,l),
(287,865,l),
(40,865,l),
(449,0,l)
);
}
);
width = 998;
}
);
metricLeft = plus;
metricRight = plus;
unicode = 8595;
userData = {
KernOnSpecialSpacing = {
L = NoKerning;
R = NoKerning;
};
};
},
{
color = 1;
glyphname = leftArrow;
lastChange = "2023-03-01 05:13:04 +0000";
layers = (
{
layerId = "043639A7-E62C-4A4F-99F5-E7AE759848D8";
shapes = (
{
closed = 1;
nodes = (
(905,477,l),
(568,591,l),
(790,578,l),
(1417,578,l),
(1417,800,l),
(790,800,l),
(568,787,l),
(905,901,l),
(905,1148,l),
(40,739,l),
(40,640,l),
(905,230,l)
);
}
);
width = 1457;
}
);
metricLeft = plus;
metricRight = plus;
unicode = 8592;
userData = {
KernOnSpecialSpacing = {
L = NoKerning;
R = NoKerning;
};
};
},
{
color = 1;
glyphname = dottedCircle;
lastChange = "2023-03-01 03:27:41 +0000";
layers = (
{
anchors = (
{
name = bottom;
pos = (955,0);
},
{
name = top;
pos = (955,2096);
}
);
layerId = "043639A7-E62C-4A4F-99F5-E7AE759848D8";
shapes = (
{
closed = 1;
nodes = (
(1702,1307,o),
(1756,1361,o),
(1756,1436,cs),
(1756,1511,o),
(1702,1565,o),
(1627,1565,cs),
(1552,1565,o),
(1497,1511,o),
(1497,1436,cs),
(1497,1361,o),
(1552,1307,o),
(1627,1307,cs)
);
},
{
closed = 1;
nodes = (
(642,247,o),
(696,301,o),
(696,376,cs),
(696,451,o),
(642,506,o),
(567,506,cs),
(492,506,o),
(438,451,o),
(438,376,cs),
(438,301,o),
(492,247,o),
(567,247,cs)
);
},
{
closed = 1;
nodes = (
(358,531,o),
(413,585,o),
(413,660,cs),
(413,735,o),
(358,789,o),
(283,789,cs),
(208,789,o),
(154,735,o),
(154,660,cs),
(154,585,o),
(208,531,o),
(283,531,cs)
);
},
{
closed = 1;
nodes = (
(1030,143,o),
(1084,198,o),
(1084,272,cs),
(1084,347,o),
(1030,402,o),
(955,402,cs),
(880,402,o),
(826,347,o),
(826,272,cs),
(826,198,o),
(880,143,o),
(955,143,cs)
);
},
{
closed = 1;
nodes = (
(254,919,o),
(309,973,o),
(309,1048,cs),
(309,1123,o),
(254,1177,o),
(179,1177,cs),
(105,1177,o),
(50,1123,o),
(50,1048,cs),
(50,973,o),
(105,919,o),
(179,919,cs)
);
},
{
closed = 1;
nodes = (
(1418,247,o),
(1472,301,o),
(1472,376,cs),
(1472,451,o),
(1418,506,o),
(1343,506,cs),
(1268,506,o),
(1214,451,o),
(1214,376,cs),
(1214,301,o),
(1268,247,o),
(1343,247,cs)
);
},
{
closed = 1;
nodes = (
(358,1307,o),
(413,1361,o),
(413,1436,cs),
(413,1511,o),
(358,1565,o),
(283,1565,cs),
(208,1565,o),
(154,1511,o),
(154,1436,cs),
(154,1361,o),
(208,1307,o),
(283,1307,cs)
);
},
{
closed = 1;
nodes = (
(1702,531,o),
(1756,585,o),
(1756,660,cs),
(1756,735,o),
(1702,789,o),
(1627,789,cs),
(1552,789,o),
(1497,735,o),
(1497,660,cs),
(1497,585,o),
(1552,531,o),
(1627,531,cs)
);
},
{
closed = 1;
nodes = (
(642,1590,o),
(696,1645,o),
(696,1720,cs),
(696,1795,o),
(642,1849,o),
(567,1849,cs),
(492,1849,o),
(438,1795,o),
(438,1720,cs),
(438,1645,o),
(492,1590,o),
(567,1590,cs)
);
},
{
closed = 1;
nodes = (
(1030,1694,o),
(1084,1749,o),
(1084,1824,cs),
(1084,1898,o),
(1030,1953,o),
(955,1953,cs),
(880,1953,o),
(826,1898,o),
(826,1824,cs),
(826,1749,o),
(880,1694,o),
(955,1694,cs)
);
},
{
closed = 1;
nodes = (
(1805,919,o),
(1860,973,o),
(1860,1048,cs),
(1860,1123,o),
(1805,1177,o),
(1731,1177,cs),
(1656,1177,o),
(1601,1123,o),
(1601,1048,cs),
(1601,973,o),
(1656,919,o),
(1731,919,cs)
);
},
{
closed = 1;
nodes = (
(1418,1590,o),
(1472,1645,o),
(1472,1720,cs),
(1472,1795,o),
(1418,1849,o),
(1343,1849,cs),
(1268,1849,o),
(1214,1795,o),
(1214,1720,cs),
(1214,1645,o),
(1268,1590,o),
(1343,1590,cs)
);
}
);
width = 1910;
}
);
metricLeft = "=50";
metricRight = "=|";
unicode = 9676;
},
{
color = 1;
glyphname = lozenge;
lastChange = "2023-03-01 03:27:41 +0000";
layers = (
{
background = {
shapes = (
{
closed = 1;
nodes = (
(643,0,l),
(868,841,l),
(643,1708,l),
(410,1708,l),
(192,841,l),
(410,0,l)
);
},
{
closed = 1;
nodes = (
(519,1424,l),
(544,1424,l),
(661,841,l),
(544,283,l),
(519,283,l),
(401,841,l)
);
}
);
};
layerId = "043639A7-E62C-4A4F-99F5-E7AE759848D8";
shapes = (
{
closed = 1;
nodes = (
(667,0,l),
(939,854,l),
(667,1708,l),
(385,1708,l),
(121,854,l),
(385,0,l)
);
},
{
closed = 1;
nodes = (
(374,854,l),
(517,1425,l),
(547,1425,l),
(689,854,l),
(547,284,l),
(517,284,l)
);
}
);
width = 1060;
}
);
metricLeft = hyphen;
metricRight = "=|";
unicode = 9674;
},
{
color = 9;
glyphname = dieresiscomb;
lastChange = "2023-03-01 05:13:04 +0000";
layers = (
{
anchors = (
{
name = _top;
pos = (1,1377);
},
{
name = top;
pos = (1,1779);
}
);
layerId = "043639A7-E62C-4A4F-99F5-E7AE759848D8";
shapes = (
{
closed = 1;
nodes = (
(-222,1510,cs),
(-113,1510,o),
(-77,1572,o),
(-77,1675,cs),
(-77,1792,o),
(-113,1849,o),
(-222,1849,cs),
(-328,1849,o),
(-359,1789,o),
(-359,1675,cs),
(-359,1568,o),
(-326,1510,o)
);
},
{
closed = 1;
nodes = (
(215,1510,cs),
(324,1510,o),
(361,1572,o),
(361,1675,cs),
(361,1792,o),
(324,1849,o),
(215,1849,cs),
(109,1849,o),
(79,1789,o),
(79,1675,cs),
(79,1568,o),
(111,1510,o)
);
}
);
width = 0;
}
);
unicode = 776;
userData = {
KernOnSpecialSpacing = {
L = NoKerning;
R = NoKerning;
};
com.typemytype.robofont.mark = (
0.967,
0.6,
1,
1
);
};
},
{
color = 9;
glyphname = dotaccentcomb;
lastChange = "2023-03-01 05:13:04 +0000";
layers = (
{
anchors = (
{
name = _top;
pos = (2,1377);
},
{
name = top;
pos = (2,1899);
}
);
layerId = "043639A7-E62C-4A4F-99F5-E7AE759848D8";
shapes = (
{
closed = 1;
nodes = (
(0,1538,cs),
(99,1538,o),
(158,1602,o),
(158,1706,cs),
(158,1817,o),
(100,1869,o),
(1,1869,cs),
(-94,1869,o),
(-155,1825,o),
(-155,1706,cs),
(-155,1599,o),
(-93,1538,o)
);
}
);
width = 0;
}
);
unicode = 775;
userData = {
KernOnSpecialSpacing = {
L = NoKerning;
R = NoKerning;
};
com.typemytype.robofont.mark = (
0.967,
0.6,
1,
1
);
};
},
{
color = 9;
glyphname = gravecomb;
lastChange = "2023-03-01 05:18:59 +0000";
layers = (
{
anchors = (
{
name = _top;
pos = (-104,1377);
},
{
name = top;
pos = (-104,1883);
}
);
layerId = "043639A7-E62C-4A4F-99F5-E7AE759848D8";
shapes = (
{
closed = 1;
nodes = (
(-70,1462,l),
(55,1567,l),
(-235,1983,l),
(-404,1846,l)
);
}
);
width = 0;
}
);
unicode = 768;
userData = {
KernOnSpecialSpacing = {
L = NoKerning;
R = NoKerning;
};
com.typemytype.robofont.mark = (
0.967,
0.6,
1,
1
);
};
},
{
color = 9;
glyphname = acutecomb;
lastChange = "2023-03-01 05:18:47 +0000";
layers = (
{
anchors = (
{
name = _top;
pos = (105,1377);
},
{
name = top;
pos = (105,1983);
}
);
layerId = "043639A7-E62C-4A4F-99F5-E7AE759848D8";
shapes = (
{
closed = 1;
nodes = (
(80,1462,l),
(414,1846,l),
(245,1983,l),
(-45,1567,l)
);
}
);
width = 0;
}
);
unicode = 769;
userData = {
KernOnSpecialSpacing = {
L = NoKerning;
R = NoKerning;
};
com.typemytype.robofont.mark = (
0.967,
0.6,
1,
1
);
};
},
{
color = 9;
glyphname = hungarumlautcomb;
lastChange = "2023-03-01 05:13:04 +0000";
layers = (
{
anchors = (
{
name = _top;
pos = (167,1377);
},
{
name = top;
pos = (167,1993);
}
);
layerId = "043639A7-E62C-4A4F-99F5-E7AE759848D8";
shapes = (
{
closed = 1;
nodes = (
(-134,1462,l),
(180,1856,l),
(15,1993,l),
(-255,1567,l)
);
},
{
closed = 1;
nodes = (
(255,1462,l),
(589,1846,l),
(425,1983,l),
(135,1567,l)
);
}
);
width = 0;
}
);
unicode = 779;
userData = {
KernOnSpecialSpacing = {
L = NoKerning;
R = NoKerning;
};
com.typemytype.robofont.mark = (
0.967,
0.6,
1,
1
);
};
},
{
color = 0;
glyphname = caroncomb.alt;
lastChange = "2023-03-01 05:13:04 +0000";
layers = (
{
anchors = (
{
name = _topright;
pos = (130,1377);
}
);
layerId = "043639A7-E62C-4A4F-99F5-E7AE759848D8";
shapes = (
{
closed = 1;
nodes = (
(130,1447,l),
(341,1447,l),
(387,1820,l),
(150,1820,l)
);
}
);
width = 502;
}
);
userData = {
KernOnSpecialSpacing = {
L = NoKerning;
R = NoKerning;
};
};
},
{
color = 9;
glyphname = circumflexcomb;
lastChange = "2023-03-01 05:13:04 +0000";
layers = (
{
anchors = (
{
name = _top;
pos = (481,1377);
},
{
name = top;
pos = (481,1996);
}
);
layerId = "043639A7-E62C-4A4F-99F5-E7AE759848D8";
shapes = (
{
closed = 1;
nodes = (
(391,1996,l),
(121,1505,l),
(339,1505,l),
(433,1697,l),
(483,1829,l),
(534,1697,l),
(622,1505,l),
(841,1505,l),
(565,1996,l)
);
}
);
width = 962;
}
);
metricLeft = hyphen;
metricRight = hyphen;
unicode = 770;
userData = {
KernOnSpecialSpacing = {
L = NoKerning;
R = NoKerning;
};
com.typemytype.robofont.mark = (
0.967,
0.6,
1,
1
);
};
},
{
color = 9;
glyphname = caroncomb;
lastChange = "2023-03-01 05:13:04 +0000";
layers = (
{
anchors = (
{
name = _top;
pos = (0,1377);
},
{
name = top;
pos = (0,1996);
}
);
layerId = "043639A7-E62C-4A4F-99F5-E7AE759848D8";
shapes = (
{
closed = 1;
nodes = (
(84,1505,l),
(360,1996,l),
(141,1996,l),
(53,1804,l),
(2,1672,l),
(-48,1804,l),
(-142,1996,l),
(-360,1996,l),
(-90,1505,l)
);
}
);
width = 0;
}
);
unicode = 780;
userData = {
KernOnSpecialSpacing = {
L = NoKerning;
R = NoKerning;
};
com.typemytype.robofont.mark = (
0.967,
0.6,
1,
1
);
};
},
{
color = 9;
glyphname = brevecomb;
lastChange = "2023-03-01 05:13:04 +0000";
layers = (
{
anchors = (
{
name = _top;
pos = (5,1377);
},
{
name = top;
pos = (5,1877);
}
);
layerId = "043639A7-E62C-4A4F-99F5-E7AE759848D8";
shapes = (
{
closed = 1;
nodes = (
(324,1662,o),
(218,1504,o),
(0,1504,cs),
(-213,1504,o),
(-314,1654,o),
(-314,1810,cs),
(-314,1833,o),
(-312,1855,o),
(-308,1877,c),
(-130,1877,l),
(-139,1855,o),
(-140,1831,o),
(-140,1806,cs),
(-140,1736,o),
(-95,1667,o),
(-1,1667,cs),
(105,1667,o),
(157,1739,o),
(157,1806,cs),
(157,1831,o),
(160,1856,o),
(149,1877,c),
(318,1877,l),
(322,1855,o),
(324,1833,o),
(324,1810,cs)
);
}
);
width = 0;
}
);
unicode = 774;
userData = {
KernOnSpecialSpacing = {
L = NoKerning;
R = NoKerning;
};
com.typemytype.robofont.mark = (
0.967,
0.6,
1,
1
);
};
},
{
color = 9;
glyphname = ringcomb;
lastChange = "2023-03-01 05:13:04 +0000";
layers = (
{
anchors = (
{
name = _top;
pos = (5,1377);
},
{
name = top;
pos = (5,2102);
}
);
layerId = "043639A7-E62C-4A4F-99F5-E7AE759848D8";
shapes = (
{
closed = 1;
nodes = (
(-1,1664,cs),
(105,1664,o),
(157,1730,o),
(157,1797,cs),
(157,1879,o),
(105,1939,o),
(-1,1939,cs),
(-97,1939,o),
(-140,1877,o),
(-140,1797,cs),
(-140,1727,o),
(-95,1664,o)
);
},
{
closed = 1;
nodes = (
(0,1501,cs),
(-213,1501,o),
(-314,1645,o),
(-314,1801,cs),
(-314,1962,o),
(-217,2102,o),
(0,2102,cs),
(218,2102,o),
(324,1965,o),
(324,1801,cs),
(324,1653,o),
(218,1501,o)
);
}
);
width = 0;
}
);
unicode = 778;
userData = {
KernOnSpecialSpacing = {
L = NoKerning;
R = NoKerning;
};
com.typemytype.robofont.mark = (
0.967,
0.6,
1,
1
);
};
},
{
color = 9;
glyphname = tildecomb;
lastChange = "2023-03-01 05:13:04 +0000";
layers = (
{
anchors = (
{
name = _top;
pos = (1,1377);
},
{
name = top;
pos = (1,1892);
}
);
layerId = "043639A7-E62C-4A4F-99F5-E7AE759848D8";
shapes = (
{
closed = 1;
nodes = (
(166,1497,cs),
(274,1497,o),
(374,1575,o),
(374,1728,cs),
(374,1753,o),
(371,1776,o),
(363,1823,c),
(204,1823,l),
(204,1736,ls),
(204,1695,o),
(183,1677,o),
(154,1677,cs),
(112,1677,o),
(63,1732,o),
(28,1765,cs),
(-25,1816,o),
(-74,1842,o),
(-152,1842,cs),
(-270,1842,o),
(-373,1794,o),
(-373,1607,cs),
(-373,1593,o),
(-370,1540,o),
(-369,1525,c),
(-191,1525,l),
(-191,1597,ls),
(-191,1637,o),
(-176,1661,o),
(-148,1661,cs),
(-107,1661,o),
(-90,1631,o),
(-26,1575,c),
(30,1524,o),
(84,1497,o)
);
}
);
width = 0;
}
);
unicode = 771;
userData = {
KernOnSpecialSpacing = {
L = NoKerning;
R = NoKerning;
};
com.typemytype.robofont.mark = (
0.967,
0.6,
1,
1
);
};
},
{
color = 9;
glyphname = macroncomb;
lastChange = "2023-03-01 05:13:04 +0000";
layers = (
{
anchors = (
{
name = _top;
pos = (1,1377);
},
{
name = top;
pos = (1,1696);
}
);
layerId = "043639A7-E62C-4A4F-99F5-E7AE759848D8";
shapes = (
{
closed = 1;
nodes = (
(-311,1553,l),
(312,1553,l),
(312,1746,l),
(-311,1746,l)
);
}
);
width = 0;
}
);
unicode = 772;
userData = {
KernOnSpecialSpacing = {
L = NoKerning;
R = NoKerning;
};
com.typemytype.robofont.mark = (
0.967,
0.6,
1,
1
);
};
},
{
color = 0;
glyphname = hookabovecomb;
lastChange = "2023-02-28 19:46:24 +0000";
layers = (
{
anchors = (
{
name = _top;
pos = (334,1377);
},
{
name = top;
pos = (334,1958);
}
);
layerId = "043639A7-E62C-4A4F-99F5-E7AE759848D8";
shapes = (
{
closed = 1;
nodes = (
(431,1505,o),
(518,1566,o),
(518,1674,cs),
(518,1804,o),
(391,1915,o),
(186,1936,c),
(150,1800,l),
(273,1789,o),
(350,1742,o),
(350,1679,cs),
(350,1636,o),
(312,1604,o),
(242,1604,c),
(242,1488,l)
);
}
);
width = 600;
}
);
unicode = 777;
},
{
color = 1;
glyphname = candraBinducomb;
lastChange = "2023-02-28 19:48:37 +0000";
layers = (
{
anchors = (
{
name = _top;
pos = (0,2096);
},
{
name = top;
}
);
layerId = "043639A7-E62C-4A4F-99F5-E7AE759848D8";
shapes = (
{
closed = 1;
nodes = (
(344,1451,cs),
(131,1451,o),
(30,1601,o),
(30,1757,cs),
(30,1780,o),
(32,1802,o),
(36,1824,c),
(214,1824,l),
(205,1802,o),
(204,1778,o),
(204,1753,cs),
(204,1683,o),
(249,1614,o),
(343,1614,cs),
(449,1614,o),
(501,1686,o),
(501,1753,cs),
(501,1778,o),
(504,1803,o),
(493,1824,c),
(662,1824,l),
(666,1802,o),
(668,1780,o),
(668,1757,cs),
(668,1609,o),
(562,1451,o)
);
},
{
closed = 1;
nodes = (
(345,1818,cs),
(413,1818,o),
(454,1862,o),
(454,1933,cs),
(454,2009,o),
(414,2045,o),
(346,2045,cs),
(281,2045,o),
(239,2015,o),
(239,1933,cs),
(239,1860,o),
(282,1818,o)
);
}
);
width = 698;
}
);
unicode = 784;
},
{
glyphname = commaturnedabovecomb;
lastChange = "2023-03-01 05:13:04 +0000";
layers = (
{
anchors = (
{
name = _top;
pos = (12,1377);
},
{
name = top;
pos = (12,2007);
}
);
layerId = "043639A7-E62C-4A4F-99F5-E7AE759848D8";
shapes = (
{
closed = 1;
nodes = (
(101,1573,l),
(163,2007,l),
(-32,2007,l),
(-140,1573,l)
);
}
);
width = 0;
}
);
unicode = 786;
userData = {
KernOnSpecialSpacing = {
L = NoKerning;
R = NoKerning;
};
com.typemytype.robofont.mark = (
0.967,
0.6,
1,
1
);
};
},
{
glyphname = commaaboverightcomb;
lastChange = "2023-02-28 19:22:57 +0000";
layers = (
{
anchors = (
{
name = _top;
pos = (118,1377);
},
{
name = top;
pos = (118,1819);
}
);
layerId = "043639A7-E62C-4A4F-99F5-E7AE759848D8";
shapes = (
{
closed = 1;
nodes = (
(0,1819,l),
(0,1471,l),
(191,1471,l),
(236,1819,l)
);
}
);
width = 0;
}
);
unicode = 789;
userData = {
com.typemytype.robofont.mark = (
0.967,
0.6,
1,
1
);
};
},
{
color = 1;
glyphname = horncomb;
lastChange = "2023-03-01 02:25:05 +0000";
layers = (
{
anchors = (
{
name = _topright;
pos = (121,1377);
},
{
name = topright;
pos = (-20,0);
}
);
layerId = "043639A7-E62C-4A4F-99F5-E7AE759848D8";
shapes = (
{
closed = 1;
nodes = (
(374,1258,o),
(556,1315,o),
(556,1541,cs),
(556,1565,o),
(557,1624,o),
(537,1683,c),
(345,1683,l),
(367,1638,o),
(379,1588,o),
(379,1562,cs),
(379,1448,o),
(333,1377,o),
(204,1377,c),
(121,1377,l),
(205,1258,l)
);
}
);
width = 677;
}
);
metricLeft = hyphen;
metricRight = hyphen;
unicode = 795;
},
{
glyphname = dotbelowcomb;
lastChange = "2023-02-28 19:22:57 +0000";
layers = (
{
anchors = (
{
name = _bottom;
pos = (1,0);
},
{
name = bottom;
pos = (1,-425);
}
);
layerId = "043639A7-E62C-4A4F-99F5-E7AE759848D8";
shapes = (
{
closed = 1;
nodes = (
(-156,-364,o),
(-94,-425,o),
(-1,-425,cs),
(98,-425,o),
(157,-361,o),
(157,-257,cs),
(157,-146,o),
(99,-94,o),
(0,-94,cs),
(-95,-94,o),
(-156,-138,o),
(-156,-257,cs)
);
}
);
width = 0;
}
);
unicode = 803;
userData = {
com.typemytype.robofont.mark = (
0.967,
0.6,
1,
1
);
};
},
{
glyphname = dieresisbelowcomb;
lastChange = "2023-02-28 19:22:57 +0000";
layers = (
{
anchors = (
{
name = _bottom;
pos = (390,0);
},
{
name = bottom;
pos = (390,-414);
}
);
layerId = "043639A7-E62C-4A4F-99F5-E7AE759848D8";
shapes = (
{
closed = 1;
nodes = (
(167,-414,cs),
(276,-414,o),
(312,-352,o),
(312,-249,cs),
(312,-132,o),
(276,-75,o),
(167,-75,cs),
(61,-75,o),
(30,-135,o),
(30,-249,cs),
(30,-356,o),
(63,-414,o)
);
},
{
closed = 1;
nodes = (
(604,-414,cs),
(713,-414,o),
(750,-352,o),
(750,-249,cs),
(750,-132,o),
(713,-75,o),
(604,-75,cs),
(498,-75,o),
(468,-135,o),
(468,-249,cs),
(468,-356,o),
(500,-414,o)
);
}
);
width = 780;
}
);
unicode = 804;
},
{
glyphname = ringbelowcomb;
lastChange = "2023-02-28 19:22:57 +0000";
layers = (
{
anchors = (
{
name = _bottom;
pos = (378,0);
},
{
name = bottom;
pos = (378,-497);
}
);
layerId = "043639A7-E62C-4A4F-99F5-E7AE759848D8";
shapes = (
{
closed = 1;
nodes = (
(373,-374,cs),
(473,-374,o),
(513,-324,o),
(513,-274,cs),
(513,-212,o),
(473,-167,o),
(373,-167,cs),
(281,-167,o),
(249,-214,o),
(249,-274,cs),
(249,-327,o),
(283,-374,o)
);
},
{
closed = 1;
nodes = (
(374,-497,cs),
(194,-497,o),
(118,-388,o),
(118,-271,cs),
(118,-150,o),
(191,-44,o),
(374,-44,cs),
(559,-44,o),
(638,-147,o),
(638,-271,cs),
(638,-382,o),
(559,-497,o)
);
}
);
width = 698;
}
);
unicode = 805;
},
{
glyphname = commaaccentcomb;
lastChange = "2023-03-01 05:13:04 +0000";
layers = (
{
anchors = (
{
name = _bottom;
pos = (-15,0);
},
{
name = bottom;
pos = (-15,-531);
}
);
layerId = "043639A7-E62C-4A4F-99F5-E7AE759848D8";
shapes = (
{
closed = 1;
nodes = (
(-105,-97,l),
(-167,-531,l),
(28,-531,l),
(136,-97,l)
);
}
);
width = 0;
}
);
unicode = 806;
userData = {
KernOnSpecialSpacing = {
L = NoKerning;
R = NoKerning;
};
com.typemytype.robofont.mark = (
0.967,
0.6,
1,
1
);
};
},
{
glyphname = cedillacomb;
lastChange = "2023-03-01 05:13:04 +0000";
layers = (
{
anchors = (
{
name = _bottom;
pos = (-74,0);
},
{
name = bottom;
pos = (-74,-419);
}
);
layerId = "043639A7-E62C-4A4F-99F5-E7AE759848D8";
shapes = (
{
closed = 1;
nodes = (
(-65,13,l),
(-68,-56,ls),
(-75,-211,o),
(-132,-239,o),
(-222,-239,cs),
(-233,-239,o),
(-244,-239,o),
(-255,-238,c),
(-262,-389,l),
(-207,-410,o),
(-166,-419,o),
(-111,-419,cs),
(-48,-419,o),
(130,-389,o),
(113,-104,cs),
(106,13,l)
);
}
);
width = 0;
}
);
unicode = 807;
userData = {
KernOnSpecialSpacing = {
L = NoKerning;
R = NoKerning;
};
com.typemytype.robofont.mark = (
0.967,
0.6,
1,
1
);
};
},
{
glyphname = ogonekcomb;
lastChange = "2023-03-01 05:13:04 +0000";
layers = (
{
anchors = (
{
name = _ogonek;
pos = (158,13);
}
);
layerId = "043639A7-E62C-4A4F-99F5-E7AE759848D8";
shapes = (
{
closed = 1;
nodes = (
(-111,0,l),
(-133,-20,o),
(-196,-90,o),
(-196,-194,cs),
(-196,-382,o),
(-56,-419,o),
(7,-419,cs),
(62,-419,o),
(103,-410,o),
(158,-389,c),
(151,-238,l),
(140,-239,o),
(129,-239,o),
(118,-239,cs),
(28,-239,o),
(-38,-134,o),
(83,0,c),
(-22,13,l)
);
}
);
width = 0;
}
);
unicode = 808;
userData = {
KernOnSpecialSpacing = {
L = NoKerning;
R = NoKerning;
};
com.typemytype.robofont.mark = (
0.967,
0.6,
1,
1
);
};
},
{
color = 0;
glyphname = circumflexbelowcomb;
lastChange = "2023-02-28 19:22:57 +0000";
layers = (
{
anchors = (
{
name = _bottom;
pos = (481,0);
},
{
name = bottom;
pos = (481,-466);
}
);
layerId = "043639A7-E62C-4A4F-99F5-E7AE759848D8";
shapes = (
{
closed = 1;
nodes = (
(391,-65,l),
(121,-466,l),
(339,-466,l),
(433,-314,l),
(483,-232,l),
(534,-314,l),
(622,-466,l),
(841,-466,l),
(565,-65,l)
);
}
);
width = 962;
}
);
metricLeft = hyphen;
metricRight = hyphen;
unicode = 813;
},
{
glyphname = brevebelowcomb;
lastChange = "2023-02-28 19:22:57 +0000";
layers = (
{
anchors = (
{
name = _bottom;
pos = (349,0);
},
{
name = bottom;
pos = (349,-444);
}
);
layerId = "043639A7-E62C-4A4F-99F5-E7AE759848D8";
shapes = (
{
closed = 1;
nodes = (
(344,-444,cs),
(131,-444,o),
(30,-294,o),
(30,-138,cs),
(30,-115,o),
(32,-93,o),
(36,-71,c),
(214,-71,l),
(205,-93,o),
(204,-117,o),
(204,-142,cs),
(204,-212,o),
(249,-281,o),
(343,-281,cs),
(449,-281,o),
(501,-209,o),
(501,-142,cs),
(501,-117,o),
(504,-92,o),
(493,-71,c),
(662,-71,l),
(666,-93,o),
(668,-115,o),
(668,-138,cs),
(668,-286,o),
(562,-444,o)
);
}
);
width = 698;
}
);
unicode = 814;
},
{
glyphname = macronbelowcomb;
lastChange = "2023-03-01 05:18:19 +0000";
layers = (
{
anchors = (
{
name = _bottom;
pos = (342,0);
},
{
name = bottom;
pos = (342,-319);
}
);
layerId = "043639A7-E62C-4A4F-99F5-E7AE759848D8";
shapes = (
{
closed = 1;
nodes = (
(30,-349,l),
(653,-349,l),
(653,-156,l),
(30,-156,l)
);
}
);
width = 683;
}
);
unicode = 817;
},
{
color = 0;
glyphname = strokeshortcomb;
lastChange = "2023-03-01 05:13:04 +0000";
layers = (
{
anchors = (
{
name = _center;
pos = (300,679);
}
);
layerId = "043639A7-E62C-4A4F-99F5-E7AE759848D8";
shapes = (
{
closed = 1;
nodes = (
(600,582,l),
(600,772,l),
(0,772,l),
(0,582,l)
);
}
);
width = 600;
}
);
unicode = 821;
userData = {
KernOnSpecialSpacing = {
L = NoKerning;
R = NoKerning;
};
};
},
{
color = 1;
glyphname = doublemacronbelowcomb;
lastChange = "2022-11-28 04:04:09 +0000";
layers = (
{
anchors = (
{
name = _bottom;
pos = (735,0);
},
{
name = bottom;
pos = (735,-319);
}
);
layerId = "043639A7-E62C-4A4F-99F5-E7AE759848D8";
shapes = (
{
closed = 1;
nodes = (
(1348,-319,l),
(1348,-126,l),
(121,-126,l),
(121,-319,l)
);
}
);
width = 1469;
}
);
metricLeft = hyphen;
metricRight = hyphen;
unicode = 863;
},
{
color = 9;
glyphname = brevecomb_acutecomb;
lastChange = "2023-03-01 02:43:46 +0000";
layers = (
{
anchors = (
{
name = _top;
pos = (408,1377);
}
);
layerId = "043639A7-E62C-4A4F-99F5-E7AE759848D8";
shapes = (
{
closed = 1;
nodes = (
(695,1646,o),
(600,1504,o),
(404,1504,cs),
(212,1504,o),
(121,1639,o),
(121,1779,cs),
(121,1800,o),
(123,1820,o),
(126,1840,c),
(287,1840,l),
(278,1820,o),
(278,1798,o),
(278,1776,cs),
(278,1713,o),
(318,1651,o),
(403,1651,cs),
(498,1651,o),
(545,1716,o),
(545,1776,cs),
(545,1798,o),
(548,1821,o),
(538,1840,c),
(690,1840,l),
(693,1820,o),
(695,1800,o),
(695,1779,cs)
);
},
{
closed = 1;
nodes = (
(450,1872,l),
(750,2217,l),
(598,2341,l),
(337,1966,l)
);
}
);
width = 871;
}
);
metricLeft = hyphen;
metricRight = hyphen;
},
{
color = 9;
glyphname = brevecomb_gravecomb;
lastChange = "2023-03-01 02:43:46 +0000";
layers = (
{
anchors = (
{
name = _top;
pos = (422,1377);
},
{
name = top;
pos = (422,2240);
}
);
layerId = "043639A7-E62C-4A4F-99F5-E7AE759848D8";
shapes = (
{
closed = 1;
nodes = (
(709,1646,o),
(614,1504,o),
(418,1504,cs),
(226,1504,o),
(135,1639,o),
(135,1779,cs),
(135,1800,o),
(137,1820,o),
(140,1840,c),
(301,1840,l),
(292,1820,o),
(292,1798,o),
(292,1776,cs),
(292,1713,o),
(332,1651,o),
(417,1651,cs),
(512,1651,o),
(559,1716,o),
(559,1776,cs),
(559,1798,o),
(562,1821,o),
(552,1840,c),
(704,1840,l),
(707,1820,o),
(709,1800,o),
(709,1779,cs)
);
},
{
closed = 1;
nodes = (
(273,2341,l),
(121,2217,l),
(421,1872,l),
(534,1966,l)
);
}
);
width = 830;
}
);
metricLeft = hyphen;
metricRight = hyphen;
},
{
color = 9;
glyphname = brevecomb_hookabovecomb;
lastChange = "2023-03-01 02:43:46 +0000";
layers = (
{
anchors = (
{
name = _top;
pos = (408,1377);
},
{
name = top;
pos = (401,0);
}
);
layerId = "043639A7-E62C-4A4F-99F5-E7AE759848D8";
shapes = (
{
closed = 1;
nodes = (
(545,1902,o),
(624,1957,o),
(624,2054,cs),
(624,2171,o),
(509,2271,o),
(325,2290,c),
(292,2168,l),
(403,2158,o),
(472,2116,o),
(472,2059,cs),
(472,2020,o),
(438,1991,o),
(375,1991,c),
(375,1887,l)
);
},
{
closed = 1;
nodes = (
(695,1646,o),
(600,1504,o),
(404,1504,cs),
(212,1504,o),
(121,1639,o),
(121,1779,cs),
(121,1800,o),
(123,1820,o),
(126,1840,c),
(287,1840,l),
(278,1820,o),
(278,1798,o),
(278,1776,cs),
(278,1713,o),
(318,1651,o),
(403,1651,cs),
(498,1651,o),
(545,1716,o),
(545,1776,cs),
(545,1798,o),
(548,1821,o),
(538,1840,c),
(690,1840,l),
(693,1820,o),
(695,1800,o),
(695,1779,cs)
);
}
);
width = 816;
}
);
metricLeft = hyphen;
metricRight = hyphen;
},
{
color = 9;
glyphname = brevecomb_tildecomb;
lastChange = "2023-03-01 02:43:46 +0000";
layers = (
{
anchors = (
{
name = _top;
pos = (423,1377);
}
);
layerId = "043639A7-E62C-4A4F-99F5-E7AE759848D8";
shapes = (
{
closed = 1;
nodes = (
(447,1939,o),
(491,1917,o),
(558,1917,cs),
(645,1917,o),
(726,1980,o),
(726,2104,cs),
(726,2124,o),
(724,2143,o),
(717,2181,c),
(588,2181,l),
(588,2111,ls),
(588,2077,o),
(571,2063,o),
(548,2063,cs),
(514,2063,o),
(474,2107,o),
(446,2134,cs),
(403,2175,o),
(363,2196,o),
(300,2196,cs),
(204,2196,o),
(121,2158,o),
(121,2006,cs),
(121,1995,o),
(123,1952,o),
(124,1940,c),
(268,1940,l),
(268,1998,ls),
(268,2030,o),
(281,2050,o),
(303,2050,cs),
(336,2050,o),
(350,2026,o),
(402,1980,c)
);
},
{
closed = 1;
nodes = (
(710,1646,o),
(615,1504,o),
(419,1504,cs),
(227,1504,o),
(136,1639,o),
(136,1779,cs),
(136,1800,o),
(138,1820,o),
(141,1840,c),
(302,1840,l),
(293,1820,o),
(293,1798,o),
(293,1776,cs),
(293,1713,o),
(333,1651,o),
(418,1651,cs),
(513,1651,o),
(560,1716,o),
(560,1776,cs),
(560,1798,o),
(563,1821,o),
(553,1840,c),
(705,1840,l),
(708,1820,o),
(710,1800,o),
(710,1779,cs)
);
}
);
width = 847;
}
);
metricLeft = hyphen;
metricRight = hyphen;
},
{
color = 9;
glyphname = circumflexcomb_acutecomb;
lastChange = "2023-03-01 02:43:46 +0000";
layers = (
{
anchors = (
{
name = _top;
pos = (481,1377);
},
{
name = top;
pos = (481,1996);
}
);
layerId = "043639A7-E62C-4A4F-99F5-E7AE759848D8";
shapes = (
{
closed = 1;
nodes = (
(400,1947,l),
(157,1505,l),
(353,1505,l),
(438,1678,l),
(483,1797,l),
(529,1678,l),
(608,1505,l),
(805,1505,l),
(557,1947,l)
);
},
{
closed = 1;
nodes = (
(777,1872,l),
(1077,2217,l),
(925,2341,l),
(664,1966,l)
);
}
);
width = 962;
}
);
},
{
color = 9;
glyphname = circumflexcomb_gravecomb;
lastChange = "2023-03-01 02:43:46 +0000";
layers = (
{
anchors = (
{
name = _top;
pos = (481,1377);
},
{
name = top;
pos = (481,1996);
}
);
layerId = "043639A7-E62C-4A4F-99F5-E7AE759848D8";
shapes = (
{
closed = 1;
nodes = (
(400,1947,l),
(157,1505,l),
(353,1505,l),
(438,1678,l),
(483,1797,l),
(529,1678,l),
(608,1505,l),
(805,1505,l),
(557,1947,l)
);
},
{
closed = 1;
nodes = (
(603,2341,l),
(451,2217,l),
(751,1872,l),
(864,1966,l)
);
}
);
width = 962;
}
);
},
{
color = 9;
glyphname = circumflexcomb_hookabovecomb;
lastChange = "2023-03-01 02:43:46 +0000";
layers = (
{
anchors = (
{
name = _top;
pos = (481,1377);
},
{
name = top;
}
);
layerId = "043639A7-E62C-4A4F-99F5-E7AE759848D8";
shapes = (
{
closed = 1;
nodes = (
(400,1947,l),
(157,1505,l),
(353,1505,l),
(438,1678,l),
(483,1797,l),
(529,1678,l),
(608,1505,l),
(805,1505,l),
(557,1947,l)
);
},
{
closed = 1;
nodes = (
(905,1802,o),
(984,1857,o),
(984,1954,cs),
(984,2071,o),
(869,2171,o),
(685,2190,c),
(652,2068,l),
(763,2058,o),
(832,2015,o),
(832,1959,cs),
(832,1920,o),
(798,1891,o),
(735,1891,c),
(735,1787,l)
);
}
);
width = 962;
}
);
},
{
color = 9;
glyphname = circumflexcomb_tildecomb;
lastChange = "2023-03-01 02:43:46 +0000";
layers = (
{
anchors = (
{
name = _top;
pos = (481,1377);
}
);
layerId = "043639A7-E62C-4A4F-99F5-E7AE759848D8";
shapes = (
{
closed = 1;
nodes = (
(364,1917,l),
(121,1505,l),
(317,1505,l),
(402,1658,l),
(447,1777,l),
(493,1658,l),
(572,1505,l),
(769,1505,l),
(521,1917,l)
);
},
{
closed = 1;
nodes = (
(469,2006,o),
(513,1984,o),
(580,1984,cs),
(667,1984,o),
(748,2047,o),
(748,2171,cs),
(748,2191,o),
(746,2210,o),
(739,2248,c),
(610,2248,l),
(610,2178,ls),
(610,2144,o),
(593,2130,o),
(570,2130,cs),
(536,2130,o),
(496,2174,o),
(468,2201,cs),
(425,2242,o),
(385,2263,o),
(322,2263,cs),
(226,2263,o),
(143,2225,o),
(143,2073,cs),
(143,2062,o),
(145,2019,o),
(146,2007,c),
(290,2007,l),
(290,2065,ls),
(290,2097,o),
(303,2117,o),
(325,2117,cs),
(358,2117,o),
(372,2093,o),
(424,2047,c)
);
}
);
width = 890;
}
);
metricLeft = hyphen;
metricRight = hyphen;
},
{
glyphname = dieresiscomb.case;
lastChange = "2023-03-01 02:45:40 +0000";
layers = (
{
anchors = (
{
name = _top;
pos = (1,1708);
},
{
name = top;
pos = (1,2079);
}
);
layerId = "043639A7-E62C-4A4F-99F5-E7AE759848D8";
shapes = (
{
closed = 1;
nodes = (
(-222,1784,cs),
(-113,1784,o),
(-77,1841,o),
(-77,1937,cs),
(-77,2047,o),
(-113,2099,o),
(-222,2099,cs),
(-328,2099,o),
(-359,2044,o),
(-359,1937,cs),
(-359,1837,o),
(-326,1784,o)
);
},
{
closed = 1;
nodes = (
(215,1784,cs),
(324,1784,o),
(361,1841,o),
(361,1937,cs),
(361,2047,o),
(324,2099,o),
(215,2099,cs),
(109,2099,o),
(79,2044,o),
(79,1937,cs),
(79,1837,o),
(111,1784,o)
);
}
);
width = 0;
}
);
userData = {
com.typemytype.robofont.mark = (
0.967,
0.6,
1,
1
);
};
},
{
glyphname = dotaccentcomb.case;
lastChange = "2023-03-01 02:45:49 +0000";
layers = (
{
anchors = (
{
name = _top;
pos = (2,1708);
},
{
name = top;
pos = (2,2101);
}
);
layerId = "043639A7-E62C-4A4F-99F5-E7AE759848D8";
shapes = (
{
closed = 1;
nodes = (
(0,1790,cs),
(99,1790,o),
(158,1854,o),
(158,1958,cs),
(158,2069,o),
(100,2121,o),
(1,2121,cs),
(-94,2121,o),
(-155,2077,o),
(-155,1958,cs),
(-155,1851,o),
(-93,1790,o)
);
}
);
width = 0;
}
);
userData = {
com.typemytype.robofont.mark = (
0.967,
0.6,
1,
1
);
};
},
{
glyphname = gravecomb.case;
lastChange = "2023-03-01 02:44:43 +0000";
layers = (
{
anchors = (
{
name = _top;
pos = (-126,1708);
},
{
name = top;
pos = (-126,2096);
}
);
layerId = "043639A7-E62C-4A4F-99F5-E7AE759848D8";
shapes = (
{
closed = 1;
nodes = (
(2,1850,l),
(-239,2136,l),
(-408,2009,l),
(-123,1756,l)
);
}
);
width = 0;
}
);
userData = {
com.typemytype.robofont.mark = (
0.967,
0.6,
1,
1
);
};
},
{
glyphname = acutecomb.case;
lastChange = "2023-03-01 02:44:43 +0000";
layers = (
{
anchors = (
{
name = _top;
pos = (125,1708);
},
{
name = top;
pos = (125,2086);
}
);
layerId = "043639A7-E62C-4A4F-99F5-E7AE759848D8";
shapes = (
{
closed = 1;
nodes = (
(410,2029,l),
(241,2156,l),
(0,1870,l),
(125,1776,l)
);
}
);
width = 0;
}
);
userData = {
com.typemytype.robofont.mark = (
0.967,
0.6,
1,
1
);
};
},
{
glyphname = hungarumlautcomb.case;
lastChange = "2023-03-01 02:44:43 +0000";
layers = (
{
anchors = (
{
name = _top;
pos = (80,1708);
},
{
name = top;
pos = (80,2086);
}
);
layerId = "043639A7-E62C-4A4F-99F5-E7AE759848D8";
shapes = (
{
closed = 1;
nodes = (
(-240,1733,l),
(55,1919,l),
(-74,2086,l),
(-345,1850,l)
);
},
{
closed = 1;
nodes = (
(210,1733,l),
(505,1919,l),
(376,2086,l),
(105,1850,l)
);
}
);
width = 0;
}
);
userData = {
com.typemytype.robofont.mark = (
0.967,
0.6,
1,
1
);
};
},
{
glyphname = circumflexcomb.case;
lastChange = "2023-03-01 05:17:25 +0000";
layers = (
{
anchors = (
{
name = _top;
pos = (-5,1708);
},
{
name = top;
pos = (-5,2086);
}
);
layerId = "043639A7-E62C-4A4F-99F5-E7AE759848D8";
shapes = (
{
closed = 1;
nodes = (
(111,1806,l),
(360,1806,l),
(114,2116,l),
(-120,2116,l),
(-370,1806,l),
(-122,1806,l),
(-38,1936,l),
(2,1992,l),
(42,1936,l)
);
}
);
width = 0;
}
);
userData = {
com.typemytype.robofont.mark = (
0.967,
0.6,
1,
1
);
};
},
{
glyphname = caroncomb.case;
lastChange = "2023-03-01 02:44:43 +0000";
layers = (
{
anchors = (
{
name = _top;
pos = (-5,1708);
},
{
name = top;
pos = (-5,2086);
}
);
layerId = "043639A7-E62C-4A4F-99F5-E7AE759848D8";
shapes = (
{
closed = 1;
nodes = (
(42,1956,l),
(2,1900,l),
(-38,1956,l),
(-122,2086,l),
(-370,2086,l),
(-120,1776,l),
(114,1776,l),
(360,2086,l),
(111,2086,l)
);
}
);
width = 0;
}
);
userData = {
com.typemytype.robofont.mark = (
0.967,
0.6,
1,
1
);
};
},
{
glyphname = brevecomb.case;
lastChange = "2023-03-01 02:49:11 +0000";
layers = (
{
anchors = (
{
name = _top;
pos = (5,1708);
},
{
name = top;
pos = (5,2089);
}
);
layerId = "043639A7-E62C-4A4F-99F5-E7AE759848D8";
shapes = (
{
closed = 1;
nodes = (
(0,1786,cs),
(-213,1786,o),
(-314,1896,o),
(-314,2052,cs),
(-314,2075,o),
(-312,2097,o),
(-308,2119,c),
(-130,2119,l),
(-139,2097,o),
(-140,2073,o),
(-140,2048,cs),
(-140,1978,o),
(-95,1949,o),
(-1,1949,cs),
(105,1949,o),
(157,1981,o),
(157,2048,cs),
(157,2073,o),
(160,2098,o),
(149,2119,c),
(318,2119,l),
(322,2097,o),
(324,2075,o),
(324,2052,cs),
(324,1904,o),
(218,1786,o)
);
}
);
width = 0;
}
);
userData = {
com.typemytype.robofont.mark = (
0.967,
0.6,
1,
1
);
};
},
{
glyphname = ringcomb.case;
lastChange = "2023-03-01 02:44:43 +0000";
layers = (
{
anchors = (
{
name = _top;
pos = (5,1708);
},
{
name = top;
pos = (5,2097);
}
);
layerId = "043639A7-E62C-4A4F-99F5-E7AE759848D8";
shapes = (
{
closed = 1;
nodes = (
(-1,1659,cs),
(105,1659,o),
(157,1725,o),
(157,1792,cs),
(157,1874,o),
(105,1934,o),
(-1,1934,cs),
(-97,1934,o),
(-140,1872,o),
(-140,1792,cs),
(-140,1722,o),
(-95,1659,o)
);
},
{
closed = 1;
nodes = (
(0,1496,cs),
(-213,1496,o),
(-314,1640,o),
(-314,1796,cs),
(-314,1957,o),
(-217,2097,o),
(0,2097,cs),
(218,2097,o),
(324,1960,o),
(324,1796,cs),
(324,1648,o),
(218,1496,o)
);
}
);
width = 0;
}
);
userData = {
com.typemytype.robofont.mark = (
0.967,
0.6,
1,
1
);
};
},
{
glyphname = tildecomb.case;
lastChange = "2023-03-01 05:16:57 +0000";
layers = (
{
anchors = (
{
name = _top;
pos = (432,1708);
},
{
name = top;
pos = (432,2056);
}
);
layerId = "043639A7-E62C-4A4F-99F5-E7AE759848D8";
shapes = (
{
closed = 1;
nodes = (
(569,1788,cs),
(659,1788,o),
(742,1854,o),
(742,1981,cs),
(742,2004,o),
(739,2034,o),
(733,2077,c),
(601,2077,l),
(601,2006,ls),
(601,1970,o),
(583,1954,o),
(559,1954,cs),
(524,1954,o),
(483,2004,o),
(454,2034,c),
(410,2074,o),
(370,2095,o),
(305,2095,cs),
(207,2095,o),
(121,2043,o),
(121,1879,cs),
(121,1867,o),
(124,1819,o),
(124,1805,c),
(272,1805,l),
(272,1871,ls),
(272,1907,o),
(285,1929,o),
(308,1929,cs),
(342,1929,o),
(356,1902,o),
(409,1851,c),
(456,1810,o),
(501,1788,o)
);
}
);
width = 863;
}
);
metricLeft = hyphen;
metricRight = "=|";
userData = {
com.typemytype.robofont.mark = (
0.967,
0.6,
1,
1
);
};
},
{
glyphname = macroncomb.case;
lastChange = "2023-03-01 05:17:15 +0000";
layers = (
{
anchors = (
{
name = _top;
pos = (1,1708);
},
{
name = top;
pos = (1,1998);
}
);
layerId = "043639A7-E62C-4A4F-99F5-E7AE759848D8";
shapes = (
{
closed = 1;
nodes = (
(-311,1835,l),
(312,1835,l),
(312,2028,l),
(-311,2028,l)
);
}
);
width = 0;
}
);
userData = {
com.typemytype.robofont.mark = (
0.967,
0.6,
1,
1
);
};
},
